<svg width="200" height="200" viewBox="0 0 200 200" fill="none" xmlns="http://www.w3.org/2000/svg">
<g clip-path="url(#clip0_539_70)">
<path d="M9.41124 91.1523C4.2134 91.1523 0 95.317 0 100.455C0 105.593 4.2134 109.757 9.41124 109.757H11.35V91.1523H9.41124Z" fill="#42C9F2"/>
<path d="M32.1156 91.1523H30.1747V109.757H32.1156C37.3134 109.757 41.5269 105.593 41.5269 100.455C41.5269 95.317 37.3134 91.1523 32.1156 91.1523Z" fill="#6666FF"/>
<path d="M30.1747 89.2302C30.1747 84.0924 25.9613 79.9277 20.7635 79.9277C15.5656 79.9277 11.3522 84.0924 11.3522 89.2302V91.1521H30.1747V89.2302Z" fill="#42C9F2"/>
<path d="M11.6424 113.909C12.8835 118.893 17.9764 121.94 23.0191 120.714C27.2269 119.69 30.1825 115.957 30.1747 111.674V109.757L15.8457 109.756L11.6424 113.909Z" fill="#6666FF"/>
<path d="M11.3522 91.1523L11.3533 111.675C11.3567 112.429 11.4527 113.181 11.6413 113.912L15.8457 109.756L30.1747 109.757V91.1523H11.3522Z" fill="#000066"/>
<path d="M58.6751 98.0956H69.9536C69.5529 94.6433 67.6635 92.7772 64.5136 92.7772C61.364 92.7772 59.3035 94.5318 58.6729 98.0956M74.3613 110.657C74.3613 110.657 71.6135 113.486 65.5449 113.486C57.7007 113.486 52.9495 108.223 52.9495 100.977C52.9495 93.7314 57.5869 88.4688 64.6286 88.4688C71.6704 88.4688 75.5646 93.3926 75.5646 100.296C75.5646 100.806 75.5064 101.769 75.5064 101.769H58.4453C58.7889 106.578 61.6518 108.957 65.8887 108.957C68.2226 109 70.5029 108.262 72.3589 106.862L74.3613 110.657Z" fill="#111114"/>
<path d="M79.9655 89.037H83.6296L84.3173 92.4325H84.6609C86.4356 89.8262 88.6702 88.4707 92.6191 88.4707C96.5678 88.4707 99.4887 90.0548 101.15 92.7725H101.435C103.038 90.1662 105.39 88.4707 109.68 88.4707C115.919 88.4707 119.528 92.7725 119.528 99.1666V112.804H113.917V99.6772C113.917 96.0554 112.027 93.2251 108.305 93.2251C105.249 93.1214 102.688 95.4858 102.583 98.5066C102.582 98.5379 102.581 98.5703 102.581 98.6015V112.807H96.9696V99.1108C96.9696 95.7722 94.9651 93.2251 91.3009 93.2251C88.2271 93.1392 85.6633 95.5326 85.5762 98.5714C85.5762 98.5814 85.5762 98.5914 85.5762 98.6015V112.807H79.9655V89.037Z" fill="#111114"/>
<path d="M137.35 108.788C141.243 108.788 144.049 105.562 144.049 100.921C144.049 96.2806 141.243 93.0545 137.35 93.0545C133.457 93.0545 130.594 96.0543 130.594 100.921C130.594 105.788 133.572 108.788 137.35 108.788ZM130.88 110.033V121.636H125.269V89.037H128.995L129.796 92.4325H130.14C130.14 92.4325 132.315 88.4707 138.556 88.4707C144.796 88.4707 149.721 93.3354 149.721 100.921C149.721 108.507 144.912 113.372 138.729 113.372C132.545 113.372 131.113 110.033 131.113 110.033H130.88Z" fill="#111114"/>
<path d="M159.945 78.5664H154.335V112.806H159.945V78.5664Z" fill="#111114"/>
<path d="M165.846 89.0369H171.458V112.807H165.847L165.846 89.0369ZM165.218 81.3396C165.228 79.4858 166.757 77.991 168.632 78.001H168.651C170.534 77.9564 172.098 79.429 172.142 81.2906C172.142 81.3073 172.142 81.324 172.142 81.3407C172.09 83.2325 170.495 84.724 168.582 84.6716C166.776 84.6225 165.311 83.2102 165.216 81.4277V81.3407" fill="#111114"/>
<path d="M193.704 89.0369H199.318V112.807H193.707L193.704 89.0369ZM193.075 81.3396C193.084 79.4858 194.613 77.991 196.489 78.001H196.507C198.391 77.9564 199.955 79.4279 200 81.2895C200 81.3062 200 81.3229 200 81.3396C199.955 83.2313 198.365 84.7273 196.453 84.6816C194.636 84.6381 193.164 83.218 193.073 81.4266L193.075 81.3396Z" fill="#111114"/>
<path d="M177.039 89.0362V87.0007C177.039 81.5117 180.187 78.1719 185.738 78.1719C187.615 78.124 189.478 78.5108 191.178 79.3012L189.404 83.4892C188.429 83.0679 187.375 82.8561 186.311 82.8672C184.078 82.8672 182.645 84.3387 182.645 86.7153V89.034H189.347V93.3915H182.645V112.804H177.036L177.039 89.0362Z" fill="#111114"/>
</g>
<defs>
<clipPath id="clip0_539_70">
<rect width="200" height="43.6364" fill="white" transform="translate(0 78)"/>
</clipPath>
</defs>
</svg>
