<svg width="189" height="189" viewBox="0 0 189 189" fill="none" xmlns="http://www.w3.org/2000/svg">
<g clip-path="url(#clip0_847_40)">
<mask id="mask0_847_40" style="mask-type:luminance" maskUnits="userSpaceOnUse" x="0" y="45" width="189" height="99">
<path d="M189 45H0V144H189V45Z" fill="white"/>
</mask>
<g mask="url(#mask0_847_40)">
<path d="M24.2172 45.1335C11.2922 46.3978 1.00053 57.0305 0.0706132 70.0503C-1.05467 85.8502 11.4172 99.0742 26.9054 99.0742V99.0586C34.5713 99.0349 41.9951 95.7054 47.1136 89.8472C49.1922 87.4679 48.4967 83.7613 45.7304 82.2535C43.7376 81.1698 41.2292 81.5468 39.7446 83.2587C36.5015 86.9967 31.7816 89.1249 26.9054 89.1483V89.1641C19.2161 89.1641 12.7144 84.0284 10.5967 77.0001H46.7462C51.0051 77.0001 54.0996 73.5214 53.662 69.2572C52.1852 54.7767 39.2991 43.6493 24.2172 45.1335ZM10.5967 67.0819C12.7144 60.0459 19.2238 54.9181 26.9054 54.9181C34.5869 54.9181 41.0964 60.0538 43.2141 67.0819H10.5967ZM73.9483 69.1003C76.0192 69.1003 77.8321 67.781 78.5822 65.8413C79.6216 63.1713 81.3016 60.8234 83.4428 58.9937C86.4124 56.4572 90.2571 54.9181 94.4612 54.9181C98.6654 54.9181 102.502 56.4494 105.48 58.9937C107.621 60.8234 109.301 63.1713 110.34 65.8413C111.09 67.781 112.903 69.1003 114.974 69.1003C118.459 69.1003 120.819 65.5742 119.569 62.3154C118.037 58.334 115.584 54.8003 112.481 51.9811C107.691 47.6385 101.369 45 94.4456 45C87.5219 45 81.2002 47.6385 76.4333 51.9733C73.331 54.7924 70.885 58.3183 69.3457 62.3075C68.0874 65.5742 70.4552 69.0924 73.9406 69.0924L73.9483 69.1003ZM114.974 74.9583C112.903 74.9583 111.09 76.2776 110.34 78.2251C109.309 80.9029 107.621 83.2509 105.48 85.0805C102.51 87.6248 98.6575 89.1641 94.4535 89.1641C90.2492 89.1641 86.4045 87.6248 83.4273 85.0805C81.286 83.2509 79.606 80.895 78.5667 78.2251C77.8165 76.2776 76.0036 74.9583 73.9327 74.9583C70.4475 74.9583 68.0874 78.4765 69.3378 81.7431C70.8694 85.7402 73.3154 89.2739 76.4254 92.1009C81.2002 96.4356 87.5219 99.0821 94.4456 99.0821C101.369 99.0821 107.699 96.4356 112.473 92.1009C115.576 89.2818 118.029 85.7402 119.561 81.7431C120.811 78.4765 118.452 74.9583 114.966 74.9583H114.974ZM181.108 52.9313C176.239 48.0312 169.511 45 162.095 45C154.679 45 147.951 48.0312 143.083 52.9313C138.214 57.8236 135.19 64.5848 135.19 72.0371V94.1113C135.19 96.852 137.402 99.0665 140.121 99.0665C142.84 99.0665 145.052 96.8441 145.052 94.1113V72.0371C145.052 67.3175 146.959 63.0378 150.045 59.936C153.132 56.8341 157.391 54.9181 162.087 54.9181C166.784 54.9181 171.043 56.8341 174.129 59.936C177.216 63.0378 179.123 67.3175 179.123 72.0371V94.1035C179.123 96.8441 181.334 99.0586 184.053 99.0586C186.773 99.0586 188.984 96.8362 188.984 94.1035V72.0371C188.984 64.5848 185.969 57.8236 181.092 52.9313H181.108Z" fill="white"/>
<path d="M4.32059 121.862C5.03952 120.511 6.03196 119.459 7.29007 118.721C8.54821 117.975 9.95479 117.605 11.5021 117.605C13.0493 117.605 14.3465 117.935 15.4718 118.595C16.5971 119.255 17.4332 120.087 17.9802 121.084V117.896H20.9028V135.392H17.9802V132.133C17.4098 133.154 16.558 134.002 15.4249 134.67C14.2918 135.337 12.9712 135.675 11.4708 135.675C9.97042 135.675 8.52476 135.29 7.27444 134.528C6.02414 133.766 5.03952 132.691 4.32059 131.301C3.60165 129.919 3.24219 128.34 3.24219 126.573C3.24219 124.806 3.60165 123.22 4.32059 121.862ZM17.1832 123.157C16.6518 122.176 15.9407 121.43 15.042 120.904C14.1433 120.385 13.1509 120.118 12.0725 120.118C10.9941 120.118 10.0095 120.377 9.11866 120.888C8.22781 121.398 7.51669 122.144 6.99312 123.126C6.46174 124.108 6.19606 125.254 6.19606 126.573C6.19606 127.893 6.46174 129.078 6.99312 130.068C7.52451 131.057 8.22781 131.811 9.11866 132.337C10.0095 132.856 10.9941 133.123 12.0725 133.123C13.1509 133.123 14.1433 132.863 15.042 132.337C15.9407 131.819 16.6596 131.057 17.1832 130.068C17.7145 129.078 17.9802 127.924 17.9802 126.605C17.9802 125.285 17.7145 124.139 17.1832 123.157Z" fill="white"/>
<path d="M41.573 111.762V135.383H38.6816V111.762H41.573Z" fill="white"/>
<path d="M59.4982 114.475C59.1153 114.09 58.9277 113.626 58.9277 113.069C58.9277 112.511 59.1153 112.048 59.4982 111.663C59.8812 111.278 60.3421 111.09 60.897 111.09C61.4517 111.09 61.8738 111.278 62.2488 111.663C62.6162 112.048 62.8037 112.511 62.8037 113.069C62.8037 113.626 62.6162 114.09 62.2488 114.475C61.8816 114.859 61.4284 115.048 60.897 115.048C60.3656 115.048 59.8812 114.859 59.4982 114.475ZM62.2958 117.89V135.386H59.4045V117.89H62.2958Z" fill="white"/>
<path d="M91.2648 118.587C92.3979 119.247 93.2418 120.079 93.7888 121.076V117.888H96.7115V135.761C96.7115 137.355 96.3754 138.777 95.6955 140.025C95.0157 141.274 94.0466 142.248 92.7886 142.946C91.5305 143.645 90.0613 143.999 88.3891 143.999C86.0995 143.999 84.1928 143.457 82.6688 142.373C81.1451 141.289 80.2465 139.805 79.965 137.936H82.8252C83.1456 138.997 83.8019 139.86 84.7944 140.504C85.7868 141.156 86.9824 141.478 88.3812 141.478C89.9675 141.478 91.2648 140.975 92.2728 139.978C93.2809 138.981 93.7811 137.575 93.7811 135.761V132.094C93.2106 133.115 92.3588 133.971 91.2414 134.646C90.116 135.329 88.8033 135.667 87.3028 135.667C85.8026 135.667 84.3568 135.282 83.0909 134.52C81.8249 133.759 80.8403 132.683 80.1214 131.293C79.4024 129.911 79.043 128.332 79.043 126.566C79.043 124.799 79.4024 123.212 80.1214 121.854C80.8403 120.503 81.8328 119.451 83.0909 118.713C84.3489 117.967 85.7556 117.598 87.3028 117.598C88.8501 117.598 90.1239 117.927 91.257 118.587H91.2648ZM92.9996 123.15C92.4682 122.168 91.7572 121.422 90.8584 120.896C89.9598 120.378 88.9673 120.111 87.8889 120.111C86.8105 120.111 85.8259 120.37 84.935 120.88C84.0443 121.391 83.3331 122.137 82.8096 123.118C82.2782 124.1 82.0125 125.246 82.0125 126.566C82.0125 127.885 82.2782 129.071 82.8096 130.06C83.341 131.05 84.0443 131.803 84.935 132.33C85.8259 132.848 86.8105 133.115 87.8889 133.115C88.9673 133.115 89.9598 132.856 90.8584 132.33C91.7572 131.811 92.4761 131.05 92.9996 130.06C93.531 129.071 93.7967 127.916 93.7967 126.597C93.7967 125.278 93.531 124.131 92.9996 123.15Z" fill="white"/>
<path d="M128.127 119.498C129.439 120.786 130.096 122.639 130.096 125.066V135.377H127.236V125.482C127.236 123.739 126.798 122.404 125.931 121.477C125.063 120.551 123.875 120.087 122.375 120.087C120.875 120.087 119.64 120.566 118.741 121.524C117.843 122.482 117.39 123.872 117.39 125.71V135.384H114.498V117.888H117.39V120.378C117.96 119.483 118.741 118.791 119.726 118.305C120.711 117.818 121.797 117.566 122.985 117.566C125.102 117.566 126.822 118.21 128.134 119.498H128.127Z" fill="white"/>
<path d="M163.604 127.72H149.694C149.804 129.44 150.39 130.79 151.46 131.756C152.531 132.722 153.828 133.209 155.352 133.209C156.602 133.209 157.641 132.918 158.478 132.33C159.314 131.741 159.9 130.963 160.244 129.981H163.354C162.885 131.662 161.955 133.028 160.556 134.081C159.158 135.133 157.423 135.659 155.344 135.659C153.695 135.659 152.218 135.29 150.913 134.544C149.608 133.798 148.592 132.738 147.85 131.371C147.108 129.997 146.74 128.411 146.74 126.597C146.74 124.783 147.1 123.205 147.819 121.838C148.538 120.48 149.554 119.427 150.851 118.697C152.156 117.959 153.648 117.598 155.344 117.598C157.04 117.598 158.454 117.959 159.728 118.681C161.002 119.404 161.978 120.401 162.666 121.665C163.354 122.93 163.698 124.359 163.698 125.961C163.698 126.518 163.666 127.1 163.604 127.72ZM159.986 122.498C159.501 121.697 158.837 121.092 158.001 120.676C157.165 120.26 156.235 120.056 155.219 120.056C153.758 120.056 152.515 120.527 151.484 121.461C150.46 122.396 149.866 123.699 149.718 125.356H160.705C160.705 124.249 160.462 123.299 159.978 122.498H159.986Z" fill="white"/>
<path d="M185.547 118.399C186.492 117.849 187.64 117.566 188.993 117.566V120.566H188.226C184.983 120.566 183.366 122.333 183.366 125.867V135.377H180.475V117.881H183.366V120.723C183.873 119.726 184.6 118.949 185.538 118.391L185.547 118.399Z" fill="white"/>
</g>
</g>
<defs>
<clipPath id="clip0_847_40">
<rect width="189" height="99" fill="white" transform="translate(0 45)"/>
</clipPath>
</defs>
</svg>
