<?xml version="1.0" encoding="UTF-8"?>
<svg id="Layer_2" data-name="Layer 2" xmlns="http://www.w3.org/2000/svg" viewBox="0 0 216 62">
  <defs>
    <style>
      .cls-1 {
        fill: #00ac4e;
      }

      .cls-2 {
        fill: #fff;
      }
    </style>
  </defs>
  <g id="Layer_1-2" data-name="Layer 1">
    <g>
      <g>
        <path class="cls-2" d="m77.33,18.5c0-5.54,0-11.09,0-16.63,0-.2,0-.4.01-.59.01-.22.16-.36.38-.38.11-.01.23,0,.35,0,2.3,0,4.59,0,6.89,0,.88,0,1.74.14,2.57.47,1.15.46,2.02,1.23,2.63,2.3.4.71.65,1.48.79,2.28.13.72.18,1.44.18,2.17,0,1.88,0,3.76,0,5.64,0,.61-.04,1.22-.1,1.83-.06.62-.18,1.24-.39,1.83-.27.76-.68,1.43-1.29,1.96-.39.34-.83.6-1.29.82-.13.06-.27.12-.4.19-.06.03-.09.1-.08.17.02.08.04.16.06.24.82,2.92,1.64,5.84,2.46,8.76.41,1.44.81,2.89,1.22,4.33.03.1.05.19.07.29.22.87-.27,2.02-1.48,2.26-.96.19-1.76-.38-2.06-1.1-.07-.17-.12-.34-.17-.52-.34-1.21-.68-2.41-1.02-3.62-.89-3.16-1.78-6.31-2.67-9.47-.03-.11-.07-.22-.1-.33-.02-.07-.08-.1-.15-.11-.03,0-.07,0-.1,0-.71,0-1.42,0-2.13,0-.05,0-.1.01-.15.02-.06,0-.09.05-.1.1-.02.05-.02.1-.02.15,0,.16,0,.33,0,.49,0,4.39,0,8.78,0,13.17,0,.15,0,.3,0,.45,0,.07,0,.13-.03.2-.03.1-.09.17-.19.21-.16.07-.32.07-.49.07-.71,0-1.42,0-2.13,0-.15,0-.3,0-.45,0-.08,0-.17,0-.25-.02-.27-.05-.37-.15-.38-.43,0-.18,0-.36,0-.54,0-5.54,0-11.09,0-16.63Zm3.92-7.41c0,1.93,0,3.86,0,5.79,0,.13,0,.26,0,.4,0,.05,0,.1,0,.15,0,.08.08.15.17.15.07,0,.13,0,.2,0,.78,0,1.55,0,2.33,0,.31,0,.63-.02.94-.08.81-.14,1.43-.56,1.81-1.31.07-.13.12-.27.18-.41.17-.47.25-.96.28-1.45.02-.3.02-.59.02-.89,0-1.57,0-3.13,0-4.7,0-.28,0-.56-.01-.84-.01-.43-.09-.85-.2-1.27-.07-.27-.18-.53-.32-.78-.31-.54-.75-.91-1.35-1.1-.38-.12-.77-.18-1.17-.18-.78,0-1.55,0-2.33,0-.6,0-.56-.02-.56.57,0,1.98,0,3.96,0,5.94Zm9.21,23.36c.03-.53-.46-.89-.86-.88-.49.01-.88.39-.87.88.01.48.36.84.84.86.52.02.91-.41.89-.86Z"/>
        <path class="cls-2" d="m59.38,16.05c0,.06.01.12.02.19,0,.16,0,.33,0,.5,0,7.89,0,15.78,0,23.66,0,.26,0,.53.01.79.03.5.13.98.3,1.45.14.37.33.72.59,1.03.69.83,1.82,1.12,2.72.94.94-.19,1.62-.71,2.05-1.56.28-.54.42-1.11.46-1.71.03-.34.03-.69.03-1.04,0-7.24,0-14.49,0-21.73,0-.17,0-.33,0-.49.02-.37.16-.5.52-.53.08,0,.17,0,.25,0,.81,0,1.62,0,2.43,0,.12,0,.23,0,.35.01.25.03.39.17.4.42,0,.07,0,.13,0,.2,0,.12,0,.23,0,.35,0,7.48,0,14.95,0,22.43,0,.58-.02,1.15-.1,1.73-.1.76-.29,1.49-.61,2.18-.67,1.43-1.76,2.41-3.23,2.98-.54.21-1.1.34-1.68.42-.72.11-1.45.11-2.18.07-.88-.06-1.73-.25-2.54-.59-1.68-.72-2.78-1.97-3.35-3.69-.17-.53-.28-1.08-.34-1.64-.06-.51-.07-1.02-.07-1.53,0-7.82,0-15.64,0-23.47,0-.89-.12-.76.75-.77.36,0,.73,0,1.09,0,.7.02,1.34-.15,1.91-.56.06-.04.12-.06.19-.01Z"/>
        <path class="cls-2" d="m37.39,33.35c0,4.51,0,9.01,0,13.52,0,.58-.02,1.16-.1,1.73-.1.74-.29,1.46-.62,2.13-.67,1.39-1.77,2.33-3.22,2.84-.72.26-1.46.41-2.23.42-.46,0-.93.02-1.39-.01-1-.07-1.95-.31-2.85-.78-1.22-.64-2.08-1.6-2.61-2.87-.28-.68-.44-1.38-.51-2.11-.05-.53-.06-1.05-.06-1.58,0-7.31,0-14.62,0-21.94,0-.18,0-.36,0-.54,0-.11.08-.18.2-.18.13,0,.26,0,.4,0,.45,0,.89,0,1.34,0,.55,0,1.04-.16,1.49-.45.07-.05.14-.09.21-.13.03-.02.11.03.11.06,0,.05.01.1.02.15,0,.13,0,.26,0,.4,0,4.84,0,9.67,0,14.51,0,2.66,0,5.31,0,7.97,0,.53.05,1.05.18,1.57.1.4.25.79.47,1.14.45.69,1.07,1.09,1.88,1.24,1.01.19,2.29-.23,2.93-1.4.22-.4.36-.81.44-1.25.07-.41.12-.82.11-1.23,0-.18,0-.36,0-.54,0-8.86,0-17.73,0-26.59,0-.17,0-.33,0-.5,0-.07,0-.13.02-.2.02-.14.16-.28.3-.29.07,0,.13-.01.2-.01.91,0,1.82,0,2.73,0,.07,0,.13,0,.2.01.17.02.3.15.33.32,0,.07.01.13.01.2,0,.15,0,.3,0,.45,0,4.65,0,9.31,0,13.96Z"/>
        <path class="cls-2" d="m93.58,29.77c0-5.54,0-11.09,0-16.63,0-.16,0-.33,0-.49,0-.08.02-.17.04-.24.04-.12.12-.2.24-.22.08-.01.16-.02.25-.02.13,0,.26,0,.4,0,3.4,0,6.81,0,10.21,0,.2,0,.4,0,.59.02.15.01.28.14.3.29.01.1.02.2.02.3,0,.83,0,1.65,0,2.48,0,.1,0,.2-.02.3-.02.14-.11.24-.25.28-.08.02-.16.04-.24.04-.15,0-.3,0-.45,0-2.18,0-4.36,0-6.54,0-.16,0-.33,0-.49.01-.06,0-.12.07-.12.13,0,.05,0,.1-.01.15,0,.1,0,.2,0,.3,0,3.56,0,7.13,0,10.69,0,.67-.06.62.6.63,2.1,0,4.2,0,6.3,0,.2,0,.4,0,.59.04.17.04.25.14.29.3.02.06.02.13.02.2,0,.87,0,1.75,0,2.62,0,.07,0,.13-.02.2-.03.18-.14.3-.32.33-.13.02-.26.03-.39.03-.38,0-.76,0-1.14,0-1.77,0-3.54,0-5.3,0-.16,0-.33,0-.49.02-.06,0-.12.07-.13.13,0,.12-.01.23-.01.35,0,3.75,0,7.49,0,11.24,0,.12,0,.23,0,.35,0,.08.07.15.16.16.16,0,.33.01.49.01,2.16,0,4.33,0,6.49,0,.13,0,.26,0,.4,0,.1,0,.2.02.29.04.13.02.24.13.26.27.01.08.02.16.02.25,0,.87,0,1.75,0,2.62,0,.08,0,.17-.03.24-.03.1-.09.18-.19.21-.09.03-.19.06-.29.07-.11.01-.23,0-.35,0-3.45,0-6.91,0-10.36,0-.13,0-.26,0-.4,0-.08,0-.16-.04-.24-.07-.1-.04-.16-.12-.18-.22-.02-.1-.03-.2-.03-.29,0-.16,0-.33,0-.5,0-5.53,0-11.06,0-16.58Z"/>
        <path class="cls-2" d="m16.56,7.67c-.01.06-.03.12-.04.19,0,.15,0,.3,0,.45,0,3.5,0,7,0,10.5,0,.16,0,.33.02.49,0,.05.08.13.13.13.18,0,.36.01.54.01,2.73,0,5.45,0,8.18,0,.23,0,.46,0,.69.05.69.14,1.15.56,1.39,1.21.35.96-.21,2.07-1.29,2.36-.09.03-.2.03-.29.04-.18,0-.36,0-.55,0-2.73,0-5.45,0-8.18,0-.17,0-.33,0-.5.01-.05,0-.12.08-.13.13,0,.07-.02.13-.02.2,0,.18,0,.36,0,.54,0,4.64,0,9.27,0,13.91,0,.15,0,.3,0,.45,0,.1-.02.2-.03.29-.02.13-.11.2-.22.25-.08.03-.16.04-.24.04-.96,0-1.92,0-2.88,0-.37,0-.51-.14-.53-.51,0-.18,0-.36,0-.54,0-7.39,0-14.79,0-22.18,0-3.56,0-7.13,0-10.69,0-.17,0-.33,0-.5,0-.08.02-.16.04-.24.04-.16.15-.25.31-.29.06-.01.13-.01.2-.02.13,0,.26,0,.4,0,4.36,0,8.73,0,13.09,0,.17,0,.33,0,.5,0,.23.01.36.14.39.37.01.1.02.2.02.3,0,.78,0,1.55,0,2.33,0,.13-.02.26-.05.39-.02.13-.12.2-.23.23-.08.03-.16.04-.24.04-.15,0-.3,0-.45,0-3.16,0-6.31,0-9.47,0-.18,0-.36-.03-.55.04Zm8.24,13.65c0,.5.46.87.9.85.46-.02.84-.41.84-.87,0-.47-.41-.89-.88-.88-.49.01-.88.42-.86.9Z"/>
        <path class="cls-2" d="m44.42,31.41c0-4.98,0-9.97,0-14.95,0-.82.11-.71-.7-.71-2.03,0-4.07,0-6.1,0-.26,0-.53,0-.79-.01-.37-.02-.5-.15-.52-.52,0-.07,0-.13,0-.2,0-.76,0-1.52,0-2.28,0-.13,0-.26.03-.39.03-.16.14-.26.3-.29.08-.01.16-.02.25-.02.15,0,.3,0,.45,0,6.59,0,13.19,0,19.78,0,.21,0,.43,0,.64.02.74.07,1.35.61,1.57,1.32.3,1-.37,2.11-1.38,2.31-.2.04-.39.06-.59.06-.74,0-1.49,0-2.23,0-2.07,0-4.13,0-6.2,0-.13,0-.26,0-.4.01-.08,0-.15.08-.15.16,0,.08,0,.16,0,.25,0,.17,0,.33,0,.5,0,9.87,0,19.74,0,29.61,0,.18,0,.36,0,.54,0,.1-.02.2-.05.29-.03.12-.13.19-.24.22-.08.02-.16.03-.25.03-.96,0-1.92,0-2.88,0-.07,0-.13,0-.2-.01-.14-.02-.28-.15-.31-.29-.01-.06-.02-.13-.02-.2,0-.15,0-.3,0-.45,0-5,0-10,0-15Zm13.09-16.65c.49.03.89-.4.88-.86,0-.42-.33-.87-.89-.86-.47,0-.84.38-.86.84-.02.44.37.9.87.88Z"/>
      </g>
      <g>
        <path class="cls-1" d="m85.59,0c.11.08.25.08.38.09.75.05,1.46.26,2.14.56,1.28.57,2.24,1.5,2.9,2.73.41.76.66,1.58.81,2.43.13.77.19,1.54.19,2.32,0,1.35,0,2.71,0,4.06,0,.13.01.26.03.39,0,.02.06.05.07.04.05-.04.11-.08.15-.13.19-.21.38-.41.57-.62.08-.09.15-.17.24-.25.21-.2.46-.32.75-.34.2-.01.4-.02.59-.02,2.2,0,4.4,0,6.59,0,1.29,0,2.58,0,3.87,0,.18,0,.36,0,.54.02.57.06,1,.49,1.08,1.06.02.13.02.26.02.4,0,.83,0,1.65,0,2.48,0,.03,0,.07,0,.1.01.44-.14.8-.44,1.12-1,1.08-1.98,2.17-2.97,3.26-.13.15-.27.29-.4.44-.26.29-.59.42-.96.45-.13.01-.26,0-.4,0-.86,0-1.72,0-2.58,0-.1,0-.2.01-.29.03-.03,0-.05.04-.07.07-.01.03-.02.06-.02.1,0,.15,0,.3,0,.45,0,1.67,0,3.33,0,5,0,.16,0,.33.01.49,0,.06.07.13.13.13.15,0,.3.02.44.02,1.04,0,2.08,0,3.12,0,.83,0,1.65,0,2.48,0,.22,0,.43.01.64.06.46.1.76.38.9.82.05.16.08.32.08.49,0,.91,0,1.82,0,2.72,0,.4-.13.74-.4,1.04-.35.38-.69.76-1.03,1.14-.72.79-1.45,1.59-2.17,2.38-.04.05-.09.09-.13.15-.3.38-.71.52-1.17.55-.12,0-.23,0-.35,0-.66,0-1.32,0-1.98,0-.13,0-.26,0-.4,0-.08,0-.16.08-.17.15,0,.05,0,.1-.01.15,0,.08,0,.17,0,.25,0,1.83,0,3.66,0,5.5,0,.58-.05.57.56.57,1.95,0,3.9,0,5.85,0,.21,0,.43.01.64.03.49.04,1,.43,1.07,1.12,0,.1.01.2.01.3,0,.86,0,1.72,0,2.57,0,.07,0,.13,0,.2-.01.33-.13.61-.35.85-.03.04-.07.07-.1.11-1.08,1.18-2.16,2.37-3.24,3.55-.03.04-.07.07-.1.11-.26.31-.61.44-1,.47-.12,0-.23,0-.35,0-3.52,0-7.04,0-10.56,0-.2,0-.39,0-.59-.04-.78-.16-1-.72-1.05-1.21-.01-.11,0-.23,0-.35,0-.59,0-1.19,0-1.78,0-3.07,0-6.14,0-9.21,0-.52,0-.57-.07-.56-.19.05-.28.22-.41.34-3.53,3.52-7.06,7.05-10.59,10.57-.13.13-.25.26-.39.38-.5.44-1.08.67-1.75.7-1.22.05-2.36-.73-2.73-1.95-.11-.36-.21-.73-.31-1.09-.14-.49-.27-.98-.41-1.48-.04-.13-.08-.25-.12-.38-.06.02-.11.02-.15.05-.11.1-.21.21-.32.31-1.17,1.17-2.34,2.33-3.51,3.5-.08.08-.17.16-.24.25-.3.33-.67.47-1.11.47-.51,0-1.02,0-1.54,0-.25,0-.5,0-.71,0-.19.08-.29.22-.4.33-1.43,1.42-2.85,2.85-4.28,4.27-.41.41-.82.81-1.23,1.23-.95.97-2.11,1.57-3.42,1.9-.98.25-1.99.34-3,.28-.96-.06-1.9-.22-2.8-.56-2.06-.78-3.44-2.22-4.14-4.31-.21-.61-.32-1.24-.4-1.88,0-.06-.02-.13-.03-.2-.06.02-.11.01-.14.04-.11.1-.22.2-.32.31-.96.96-1.92,1.91-2.88,2.87-.09.09-.19.19-.28.28-.2.18-.43.3-.71.33-.16.01-.33.03-.49.03-.84,0-1.69,0-2.53,0-.18,0-.36-.01-.54-.04-.55-.07-.95-.5-1.02-1-.02-.13-.03-.26-.04-.39,0-.1,0-.2,0-.3,0-.7,0-.76-.08-.76-.02,0-.04-.01-.05,0-.18.17-.37.33-.54.51-2.03,2.03-4.08,4.05-6.1,6.09-1.03,1.04-2.26,1.7-3.69,1.99-.36.07-.72.13-1.07.19-.11.02-.23.03-.32.11h-1.39c-.06-.03-.11-.08-.17-.09-.21-.04-.42-.08-.63-.11-.67-.09-1.33-.26-1.95-.52-1.04-.43-1.94-1.06-2.64-1.94-.77-.96-1.21-2.07-1.43-3.27-.12-.68-.17-1.37-.17-2.07,0-4.21,0-8.41,0-12.62,0-.15,0-.3,0-.45,0-.05,0-.1-.01-.15,0-.03-.03-.06-.05-.08-.02-.01-.07,0-.09,0-.11.1-.22.2-.32.3-2.41,2.4-4.81,4.8-7.22,7.21-.89.89-1.78,1.77-2.66,2.66-.33.34-.73.5-1.2.49-.92,0-1.85,0-2.77,0-.2,0-.39-.03-.58-.09-.37-.12-.62-.36-.77-.72-.03-.08-.04-.16-.06-.24-.02-.1-.1-.17-.17-.23V15.85c.1,0,.15-.07.17-.15.06-.34.25-.61.5-.83.02-.02.05-.05.07-.07,3.7-3.7,7.41-7.4,11.11-11.1.09-.09.19-.19.28-.28.2-.18.44-.29.71-.32.15-.02.3-.02.45-.02,4.53,0,9.06,0,13.58,0,.13,0,.27,0,.4.01.57.07.99.42,1.1.98.04.18.06.36.06.54,0,.79,0,1.58,0,2.38,0,.18-.02.36-.06.54-.05.22-.14.4-.29.57-.11.12-.23.24-.35.35-3.18,3.17-6.36,6.35-9.54,9.52-.11.11-.21.21-.31.32-.05.06-.15.11-.12.19.04.12.16.07.26.08.13,0,.26,0,.4,0,2.31,0,4.63,0,6.94,0,.13,0,.26,0,.4,0,.68.03,1.29.25,1.81.71.05.04.1.09.14.13.05.04.13.05.18,0,.11-.1.22-.2.32-.31,2.44-2.44,4.89-4.88,7.33-7.31.11-.1.21-.21.32-.31.18-.16.38-.25.62-.29.25-.04.49-.03.74-.03,6.64,0,13.29,0,19.93,0,.15,0,.3,0,.45,0,.23.02.46.04.68.1,1.11.3,1.94,1.27,2,2.54,0,.2,0,.4,0,.59,0,.69,0,1.39,0,2.08,0,.08.01.16.03.24,0,.02.07.04.08.03.14-.12.27-.24.4-.36,5.21-5.2,10.42-10.41,15.64-15.61.13-.13.26-.26.39-.38.14-.14.31-.24.51-.29.08-.02.15-.06.23-.09,2.68,0,5.36,0,8.03,0Zm-8.26,18.5c0,5.54,0,11.09,0,16.63,0,.18,0,.36,0,.54.01.28.11.38.38.43.08.01.16.02.25.02.15,0,.3,0,.45,0,.71,0,1.42,0,2.13,0,.17,0,.33,0,.49-.07.1-.04.16-.12.19-.21.02-.06.02-.13.03-.2,0-.15,0-.3,0-.45,0-4.39,0-8.78,0-13.17,0-.16,0-.33,0-.49,0-.05,0-.1.02-.15.02-.04.04-.09.1-.1.05,0,.1-.02.15-.02.71,0,1.42,0,2.13,0,.03,0,.07,0,.1,0,.07,0,.13.03.15.11.04.11.07.22.1.33.89,3.16,1.78,6.31,2.67,9.47.34,1.21.68,2.41,1.02,3.62.05.17.1.35.17.52.3.72,1.1,1.29,2.06,1.1,1.21-.24,1.7-1.39,1.48-2.26-.02-.1-.05-.19-.07-.29-.41-1.44-.82-2.89-1.22-4.33-.82-2.92-1.64-5.84-2.46-8.76-.02-.08-.04-.16-.06-.24-.01-.06.02-.14.08-.17.13-.06.27-.13.4-.19.47-.22.9-.48,1.29-.82.61-.54,1.02-1.2,1.29-1.96.21-.59.33-1.21.39-1.83.06-.61.1-1.22.1-1.83,0-1.88,0-3.76,0-5.64,0-.73-.06-1.45-.18-2.17-.14-.8-.39-1.57-.79-2.28-.61-1.07-1.48-1.84-2.63-2.3-.82-.33-1.68-.47-2.57-.47-2.3,0-4.59,0-6.89,0-.12,0-.23,0-.35,0-.22.02-.37.16-.38.38-.01.2-.01.4-.01.59,0,5.54,0,11.09,0,16.63Zm-17.94-2.46c-.07-.04-.13-.03-.19.01-.57.42-1.21.58-1.91.56-.36,0-.73,0-1.09,0-.87,0-.75-.12-.75.77,0,7.82,0,15.64,0,23.47,0,.51.01,1.02.07,1.53.06.56.17,1.11.34,1.64.56,1.73,1.67,2.97,3.35,3.69.81.35,1.67.54,2.54.59.72.05,1.45.04,2.18-.07.57-.09,1.14-.22,1.68-.42,1.47-.56,2.56-1.54,3.23-2.98.32-.69.51-1.43.61-2.18.08-.57.1-1.15.1-1.73,0-7.48,0-14.95,0-22.43,0-.12,0-.23,0-.35,0-.07,0-.13,0-.2-.02-.25-.15-.39-.4-.42-.11-.01-.23-.01-.35-.01-.81,0-1.62,0-2.43,0-.08,0-.17,0-.25,0-.36.02-.5.16-.52.53,0,.16,0,.33,0,.49,0,7.24,0,14.49,0,21.73,0,.35,0,.69-.03,1.04-.05.6-.19,1.17-.46,1.71-.43.85-1.11,1.37-2.05,1.56-.9.18-2.04-.11-2.72-.94-.26-.31-.45-.65-.59-1.03-.17-.47-.27-.95-.3-1.45-.01-.26-.01-.53-.01-.79,0-7.89,0-15.78,0-23.66,0-.17,0-.33,0-.5,0-.07-.01-.13-.02-.19Zm-21.99,17.31c0-4.65,0-9.31,0-13.96,0-.15,0-.3,0-.45,0-.07,0-.13-.01-.2-.02-.17-.16-.31-.33-.32-.07,0-.13-.01-.2-.01-.91,0-1.82,0-2.73,0-.07,0-.13,0-.2.01-.14.02-.28.15-.3.29,0,.07-.02.13-.02.2,0,.17,0,.33,0,.5,0,8.86,0,17.73,0,26.59,0,.18,0,.36,0,.54.01.41-.04.82-.11,1.23-.08.44-.22.86-.44,1.25-.64,1.17-1.91,1.58-2.93,1.4-.81-.15-1.44-.56-1.88-1.24-.23-.35-.38-.73-.47-1.14-.12-.52-.18-1.04-.18-1.57,0-2.66,0-5.31,0-7.97,0-4.84,0-9.67,0-14.51,0-.13,0-.26,0-.4,0-.05-.01-.1-.02-.15,0-.04-.08-.08-.11-.06-.07.04-.14.08-.21.13-.45.3-.95.46-1.49.45-.45,0-.89,0-1.34,0-.13,0-.26,0-.4,0-.11,0-.19.07-.2.18,0,.18,0,.36,0,.54,0,7.31,0,14.62,0,21.94,0,.53.01,1.06.06,1.58.07.73.23,1.43.51,2.11.52,1.27,1.38,2.23,2.61,2.87.89.46,1.85.71,2.85.78.46.03.93.02,1.39.01.77-.01,1.51-.17,2.23-.42,1.45-.52,2.54-1.45,3.22-2.84.33-.67.52-1.39.62-2.13.08-.57.1-1.15.1-1.73,0-4.51,0-9.01,0-13.52Zm56.18-3.59c0,5.53,0,11.06,0,16.58,0,.17,0,.33,0,.5,0,.1.01.2.03.29.02.1.08.18.18.22.08.03.16.06.24.07.13.01.26,0,.4,0,3.45,0,6.91,0,10.36,0,.12,0,.23,0,.35,0,.1-.01.19-.04.29-.07.1-.03.16-.12.19-.21.02-.08.03-.16.03-.24,0-.87,0-1.75,0-2.62,0-.08-.01-.16-.02-.25-.02-.13-.13-.24-.26-.27-.1-.02-.2-.03-.29-.04-.13,0-.26,0-.4,0-2.16,0-4.33,0-6.49,0-.16,0-.33,0-.49-.01-.09,0-.16-.07-.16-.16,0-.12,0-.23,0-.35,0-3.75,0-7.49,0-11.24,0-.12,0-.23.01-.35,0-.06.07-.13.13-.13.16,0,.33-.02.49-.02,1.77,0,3.54,0,5.3,0,.38,0,.76,0,1.14,0,.13,0,.26-.01.39-.03.18-.03.29-.15.32-.33.01-.06.02-.13.02-.2,0-.87,0-1.75,0-2.62,0-.07,0-.13-.02-.2-.04-.16-.13-.26-.29-.3-.2-.05-.39-.04-.59-.04-2.1,0-4.2,0-6.3,0-.66,0-.6.04-.6-.63,0-3.56,0-7.13,0-10.69,0-.1,0-.2,0-.3,0-.05,0-.1.01-.15,0-.06.06-.13.12-.13.16,0,.33-.01.49-.01,2.18,0,4.36,0,6.54,0,.15,0,.3,0,.45,0,.08,0,.16-.02.24-.04.14-.04.23-.14.25-.28.01-.1.02-.2.02-.3,0-.83,0-1.65,0-2.48,0-.1,0-.2-.02-.3-.02-.15-.15-.27-.3-.29-.2-.01-.4-.02-.59-.02-3.4,0-6.81,0-10.21,0-.13,0-.26,0-.4,0-.08,0-.16.01-.25.02-.13.02-.21.1-.24.22-.02.08-.04.16-.04.24,0,.16,0,.33,0,.49,0,5.54,0,11.09,0,16.63ZM16.56,7.67c.18-.08.37-.04.55-.04,3.16,0,6.31,0,9.47,0,.15,0,.3,0,.45,0,.08,0,.16-.02.24-.04.11-.04.21-.11.23-.23.02-.13.05-.26.05-.39,0-.78,0-1.55,0-2.33,0-.1,0-.2-.02-.3-.03-.23-.16-.36-.39-.37-.16,0-.33,0-.5,0-4.36,0-8.73,0-13.09,0-.13,0-.26,0-.4,0-.07,0-.13,0-.2.02-.16.03-.27.13-.31.29-.02.08-.03.16-.04.24,0,.16,0,.33,0,.5,0,3.56,0,7.13,0,10.69,0,7.39,0,14.79,0,22.18,0,.18,0,.36,0,.54.02.36.16.51.53.51.96,0,1.92,0,2.88,0,.08,0,.17-.01.24-.04.11-.04.2-.12.22-.25.02-.1.03-.2.03-.29,0-.15,0-.3,0-.45,0-4.64,0-9.27,0-13.91,0-.18,0-.36,0-.54,0-.07.01-.13.02-.2,0-.05.08-.13.13-.13.16,0,.33-.01.5-.01,2.73,0,5.45,0,8.18,0,.18,0,.36,0,.55,0,.1,0,.2-.01.29-.04,1.08-.29,1.64-1.39,1.29-2.36-.23-.65-.69-1.07-1.39-1.21-.23-.05-.46-.05-.69-.05-2.73,0-5.45,0-8.18,0-.18,0-.36,0-.54-.01-.05,0-.13-.08-.13-.13,0-.16-.02-.33-.02-.49,0-3.5,0-7,0-10.5,0-.15,0-.3,0-.45,0-.06.02-.13.04-.19Zm27.86,23.74c0,5,0,10,0,15,0,.15,0,.3,0,.45,0,.07,0,.13.02.2.03.14.17.27.31.29.07,0,.13.01.2.01.96,0,1.92,0,2.88,0,.08,0,.17,0,.25-.03.12-.03.21-.1.24-.22.03-.09.04-.19.05-.29,0-.18,0-.36,0-.54,0-9.87,0-19.74,0-29.61,0-.17,0-.33,0-.5,0-.08,0-.16,0-.25,0-.09.07-.16.15-.16.13,0,.26-.01.4-.01,2.07,0,4.13,0,6.2,0,.74,0,1.49,0,2.23,0,.2,0,.39-.02.59-.06,1.01-.21,1.68-1.31,1.38-2.31-.22-.71-.83-1.25-1.57-1.32-.21-.02-.43-.02-.64-.02-6.59,0-13.19,0-19.78,0-.15,0-.3,0-.45,0-.08,0-.16.01-.25.02-.16.02-.27.13-.3.29-.02.13-.03.26-.03.39,0,.76,0,1.52,0,2.28,0,.07,0,.13,0,.2.02.36.15.5.52.52.26.01.53.01.79.01,2.03,0,4.07,0,6.1,0,.81,0,.7-.11.7.71,0,4.98,0,9.97,0,14.95Z"/>
        <path class="cls-1" d="m216,39.91c-.08.07-.09.17-.1.27-.06.8-.35,1.54-.72,2.24-.35.67-.83,1.23-1.41,1.71-.64.52-1.36.88-2.14,1.11-.51.15-1.02.25-1.55.32-.56.07-1.12.09-1.68.07-1.06-.05-2.1-.23-3.08-.66-1.43-.63-2.45-1.65-3.08-3.07-.35-.79-.54-1.62-.62-2.48-.06-.59-.07-1.19-.07-1.78,0-1.4,0-2.81,0-4.21,0-.2,0-.39.05-.59.08-.3.26-.49.56-.57.15-.04.29-.05.44-.05.88,0,1.75,0,2.63,0,.17,0,.33.02.49.07.22.07.37.21.46.42.05.12.09.25.09.38,0,.13,0,.26,0,.4,0,1.37,0,2.74,0,4.11,0,.43.01.86.11,1.28.09.41.21.8.43,1.15.27.45.65.79,1.14.98,1.06.41,2.29.06,2.9-.96.29-.48.44-.99.5-1.54.04-.36.05-.72.06-1.09,0-.83,0-1.65,0-2.48,0-.58-.14-1.11-.44-1.6-.14-.22-.28-.45-.45-.65-.23-.28-.47-.55-.72-.82-.53-.55-1.1-1.04-1.68-1.54-.69-.59-1.39-1.18-2.07-1.77-.69-.6-1.34-1.22-1.95-1.9-.49-.54-.94-1.11-1.33-1.73-.32-.5-.58-1.03-.79-1.59-.28-.75-.41-1.53-.42-2.33-.01-1.5-.01-3,0-4.51.01-.99.14-1.97.47-2.92.39-1.1,1-2.04,1.91-2.78.7-.57,1.5-.96,2.36-1.21.8-.23,1.62-.33,2.45-.33.41,0,.83,0,1.24.04.92.08,1.83.27,2.68.66,1.22.56,2.12,1.44,2.68,2.66.23.5.39,1.01.51,1.55.04.16.04.33.05.49,0,.07.03.13.09.17v6.83c-.17.33-.47.44-.82.46-.03,0-.07,0-.1,0-.89,0-1.78,0-2.68,0-.15,0-.3-.03-.44-.06-.3-.08-.48-.28-.53-.58-.03-.18-.03-.36-.03-.54,0-1.15,0-2.31,0-3.46,0-.36-.02-.73-.05-1.09-.06-.55-.21-1.07-.5-1.54-.34-.54-.81-.9-1.43-1.06-.23-.06-.46-.06-.69-.06-.74.02-1.33.33-1.78.92-.16.21-.28.44-.38.69-.19.51-.3,1.05-.3,1.6,0,1.1,0,2.21,0,3.31,0,.38.07.75.18,1.12.16.53.41,1,.73,1.45.3.43.65.84,1.03,1.2.41.38.82.76,1.26,1.12.62.51,1.26,1.01,1.9,1.51.63.5,1.26,1.01,1.85,1.56.53.5,1.03,1.02,1.47,1.6.42.56.77,1.15,1.01,1.81.1.26.2.52.21.81,0,.09.04.16.09.22v7.23Z"/>
        <path class="cls-1" d="m129.01,19.39c-.12.15-.16.31-.19.47-.22,1.22-.44,2.43-.66,3.65-.18.99-.36,1.98-.54,2.97-.18.99-.36,1.98-.54,2.97-.18.99-.36,1.98-.54,2.97-.15.81-.29,1.62-.44,2.43-.15.83-.3,1.65-.45,2.48-.15.83-.3,1.65-.45,2.48-.15.81-.29,1.62-.44,2.43-.11.6-.22,1.2-.33,1.8-.02.11-.05.23-.08.34-.11.37-.36.58-.74.64-.08.01-.16.01-.25.01-.83,0-1.65,0-2.48,0-.11,0-.23-.01-.34-.04-.31-.08-.52-.28-.61-.59-.04-.13-.07-.26-.09-.39-.18-.97-.35-1.95-.53-2.92-.14-.8-.29-1.59-.43-2.38-.15-.83-.3-1.65-.45-2.48-.18-1.01-.37-2.01-.55-3.02-.15-.81-.29-1.62-.44-2.43-.18-1.01-.37-2.01-.56-3.02-.18-.97-.35-1.95-.53-2.92-.18-1.01-.37-2.01-.55-3.02-.11-.62-.22-1.23-.34-1.85-.04-.19-.09-.38-.13-.58,0-.01-.03-.02-.06-.03,0,.1-.01.2-.01.3,0,1.6,0,3.2.01,4.8,0,.64,0,1.29,0,1.93,0,1.52.02,3.04.02,4.56.02,4.19.03,8.38.04,12.58,0,.15,0,.3,0,.45,0,.08,0,.17,0,.25-.05.53-.35.73-.74.79-.08.01-.16.01-.25.01-.91,0-1.82,0-2.73,0-.17,0-.33-.02-.48-.08-.25-.1-.4-.28-.45-.55-.02-.11-.03-.23-.03-.34,0-.12,0-.23,0-.35,0-10.84,0-21.69,0-32.53,0-.23,0-.46.04-.69.03-.23.16-.4.36-.5.07-.04.15-.07.23-.08.16-.02.33-.03.49-.03,1.8,0,3.6,0,5.4,0,.15,0,.3,0,.45.02.34.05.58.23.69.56.04.11.07.22.09.34.11.68.21,1.37.32,2.05.12.73.24,1.46.36,2.2.11.72.22,1.43.34,2.15.11.7.22,1.4.33,2.1.12.73.24,1.47.35,2.2.12.75.24,1.5.36,2.25.11.72.23,1.43.34,2.15.12.73.23,1.47.35,2.2.11.72.23,1.43.34,2.15.11.72.23,1.43.34,2.15.05.34.11.68.16,1.03.03.18.06.36.1.53,0,.03.03.06.06.1.07-.2.1-.39.13-.59.16-1.01.32-2.02.48-3.03.15-.93.29-1.86.43-2.79.15-.93.3-1.86.45-2.78.11-.72.22-1.43.34-2.15.11-.68.22-1.37.32-2.05.12-.78.25-1.56.37-2.35.12-.72.23-1.43.35-2.15.11-.72.23-1.43.34-2.15.11-.72.23-1.43.34-2.15.05-.33.1-.65.16-.98.02-.15.05-.29.1-.43.11-.33.34-.52.69-.56.15-.02.3-.02.45-.02,1.8,0,3.6,0,5.4,0,.15,0,.3,0,.45.02.35.04.6.29.65.64.02.11.02.23.03.34,0,.13,0,.26,0,.4,0,10.78,0,21.56,0,32.33,0,.15,0,.3,0,.45,0,.13-.02.26-.04.39-.05.22-.19.39-.39.48-.14.06-.28.1-.43.1-.15,0-.3,0-.45,0-.78,0-1.55,0-2.33,0-.16,0-.33,0-.49-.06-.34-.11-.5-.36-.55-.7-.02-.13-.01-.26-.01-.4,0-1.35,0-2.71,0-4.06,0-1.35,0-2.71.01-4.06,0-2.01.02-4.03.02-6.04.01-2.84.03-5.68.04-8.52,0-.53,0-1.06,0-1.58,0-.08,0-.16,0-.25Z"/>
        <path class="cls-1" d="m191.68,34.98c-.06-.02-.11-.05-.16-.05-.48,0-.96,0-1.44,0-.03,0-.07,0-.1.02-.03.02-.06.05-.06.07-.01.18-.02.36-.02.54,0,4.16,0,8.32,0,12.48,0,.15,0,.3,0,.45,0,.15-.04.3-.1.43-.08.19-.23.32-.43.38-.17.05-.35.07-.54.07-.55,0-1.09,0-1.64,0-.31,0-.63,0-.94,0-.17,0-.33-.01-.49-.06-.26-.07-.43-.24-.5-.5-.03-.13-.05-.26-.06-.39-.01-.13,0-.26,0-.4,0-10.83,0-21.65,0-32.48,0-.17,0-.33,0-.49.04-.52.28-.78.8-.85.11-.02.23-.01.35-.01,2.2,0,4.4,0,6.59,0,.69,0,1.38.08,2.06.25,1.81.48,3.08,1.59,3.83,3.31.23.53.39,1.09.49,1.66.13.72.19,1.44.19,2.17,0,1.9,0,3.8,0,5.69,0,.79-.06,1.58-.19,2.37-.09.52-.22,1.03-.42,1.52-.41.99-1.07,1.78-1.99,2.33-.17.1-.35.19-.52.28-.27.14-.28.16-.19.47.56,2.02,1.13,4.03,1.69,6.05.73,2.62,1.47,5.24,2.2,7.86.04.13.07.25.1.38.07.37-.14.7-.5.79-.14.03-.29.05-.44.05-.86,0-1.72,0-2.58,0-.15,0-.3-.02-.44-.05-.3-.06-.51-.24-.64-.5-.06-.12-.09-.25-.13-.37-.35-1.25-.71-2.51-1.06-3.76-.86-3.1-1.73-6.19-2.59-9.29-.04-.14-.09-.28-.13-.41Zm-1.78-10.46c0,1.76,0,3.53,0,5.29,0,.16,0,.33.01.49,0,.06.07.12.13.12.07,0,.13.01.2.01.69,0,1.39,0,2.08,0,.16,0,.33,0,.49-.03.7-.1,1.24-.43,1.56-1.08.08-.16.15-.33.2-.5.12-.4.19-.8.2-1.22,0-.26.01-.53.01-.79,0-1.5,0-3,0-4.5,0-.28,0-.56-.02-.84-.02-.4-.09-.79-.19-1.17-.06-.22-.15-.44-.27-.64-.25-.43-.61-.72-1.09-.88-.32-.1-.65-.12-.98-.13-.66,0-1.32,0-1.98,0-.07,0-.13,0-.2,0-.09,0-.16.07-.16.15,0,.16-.01.33-.01.49,0,1.73,0,3.46,0,5.19Z"/>
        <path class="cls-1" d="m143.74,13.75c.74,0,1.49,0,2.23,0,.18,0,.36,0,.54.02.38.04.64.25.74.62.04.14.07.29.09.44.13.95.26,1.9.39,2.84.11.85.22,1.7.33,2.55.08.6.17,1.21.25,1.81.08.6.16,1.21.24,1.82.08.6.17,1.21.25,1.81.08.59.16,1.18.23,1.77.08.62.17,1.24.25,1.86.08.6.16,1.21.24,1.81.08.62.17,1.24.25,1.86.08.59.16,1.18.24,1.77.09.64.17,1.27.26,1.91.08.59.16,1.18.24,1.77.09.64.17,1.27.26,1.91.08.57.15,1.14.23,1.72.09.65.18,1.31.27,1.96.08.57.15,1.14.23,1.72.09.65.18,1.31.27,1.96.02.15.03.3.04.44.02.44-.26.73-.72.79-.07,0-.13,0-.2,0-.91,0-1.82,0-2.73,0-.08,0-.17,0-.25-.01-.42-.06-.69-.31-.75-.73-.03-.2-.05-.39-.08-.59-.04-.33-.08-.66-.12-.98-.09-.77-.18-1.54-.28-2.31-.08-.67-.15-1.34-.23-2.02-.04-.34-.09-.69-.13-1.03,0-.06-.07-.12-.13-.13-.08,0-.16-.01-.25-.01-1.49,0-2.97,0-4.46,0-.08,0-.17,0-.25.02-.04,0-.08.05-.11.09-.02.02-.02.06-.03.09-.07.62-.15,1.24-.22,1.87-.05.41-.1.82-.15,1.23-.04.36-.09.72-.13,1.08-.1.87-.21,1.74-.31,2.6,0,.03,0,.07-.01.1-.07.4-.32.65-.72.72-.05,0-.1.01-.15.01-.99,0-1.98,0-2.97,0-.14,0-.26-.03-.38-.09-.25-.11-.4-.3-.41-.57,0-.2,0-.4.03-.59.09-.67.18-1.34.27-2.01.08-.6.17-1.21.25-1.81.08-.6.16-1.21.24-1.81.08-.6.17-1.21.25-1.81.08-.59.16-1.18.24-1.77.09-.64.17-1.27.26-1.91.08-.59.16-1.18.24-1.77.09-.64.17-1.27.26-1.91.08-.59.16-1.18.24-1.77.08-.6.16-1.21.24-1.81.08-.6.17-1.21.25-1.81.09-.65.18-1.31.27-1.96.08-.6.16-1.21.24-1.81.08-.6.17-1.21.25-1.81.08-.6.16-1.21.24-1.81.08-.62.17-1.24.25-1.86.08-.6.16-1.21.24-1.81.08-.57.15-1.14.23-1.72.02-.11.04-.23.07-.34.09-.32.3-.51.63-.55.18-.03.36-.03.54-.03.78,0,1.55,0,2.33,0Zm.01,5.9c-.07.03-.09.1-.09.16-.03.24-.06.49-.09.74-.12.97-.24,1.93-.35,2.9-.12.98-.22,1.97-.34,2.95-.04.33-.08.65-.12.98-.08.69-.17,1.37-.25,2.06-.08.69-.15,1.38-.23,2.06-.08.69-.17,1.37-.25,2.06-.1.82-.2,1.64-.29,2.46-.02.18-.02.36-.02.54,0,.02.04.06.06.06.11.02.23.03.34.03,1.02,0,2.05,0,3.07,0,.13,0,.26,0,.4,0,.15,0,.2-.06.18-.22-.02-.13-.04-.26-.05-.39-.02-.18-.03-.36-.05-.54-.08-.69-.17-1.37-.25-2.06-.08-.69-.15-1.38-.23-2.06-.11-.97-.24-1.93-.35-2.9-.12-.98-.22-1.97-.34-2.95-.1-.84-.2-1.67-.3-2.51-.04-.33-.08-.66-.12-.98-.06-.47-.11-.95-.17-1.42-.04-.31-.08-.62-.12-.93,0-.01-.02-.03-.02-.04Z"/>
        <path class="cls-1" d="m169.74,28.57c0-5.27,0-10.53,0-15.8,0-.25,0-.5,0-.74,0-.15.02-.3.05-.44.06-.24.21-.41.44-.49.12-.05.25-.08.39-.08.13,0,.26,0,.4,0,3.36,0,6.71,0,10.07,0,.12,0,.23,0,.35,0,.15,0,.3.04.43.09.19.08.33.22.4.41.06.17.09.35.08.53,0,.48,0,.96,0,1.44,0,.33,0,.66,0,.99,0,.17-.02.33-.08.49-.1.27-.29.44-.58.48-.2.03-.4.03-.59.03-2,0-4,0-6,0-.17,0-.33,0-.5.01-.08,0-.16.08-.16.16,0,.13,0,.26,0,.4,0,3.2,0,6.4,0,9.61,0,.59-.05.57.56.57,1.92,0,3.83,0,5.75,0,.2,0,.4.01.59.03.3.02.61.29.65.65.01.13.02.26.02.4,0,.78,0,1.55,0,2.33,0,.13,0,.26-.02.39-.05.31-.22.51-.52.6-.13.04-.25.07-.39.07-.13,0-.26,0-.4,0-1.87,0-3.74,0-5.6,0-.16,0-.33,0-.49.01-.06,0-.13.06-.13.12,0,.16-.01.33-.01.49,0,2.11,0,4.23,0,6.34,0,1.16,0,2.31,0,3.47,0,.15,0,.3.01.45,0,.08.07.15.16.15.17,0,.33,0,.5,0,1.97,0,3.93,0,5.9,0,.15,0,.3,0,.45,0,.68.05.84.41.89.86,0,.03,0,.07,0,.1,0,.84,0,1.68,0,2.53,0,.15-.02.3-.07.44-.09.28-.28.44-.56.5-.11.02-.23.03-.34.04-.12,0-.23,0-.35,0-3.32,0-6.64,0-9.97,0-.21,0-.43,0-.64-.03-.34-.04-.57-.26-.64-.6-.02-.11-.03-.23-.04-.34,0-.16,0-.33,0-.5,0-5.38,0-10.76,0-16.14Z"/>
        <path class="cls-1" d="m166.54,41.09c-.43,0-.86,0-1.29,0-.12,0-.23,0-.35,0-.37-.03-.66-.2-.83-.54-.08-.16-.15-.33-.21-.5-.75-1.95-1.5-3.91-2.25-5.86-1.29-3.36-2.58-6.71-3.87-10.07-.07-.17-.14-.34-.14-.52-.01-.22.01-.43.08-.63.18-.53.35-1.06.53-1.6,1.48-4.42,2.96-8.85,4.45-13.27.14-.42.28-.85.42-1.27.04-.12.08-.25.14-.37.15-.3.41-.47.74-.51.13-.01.26-.01.4-.01.86,0,1.72,0,2.58,0,.15,0,.3,0,.45.02.4.07.64.35.6.77,0,.07-.02.13-.04.19-.04.13-.08.25-.12.38-1.54,4.84-3.08,9.68-4.63,14.51-.14.42-.27.85-.41,1.27-.07.2-.06.38.01.58.36.97.71,1.95,1.07,2.93,1.6,4.38,3.21,8.76,4.81,13.15.06.15.11.31.16.47.12.37-.06.8-.61.88-.11.02-.23.01-.35.01-.45,0-.89,0-1.34,0Z"/>
        <path class="cls-1" d="m152.55,23.52c0-5.4,0-10.79,0-16.19,0-.15,0-.3,0-.45,0-.08,0-.17.02-.25.08-.42.35-.66.78-.69.13,0,.26,0,.4,0,.84,0,1.69,0,2.53,0,.13,0,.26,0,.4,0,.4.03.67.26.76.66.02.08.02.16.03.25,0,.15,0,.3,0,.45,0,5.12,0,10.23,0,15.35,0,5.68,0,11.35,0,17.03,0,.17,0,.33,0,.49,0,.11-.02.23-.05.34-.09.34-.34.51-.68.57-.1.02-.2.01-.3.01-.96,0-1.92,0-2.88,0-.18,0-.36,0-.53-.09-.21-.1-.35-.24-.41-.46-.03-.11-.05-.22-.06-.34-.01-.15,0-.3,0-.45,0-5.41,0-10.83,0-16.24Z"/>
        <path class="cls-1" d="m81.24,11.09c0-1.98,0-3.96,0-5.94,0-.6-.04-.57.56-.57.78,0,1.55,0,2.33,0,.4,0,.79.06,1.17.18.59.19,1.04.56,1.35,1.1.14.24.24.5.32.78.11.42.19.84.2,1.27,0,.28.01.56.01.84,0,1.57,0,3.13,0,4.7,0,.3,0,.59-.02.89-.03.49-.11.98-.28,1.45-.05.14-.11.28-.18.41-.38.75-1,1.17-1.81,1.31-.31.05-.62.07-.94.08-.78.01-1.55,0-2.33,0-.07,0-.13,0-.2,0-.08,0-.16-.08-.17-.15,0-.05,0-.1,0-.15,0-.13,0-.26,0-.4,0-1.93,0-3.86,0-5.79Z"/>
        <path class="cls-1" d="m90.45,34.46c.02.44-.36.87-.89.86-.49-.02-.83-.37-.84-.86-.01-.49.38-.87.87-.88.4-.01.89.35.86.88Z"/>
        <path class="cls-1" d="m24.79,21.32c-.03-.48.37-.88.86-.9.47-.01.89.41.88.88,0,.46-.38.85-.84.87-.44.02-.91-.35-.9-.85Z"/>
        <path class="cls-1" d="m57.51,14.76c-.5.02-.88-.44-.87-.88.02-.46.39-.84.86-.84.56,0,.89.44.89.86,0,.46-.39.89-.88.86Z"/>
      </g>
    </g>
  </g>
</svg>