<svg width="196" height="34" viewBox="0 0 196 34" fill="none" xmlns="http://www.w3.org/2000/svg">
<path d="M22.4976 0.00323817H30.3208V33.9984H15.1086L7.81991 0.296244V33.9951H0V0H15.2576L22.4976 33.7021V0.00323817ZM55.3436 0.00323817H39.9888L32.8459 33.9984H40.5735L41.9843 27.2463H53.3562L54.7621 33.9984H62.4897L55.3436 0.00323817ZM43.293 21.179L47.6662 0.296244L52.0394 21.179H43.293ZM80.5121 20.3534L92.2225 0.00323817H83.5231L73.6591 17.1951V0.00323817H65.0099V33.9984H73.6607V20.9329H79.0058L83.5247 33.9951H92.2711L87.5594 20.3501H80.5153L80.5121 20.3534ZM113.405 13.263H107.477L103.59 19.5278V0.00323817H94.9404V33.9984H103.591V19.9147H113.407V33.9984H122.057V0.00323817H113.405V13.2581V13.263ZM126.231 34H147.757V27.6866H134.882V19.769H145.182V13.4556H138.527L134.882 19.2833V6.31662H147.757V0.00323817H126.233V33.9984L126.231 34ZM151.155 34H172.676V27.6866H159.801V19.769H170.101V13.4556H163.444L159.8 19.2833V6.31662H172.676V0.00323817H151.15V33.9984L151.155 34ZM184.73 27.6866V0.00323817H176.078V33.9984H196V27.685H184.725L184.73 27.6866Z" fill="#01607F"/>
</svg>
