<svg width="216" height="216" viewBox="0 0 216 216" fill="none" xmlns="http://www.w3.org/2000/svg">
<rect width="216" height="216" fill="white"/>
<rect x="72.0024" y="72.0024" width="144" height="144" fill="#D8DDEE"/>
<rect width="144" height="144" fill="#F2F2F2"/>
<path d="M53.1035 124.769L75.8848 122.554C77.2559 130.2 80.0244 135.816 84.1904 139.402C88.4092 142.988 94.0781 144.781 101.197 144.781C108.738 144.781 114.407 143.199 118.204 140.035C122.054 136.818 123.979 133.074 123.979 128.803C123.979 126.061 123.161 123.74 121.526 121.842C119.944 119.891 117.149 118.203 113.142 116.779C110.399 115.83 104.15 114.143 94.3945 111.717C81.8438 108.605 73.0371 104.782 67.9746 100.247C60.8555 93.8662 57.2959 86.0879 57.2959 76.9121C57.2959 71.0059 58.957 65.4951 62.2793 60.3799C65.6543 55.2119 70.4795 51.2832 76.7549 48.5938C83.083 45.9043 90.7031 44.5596 99.6152 44.5596C114.17 44.5596 125.112 47.75 132.442 54.1309C139.825 60.5117 143.701 69.0283 144.07 79.6807L120.656 80.709C119.654 74.75 117.492 70.4785 114.17 67.8945C110.9 65.2578 105.97 63.9395 99.3779 63.9395C92.5752 63.9395 87.249 65.3369 83.3994 68.1318C80.9209 69.9248 79.6816 72.3242 79.6816 75.3301C79.6816 78.0723 80.8418 80.4189 83.1621 82.3701C86.1152 84.8486 93.2871 87.4326 104.678 90.1221C116.068 92.8115 124.479 95.6064 129.911 98.5068C135.396 101.354 139.667 105.283 142.726 110.293C145.837 115.25 147.393 121.394 147.393 128.724C147.393 135.368 145.547 141.591 141.855 147.392C138.164 153.192 132.943 157.517 126.193 160.364C119.443 163.159 111.032 164.557 100.96 164.557C86.2998 164.557 75.041 161.182 67.1836 154.432C59.3262 147.629 54.6328 137.741 53.1035 124.769Z" fill="#080705"/>
</svg>
