<svg width="200" height="200" viewBox="0 0 200 200" fill="none" xmlns="http://www.w3.org/2000/svg">
<path d="M0 74.4556H7.5218L12.8604 114.948H13.177L18.5379 74.4556H26.0374L17.2213 125.569H8.79951L0 74.4556Z" fill="white"/>
<path d="M30.7202 74.4556H38.0754V125.564H30.7202V74.4556Z" fill="white"/>
<path d="M46.3643 74.4556H55.9637L60.619 94.2378C61.1134 96.4321 61.4968 98.5209 61.7856 100.51C62.0745 102.498 62.3411 104.365 62.6078 106.12H62.8356C63.0967 104.365 63.3911 102.493 63.6577 100.51C63.9244 98.5265 64.3299 96.4321 64.8188 94.2378L69.6185 74.4556H79.018V125.564H72.1462V108.665C72.1462 106.072 72.1702 103.578 72.2184 101.182C72.2665 98.7857 72.3276 96.5784 72.4017 94.56C72.4795 92.5564 72.5647 90.7861 72.6572 89.2492C72.7498 87.7122 72.835 86.4938 72.9128 85.5938H72.3573L65.0466 119.003H60.3913L53.0083 85.6161H52.4528C52.5306 86.516 52.6158 87.7345 52.7083 89.2714C52.8009 90.8084 52.8917 92.5712 52.9806 94.56C53.0583 96.5636 53.1194 98.7635 53.1639 101.16C53.2083 103.556 53.2324 106.05 53.2361 108.643V125.569H46.3643V74.4556Z" fill="white"/>
<path d="M96.6999 104.437C96.6914 103.286 96.8793 102.142 97.2555 101.054C97.611 100.037 98.0669 99.0586 98.6165 98.1322C99.1214 97.2828 99.6877 96.4714 100.311 95.7046L101.866 93.8102L102.422 93.1991L101.739 91.9103C101.394 91.2493 101.061 90.5548 100.739 89.8216C100.417 89.0961 100.133 88.3544 99.8886 87.5995C99.6404 86.8316 99.4419 86.0485 99.2942 85.2551C99.1508 84.4707 99.0783 83.6749 99.0776 82.8775C99.0592 81.738 99.2629 80.6059 99.6775 79.5443C100.046 78.6077 100.597 77.7541 101.3 77.0334C101.984 76.3425 102.802 75.7998 103.705 75.439C104.641 75.0648 105.641 74.8761 106.649 74.8835C107.798 74.8416 108.941 75.06 109.994 75.5223C110.811 75.9036 111.533 76.4637 112.105 77.1611C112.618 77.7799 112.996 78.4988 113.216 79.2721C113.412 79.9551 113.517 80.6613 113.527 81.372C113.537 82.6131 113.331 83.8465 112.916 85.0163C112.533 86.0833 112.044 87.1089 111.455 88.0772C110.924 88.9438 110.33 89.7701 109.677 90.5493C109.066 91.277 108.566 91.8881 108.138 92.3992L107.694 92.9547L112.866 102.86C113.105 102.064 113.291 101.253 113.421 100.432C113.546 99.5711 113.61 98.7022 113.61 97.8322C113.61 97.3656 113.61 96.9323 113.61 96.5323C113.61 96.1323 113.577 95.7434 113.549 95.3601H117.738C117.808 95.7555 117.858 96.1541 117.888 96.5545C117.921 96.9823 117.938 97.41 117.938 97.8322C117.94 99.4942 117.687 101.147 117.188 102.732C116.706 104.295 116.023 105.789 115.154 107.176L118.282 113.131H112.91L111.799 111.02C110.877 111.769 109.852 112.381 108.755 112.837C107.7 113.256 106.573 113.464 105.438 113.448C104.236 113.462 103.041 113.259 101.911 112.848C100.872 112.469 99.9257 111.874 99.1331 111.104C98.3342 110.308 97.7197 109.347 97.3332 108.287C96.8881 107.054 96.6734 105.749 96.6999 104.437V104.437ZM101.85 103.699C101.85 104.38 101.942 105.058 102.122 105.715C102.29 106.359 102.575 106.967 102.961 107.509C103.353 108.042 103.857 108.482 104.438 108.798C105.054 109.111 105.732 109.28 106.422 109.292C107.112 109.305 107.795 109.161 108.422 108.87C109.027 108.576 109.575 108.176 110.038 107.687L104.333 96.8767C103.555 97.8887 102.935 99.0125 102.494 100.21C102.075 101.326 101.857 102.507 101.85 103.699V103.699ZM106.177 88.9549C106.444 88.6327 106.733 88.2494 107.088 87.8161C107.45 87.3492 107.775 86.8551 108.06 86.3384C108.383 85.7535 108.645 85.1374 108.844 84.4996C109.064 83.7798 109.173 83.0303 109.166 82.2775C109.175 81.8042 109.103 81.3328 108.955 80.8832C108.838 80.5261 108.649 80.197 108.399 79.9165C108.175 79.6747 107.9 79.485 107.594 79.361C107.298 79.2381 106.981 79.1758 106.66 79.1777C106.332 79.1797 106.007 79.2399 105.699 79.3555C105.355 79.4846 105.043 79.6897 104.788 79.9554C104.491 80.2779 104.258 80.6553 104.105 81.0665C103.912 81.6328 103.821 82.2293 103.838 82.8275C103.837 83.298 103.872 83.768 103.944 84.233C104.029 84.7256 104.148 85.2119 104.3 85.6885C104.473 86.2569 104.682 86.8135 104.927 87.355C105.188 87.9383 105.483 88.5994 105.861 89.3271L106.177 88.9549Z" fill="white"/>
<path d="M146.892 126.02C146.07 126.016 145.249 125.951 144.436 125.825C143.52 125.687 142.63 125.41 141.798 125.003C140.866 124.548 140.013 123.948 139.27 123.225C138.389 122.344 137.669 121.316 137.142 120.187C136.455 118.704 135.958 117.139 135.665 115.531C135.267 113.355 135.081 111.144 135.109 108.932V90.8271C135.07 88.6141 135.256 86.4028 135.665 84.2275C135.966 82.6329 136.47 81.0834 137.165 79.6166C137.696 78.4999 138.429 77.4905 139.326 76.639C140.074 75.9523 140.927 75.3897 141.853 74.9724C142.682 74.5871 143.561 74.3215 144.464 74.1836C145.259 74.0708 146.061 74.0114 146.864 74.0058C148.521 73.9542 150.17 74.2455 151.708 74.8613C152.926 75.369 153.999 76.1706 154.83 77.1945C155.627 78.2137 156.195 79.3921 156.497 80.6499C156.832 82.0208 156.998 83.4274 156.991 84.8386C156.997 85.8536 156.945 86.8681 156.836 87.8773C156.728 88.8069 156.573 89.829 156.369 90.9438H150.414V88.3439C150.414 85.5293 150.121 83.4238 149.536 82.0276C148.947 80.6277 148.086 79.9333 146.953 79.9333C146.331 79.9189 145.716 80.0622 145.164 80.3499C144.6 80.6847 144.152 81.1851 143.881 81.7832C143.484 82.6207 143.22 83.5146 143.098 84.433C142.902 85.7906 142.813 87.1613 142.831 88.5328V111.865C142.814 113.196 142.885 114.526 143.042 115.848C143.132 116.728 143.367 117.588 143.736 118.392C144.001 118.967 144.44 119.444 144.992 119.753C145.581 120.034 146.228 120.171 146.881 120.153C147.358 120.155 147.828 120.036 148.247 119.809C148.729 119.557 149.138 119.186 149.436 118.731C149.801 118.16 150.069 117.534 150.231 116.876C150.443 116.011 150.542 115.122 150.525 114.231V109.232H157.214V113.959C157.214 118.07 156.323 121.103 154.541 123.059C152.76 125.014 150.21 126.001 146.892 126.02Z" fill="white"/>
<path d="M173.751 126.019C172.905 126.016 172.06 125.951 171.224 125.825C170.289 125.69 169.38 125.412 168.529 125.003C167.585 124.547 166.718 123.947 165.957 123.225C165.058 122.347 164.319 121.319 163.774 120.186C163.065 118.708 162.554 117.143 162.252 115.531C161.848 113.355 161.662 111.144 161.696 108.931V90.8269C161.659 88.6132 161.851 86.4015 162.269 84.2273C162.58 82.6288 163.101 81.0784 163.819 79.6164C164.37 78.4956 165.123 77.4861 166.041 76.6388C166.806 75.9469 167.678 75.3841 168.624 74.9722C169.471 74.5889 170.366 74.3234 171.285 74.1834C172.899 73.9538 174.537 73.9538 176.151 74.1834C177.062 74.2968 177.952 74.5381 178.796 74.9C179.736 75.313 180.602 75.8758 181.362 76.5666C182.283 77.4068 183.037 78.4132 183.584 79.5331C184.304 81.0034 184.823 82.5635 185.128 84.1717C185.549 86.3682 185.744 88.6019 185.712 90.838V108.931C185.743 111.126 185.544 113.317 185.117 115.47C184.791 117.077 184.265 118.637 183.551 120.114C183.001 121.258 182.248 122.294 181.329 123.17C180.559 123.889 179.689 124.494 178.746 124.964C177.91 125.374 177.019 125.661 176.101 125.814C175.324 125.943 174.539 126.012 173.751 126.019ZM173.751 120.186C174.402 120.199 175.047 120.066 175.64 119.798C176.216 119.5 176.683 119.027 176.973 118.448C177.373 117.653 177.641 116.8 177.768 115.92C177.965 114.607 178.054 113.281 178.034 111.953V88.6992C178.052 87.3278 177.963 85.957 177.768 84.5995C177.639 83.6803 177.369 82.7866 176.968 81.9496C176.68 81.3497 176.215 80.8531 175.635 80.5275C175.048 80.2385 174.4 80.0956 173.746 80.1108C173.079 80.0952 172.419 80.2379 171.818 80.5275C171.228 80.8508 170.751 81.3471 170.452 81.9496C170.043 82.7842 169.771 83.6789 169.646 84.5995C169.446 85.9565 169.355 87.3276 169.374 88.6992V111.953C169.353 113.281 169.444 114.608 169.646 115.92C169.773 116.802 170.047 117.656 170.457 118.448C170.76 119.03 171.238 119.502 171.824 119.798C172.43 120.067 173.088 120.2 173.751 120.186V120.186Z" fill="white"/>
<path d="M191.1 120.214C191.1 118.096 191.498 116.579 192.294 115.665C192.698 115.206 193.199 114.843 193.762 114.605C194.325 114.366 194.934 114.258 195.544 114.287C196.169 114.255 196.793 114.371 197.365 114.626C197.936 114.881 198.439 115.267 198.833 115.754C199.611 116.731 200 118.213 200 120.198C200 122.05 199.607 123.472 198.822 124.464C198.432 124.962 197.928 125.358 197.353 125.621C196.778 125.884 196.148 126.006 195.517 125.975C194.904 125.999 194.294 125.879 193.736 125.624C193.179 125.37 192.689 124.987 192.306 124.509C191.502 123.542 191.1 122.111 191.1 120.214Z" fill="white"/>
<path d="M121.715 120.059H94.5391V125.314H121.715V120.059Z" fill="white"/>
<g style="mix-blend-mode:multiply" opacity="0.2">
<g style="mix-blend-mode:multiply">
<path d="M0 74.4556H7.5218L12.8604 114.948H13.177L18.5379 74.4556H26.0374L17.2213 125.569H8.79951L0 74.4556Z" fill="white"/>
</g>
<g style="mix-blend-mode:multiply">
<path d="M30.7202 74.4556H38.0754V125.564H30.7202V74.4556Z" fill="white"/>
</g>
<g style="mix-blend-mode:multiply">
<path d="M46.3643 74.4556H55.9637L60.619 94.2378C61.1134 96.4321 61.4968 98.5209 61.7856 100.51C62.0745 102.498 62.3411 104.365 62.6078 106.12H62.8356C63.0967 104.365 63.3911 102.493 63.6577 100.51C63.9244 98.5265 64.3299 96.4321 64.8188 94.2378L69.6185 74.4556H79.018V125.564H72.1462V108.665C72.1462 106.072 72.1702 103.578 72.2184 101.182C72.2665 98.7857 72.3276 96.5784 72.4017 94.56C72.4795 92.5564 72.5647 90.7861 72.6572 89.2492C72.7498 87.7122 72.835 86.4938 72.9128 85.5938H72.3573L65.0466 119.003H60.3913L53.0083 85.6161H52.4528C52.5306 86.516 52.6158 87.7345 52.7083 89.2714C52.8009 90.8084 52.8917 92.5712 52.9806 94.56C53.0583 96.5636 53.1194 98.7635 53.1639 101.16C53.2083 103.556 53.2324 106.05 53.2361 108.643V125.569H46.3643V74.4556Z" fill="white"/>
</g>
<g style="mix-blend-mode:multiply">
<path d="M96.6999 104.437C96.6914 103.286 96.8793 102.142 97.2555 101.054C97.611 100.037 98.0669 99.0586 98.6165 98.1322C99.1214 97.2828 99.6877 96.4714 100.311 95.7046L101.866 93.8102L102.422 93.1991L101.739 91.9103C101.394 91.2493 101.061 90.5548 100.739 89.8216C100.417 89.0961 100.133 88.3544 99.8886 87.5995C99.6404 86.8316 99.4419 86.0485 99.2942 85.2551C99.1508 84.4707 99.0783 83.6749 99.0776 82.8775C99.0592 81.738 99.2629 80.6059 99.6775 79.5443C100.046 78.6077 100.597 77.7541 101.3 77.0334C101.984 76.3425 102.802 75.7998 103.705 75.439C104.641 75.0648 105.641 74.8761 106.649 74.8835C107.798 74.8416 108.941 75.06 109.994 75.5223C110.811 75.9036 111.533 76.4637 112.105 77.1611C112.618 77.7799 112.996 78.4988 113.216 79.2721C113.412 79.9551 113.517 80.6613 113.527 81.372C113.537 82.6131 113.331 83.8465 112.916 85.0163C112.533 86.0833 112.044 87.1089 111.455 88.0772C110.924 88.9438 110.33 89.7701 109.677 90.5493C109.066 91.277 108.566 91.8881 108.138 92.3992L107.694 92.9547L112.866 102.86C113.105 102.064 113.291 101.253 113.421 100.432C113.546 99.5711 113.61 98.7022 113.61 97.8322C113.61 97.3656 113.61 96.9323 113.61 96.5323C113.61 96.1323 113.577 95.7434 113.549 95.3601H117.738C117.808 95.7555 117.858 96.1541 117.888 96.5545C117.921 96.9823 117.938 97.41 117.938 97.8322C117.94 99.4942 117.687 101.147 117.188 102.732C116.706 104.295 116.023 105.789 115.154 107.176L118.282 113.131H112.91L111.799 111.02C110.877 111.769 109.852 112.381 108.755 112.837C107.7 113.256 106.573 113.464 105.438 113.448C104.236 113.462 103.041 113.259 101.911 112.848C100.872 112.469 99.9257 111.874 99.1331 111.104C98.3342 110.308 97.7197 109.347 97.3332 108.287C96.8881 107.054 96.6734 105.749 96.6999 104.437V104.437ZM101.85 103.699C101.85 104.38 101.942 105.058 102.122 105.715C102.29 106.359 102.575 106.967 102.961 107.509C103.353 108.042 103.857 108.482 104.438 108.798C105.054 109.111 105.732 109.28 106.422 109.292C107.112 109.305 107.795 109.161 108.422 108.87C109.027 108.576 109.575 108.176 110.038 107.687L104.333 96.8767C103.555 97.8887 102.935 99.0125 102.494 100.21C102.075 101.326 101.857 102.507 101.85 103.699V103.699ZM106.177 88.9549C106.444 88.6327 106.733 88.2494 107.088 87.8161C107.45 87.3492 107.775 86.8551 108.06 86.3384C108.383 85.7535 108.645 85.1374 108.844 84.4996C109.064 83.7798 109.173 83.0303 109.166 82.2775C109.175 81.8042 109.103 81.3328 108.955 80.8832C108.838 80.5261 108.649 80.197 108.399 79.9165C108.175 79.6747 107.9 79.485 107.594 79.361C107.298 79.2381 106.981 79.1758 106.66 79.1777C106.332 79.1797 106.007 79.2399 105.699 79.3555C105.355 79.4846 105.043 79.6897 104.788 79.9554C104.491 80.2779 104.258 80.6553 104.105 81.0665C103.912 81.6328 103.821 82.2293 103.838 82.8275C103.837 83.298 103.872 83.768 103.944 84.233C104.029 84.7256 104.148 85.2119 104.3 85.6885C104.473 86.2569 104.682 86.8135 104.927 87.355C105.188 87.9383 105.483 88.5994 105.861 89.3271L106.177 88.9549Z" fill="white"/>
</g>
<g style="mix-blend-mode:multiply">
<path d="M146.892 126.02C146.07 126.016 145.249 125.951 144.436 125.825C143.52 125.687 142.63 125.41 141.798 125.003C140.866 124.548 140.013 123.948 139.27 123.225C138.389 122.344 137.669 121.316 137.142 120.187C136.455 118.704 135.958 117.139 135.665 115.531C135.267 113.355 135.081 111.144 135.109 108.932V90.8271C135.07 88.6141 135.256 86.4028 135.665 84.2275C135.966 82.6329 136.47 81.0834 137.165 79.6166C137.696 78.4999 138.429 77.4905 139.326 76.639C140.074 75.9523 140.927 75.3897 141.853 74.9724C142.682 74.5871 143.561 74.3215 144.464 74.1836C145.259 74.0708 146.061 74.0114 146.864 74.0058C148.521 73.9542 150.17 74.2455 151.708 74.8613C152.926 75.369 153.999 76.1706 154.83 77.1945C155.627 78.2137 156.195 79.3921 156.497 80.6499C156.832 82.0208 156.998 83.4274 156.991 84.8386C156.997 85.8536 156.945 86.8681 156.836 87.8773C156.728 88.8069 156.573 89.829 156.369 90.9438H150.414V88.3439C150.414 85.5293 150.121 83.4238 149.536 82.0276C148.947 80.6277 148.086 79.9333 146.953 79.9333C146.331 79.9189 145.716 80.0622 145.164 80.3499C144.6 80.6847 144.152 81.1851 143.881 81.7832C143.484 82.6207 143.22 83.5146 143.098 84.433C142.902 85.7906 142.813 87.1613 142.831 88.5328V111.865C142.814 113.196 142.885 114.526 143.042 115.848C143.132 116.728 143.367 117.588 143.736 118.392C144.001 118.967 144.44 119.444 144.992 119.753C145.581 120.034 146.228 120.171 146.881 120.153C147.358 120.155 147.828 120.036 148.247 119.809C148.729 119.557 149.138 119.186 149.436 118.731C149.801 118.16 150.069 117.534 150.231 116.876C150.443 116.011 150.542 115.122 150.525 114.231V109.232H157.214V113.959C157.214 118.07 156.323 121.103 154.541 123.059C152.76 125.014 150.21 126.001 146.892 126.02Z" fill="white"/>
</g>
<g style="mix-blend-mode:multiply">
<path d="M173.751 126.019C172.905 126.016 172.06 125.951 171.224 125.825C170.289 125.69 169.38 125.412 168.529 125.003C167.585 124.547 166.718 123.947 165.957 123.225C165.058 122.347 164.319 121.319 163.774 120.186C163.065 118.708 162.554 117.143 162.252 115.531C161.848 113.355 161.662 111.144 161.696 108.931V90.8269C161.659 88.6132 161.851 86.4015 162.269 84.2273C162.58 82.6288 163.101 81.0784 163.819 79.6164C164.37 78.4956 165.123 77.4861 166.041 76.6388C166.806 75.9469 167.678 75.3841 168.624 74.9722C169.471 74.5889 170.366 74.3234 171.285 74.1834C172.899 73.9538 174.537 73.9538 176.151 74.1834C177.062 74.2968 177.952 74.5381 178.796 74.9C179.736 75.313 180.602 75.8758 181.362 76.5666C182.283 77.4068 183.037 78.4132 183.584 79.5331C184.304 81.0034 184.823 82.5635 185.128 84.1717C185.549 86.3682 185.744 88.6019 185.712 90.838V108.931C185.743 111.126 185.544 113.317 185.117 115.47C184.791 117.077 184.265 118.637 183.551 120.114C183.001 121.258 182.248 122.294 181.329 123.17C180.559 123.889 179.689 124.494 178.746 124.964C177.91 125.374 177.019 125.661 176.101 125.814C175.324 125.943 174.539 126.012 173.751 126.019ZM173.751 120.186C174.402 120.199 175.047 120.066 175.64 119.798C176.216 119.5 176.683 119.027 176.973 118.448C177.373 117.653 177.641 116.8 177.768 115.92C177.965 114.607 178.054 113.281 178.034 111.953V88.6992C178.052 87.3278 177.963 85.957 177.768 84.5995C177.639 83.6803 177.369 82.7866 176.968 81.9496C176.68 81.3497 176.215 80.8531 175.635 80.5275C175.048 80.2385 174.4 80.0956 173.746 80.1108C173.079 80.0952 172.419 80.2379 171.818 80.5275C171.228 80.8508 170.751 81.3471 170.452 81.9496C170.043 82.7842 169.771 83.6789 169.646 84.5995C169.446 85.9565 169.355 87.3276 169.374 88.6992V111.953C169.353 113.281 169.444 114.608 169.646 115.92C169.773 116.802 170.047 117.656 170.457 118.448C170.76 119.03 171.238 119.502 171.824 119.798C172.43 120.067 173.088 120.2 173.751 120.186V120.186Z" fill="white"/>
</g>
<g style="mix-blend-mode:multiply">
<path d="M191.1 120.214C191.1 118.096 191.498 116.579 192.294 115.665C192.698 115.206 193.199 114.843 193.762 114.605C194.325 114.366 194.934 114.258 195.544 114.287C196.169 114.255 196.793 114.371 197.365 114.626C197.936 114.881 198.439 115.267 198.833 115.754C199.611 116.731 200 118.213 200 120.198C200 122.05 199.607 123.472 198.822 124.464C198.432 124.962 197.928 125.358 197.353 125.621C196.778 125.884 196.148 126.006 195.517 125.975C194.904 125.999 194.294 125.879 193.736 125.624C193.179 125.37 192.689 124.987 192.306 124.509C191.502 123.542 191.1 122.111 191.1 120.214Z" fill="white"/>
</g>
<g style="mix-blend-mode:multiply">
<path d="M121.715 120.059H94.5391V125.314H121.715V120.059Z" fill="white"/>
</g>
</g>
</svg>
