<svg width="301" height="60" viewBox="0 0 301 60" fill="none" xmlns="http://www.w3.org/2000/svg">
<path d="M0 3.57143C0 1.59898 1.59898 0 3.57143 0H29.7619V29.7619H0V3.57143Z" fill="#BBD0FF"/>
<path d="M29.7617 0H55.9522C57.9246 0 59.5236 1.59898 59.5236 3.57143V29.7619H29.7617V0Z" fill="#E7C6FF"/>
<path d="M29.7617 29.7617H59.5236V55.9522C59.5236 57.9246 57.9246 59.5236 55.9522 59.5236H29.7617V29.7617Z" fill="#B8C0FF"/>
<path d="M0 29.7617H29.7619V59.5236H3.57143C1.59898 59.5236 0 57.9246 0 55.9522V29.7617Z" fill="#C8B6FF"/>
<path d="M85.5011 45.6777H78.1452L89.3535 13.2102H98.1996L109.392 45.6777H102.036L93.9033 20.6295H93.6497L85.5011 45.6777ZM85.0414 32.9158H102.417V38.2742H85.0414V32.9158ZM119.927 31.6V45.6777H113.173V21.3271H119.609V25.6233H119.895C120.434 24.2071 121.337 23.0868 122.606 22.2624C123.874 21.4275 125.412 21.01 127.219 21.01C128.91 21.01 130.384 21.3799 131.642 22.1197C132.9 22.8596 133.877 23.9165 134.575 25.2904C135.273 26.6538 135.621 28.2814 135.621 30.1732V45.6777H128.868V31.3781C128.878 29.8879 128.498 28.7253 127.726 27.8903C126.955 27.0448 125.893 26.6221 124.54 26.6221C123.631 26.6221 122.828 26.8176 122.13 27.2087C121.443 27.5997 120.904 28.1704 120.513 28.9208C120.133 29.6606 119.937 30.5537 119.927 31.6ZM151.946 46.1533C149.452 46.1533 147.306 45.6249 145.51 44.568C143.724 43.5005 142.35 42.0209 141.388 40.1291C140.437 38.2373 139.961 36.0601 139.961 33.5975C139.961 31.1033 140.442 28.9155 141.404 27.0343C142.376 25.1424 143.755 23.6681 145.541 22.6112C147.328 21.5437 149.452 21.01 151.914 21.01C154.039 21.01 155.899 21.3958 157.495 22.1673C159.091 22.9388 160.354 24.0221 161.284 25.4172C162.214 26.8123 162.726 28.4505 162.822 30.3318H156.449C156.269 29.1163 155.793 28.1387 155.022 27.3989C154.261 26.6485 153.262 26.2733 152.025 26.2733C150.979 26.2733 150.065 26.5587 149.283 27.1294C148.511 27.6895 147.909 28.5086 147.476 29.5866C147.042 30.6647 146.826 31.9699 146.826 33.5024C146.826 35.056 147.037 36.3771 147.46 37.4657C147.893 38.5543 148.501 39.384 149.283 39.9547C150.065 40.5254 150.979 40.8108 152.025 40.8108C152.797 40.8108 153.489 40.6522 154.102 40.3352C154.726 40.0181 155.238 39.5584 155.64 38.9559C156.052 38.3429 156.322 37.6084 156.449 36.7523H162.822C162.716 38.6125 162.209 40.2506 161.3 41.6669C160.401 43.0725 159.159 44.1717 157.574 44.9643C155.989 45.757 154.113 46.1533 151.946 46.1533ZM173.899 31.6V45.6777H167.146V13.2102H173.709V25.6233H173.994C174.544 24.186 175.432 23.0604 176.658 22.2466C177.883 21.4222 179.421 21.01 181.271 21.01C182.962 21.01 184.436 21.3799 185.694 22.1197C186.962 22.849 187.945 23.9006 188.643 25.2746C189.351 26.6379 189.699 28.2708 189.689 30.1732V45.6777H182.935V31.3781C182.946 29.8773 182.566 28.7094 181.794 27.8745C181.033 27.0396 179.966 26.6221 178.592 26.6221C177.672 26.6221 176.858 26.8176 176.15 27.2087C175.453 27.5997 174.903 28.1704 174.501 28.9208C174.11 29.6606 173.91 30.5537 173.899 31.6ZM206.006 46.1533C203.543 46.1533 201.414 45.6302 199.617 44.5839C197.831 43.527 196.452 42.0579 195.479 40.1766C194.507 38.2848 194.021 36.0918 194.021 33.5975C194.021 31.0821 194.507 28.8838 195.479 27.0026C196.452 25.1107 197.831 23.6417 199.617 22.5953C201.414 21.5385 203.543 21.01 206.006 21.01C208.468 21.01 210.593 21.5385 212.379 22.5953C214.176 23.6417 215.56 25.1107 216.532 27.0026C217.505 28.8838 217.991 31.0821 217.991 33.5975C217.991 36.0918 217.505 38.2848 216.532 40.1766C215.56 42.0579 214.176 43.527 212.379 44.5839C210.593 45.6302 208.468 46.1533 206.006 46.1533ZM206.038 40.9217C207.158 40.9217 208.093 40.6047 208.844 39.9706C209.594 39.3259 210.159 38.4486 210.54 37.3389C210.931 36.2292 211.127 34.9662 211.127 33.55C211.127 32.1337 210.931 30.8708 210.54 29.761C210.159 28.6513 209.594 27.7741 208.844 27.1294C208.093 26.4847 207.158 26.1623 206.038 26.1623C204.907 26.1623 203.956 26.4847 203.184 27.1294C202.423 27.7741 201.847 28.6513 201.456 29.761C201.076 30.8708 200.885 32.1337 200.885 33.55C200.885 34.9662 201.076 36.2292 201.456 37.3389C201.847 38.4486 202.423 39.3259 203.184 39.9706C203.956 40.6047 204.907 40.9217 206.038 40.9217ZM222.382 45.6777V21.3271H228.93V25.5758H229.183C229.627 24.0644 230.372 22.923 231.419 22.1515C232.465 21.3694 233.67 20.9783 235.033 20.9783C235.371 20.9783 235.736 20.9994 236.127 21.0417C236.518 21.084 236.862 21.1421 237.158 21.2161V27.2087C236.841 27.1135 236.402 27.029 235.842 26.955C235.282 26.881 234.769 26.844 234.304 26.844C233.311 26.844 232.423 27.0607 231.641 27.494C230.869 27.9168 230.256 28.5086 229.802 29.2696C229.358 30.0305 229.136 30.9078 229.136 31.9012V45.6777H222.382ZM240.776 45.6777V13.2102H247.641V27.5257H248.069L259.753 13.2102H267.98L255.932 27.7477L268.123 45.6777H259.911L251.017 32.3293L247.641 36.4511V45.6777H240.776ZM272.954 45.6777V21.3271H279.708V45.6777H272.954ZM276.347 18.1881C275.343 18.1881 274.482 17.8552 273.763 17.1894C273.055 16.513 272.701 15.7045 272.701 14.7638C272.701 13.8338 273.055 13.0358 273.763 12.37C274.482 11.6936 275.343 11.3554 276.347 11.3554C277.351 11.3554 278.207 11.6936 278.915 12.37C279.634 13.0358 279.993 13.8338 279.993 14.7638C279.993 15.7045 279.634 16.513 278.915 17.1894C278.207 17.8552 277.351 18.1881 276.347 18.1881ZM298.07 21.3271V26.4001H283.406V21.3271H298.07ZM286.735 15.4931H293.488V38.195C293.488 38.8185 293.583 39.3047 293.774 39.6535C293.964 39.9917 294.228 40.2295 294.566 40.3669C294.915 40.5043 295.317 40.573 295.771 40.573C296.088 40.573 296.405 40.5466 296.722 40.4937C297.039 40.4303 297.283 40.3827 297.452 40.351L298.514 45.3765C298.176 45.4822 297.7 45.6038 297.087 45.7411C296.474 45.8891 295.729 45.9789 294.852 46.0107C293.224 46.0741 291.797 45.8574 290.571 45.3607C289.356 44.8639 288.41 44.0924 287.734 43.0461C287.057 41.9998 286.724 40.6787 286.735 39.0828V15.4931Z" fill="#1A2952"/>
</svg>
