<svg xmlns="http://www.w3.org/2000/svg" width="98.487" height="120.999" viewBox="0 0 98.487 120.999"><g transform="translate(-1160.6 -436)"><g transform="translate(1160.6 436)"><path d="M582.568.708c0-.462.231-.75.693-.75h4.272c.52,0,.693.289.693.75V35.4c0,.462-.231.75-.693.75h-4.272a.683.683,0,0,1-.693-.75V21.029h-5.311V39.618c0,.462-.115.635-.693.924l-4.272,2.309c-.52,0-.693-.289-.693-.75V.65c0-.462.231-.75.693-.75h4.272a.683.683,0,0,1,.693.75V15.025h5.311Z" transform="translate(-571.6 0.1)" fill="#fff"/><path d="M620.823,31.809a.59.59,0,0,1-.635-.577l-1.154-5.773h-7.158l-1.617,8.024a.629.629,0,0,1-.635.577h-4.33q-.693,0-.52-.693L611.991.577A.64.64,0,0,1,612.684,0h5.6a.675.675,0,0,1,.693.577l6.7,30.539c.058.462-.058.693-.577.693ZM615.455,6.985l-2.6,13.855h5.138Z" transform="translate(-585.609 0.058)" fill="#fff"/><path d="M656.471,0a.554.554,0,0,1,.635.635V4.561a.554.554,0,0,1-.635.635H651.8V30.654a.554.554,0,0,1-.635.635h-4.214a.553.553,0,0,1-.635-.635V5.2h-4.676A.578.578,0,0,1,641,4.561V.635A.578.578,0,0,1,641.635,0Z" transform="translate(-600.936 0.058)" fill="#fff"/><path d="M689.272,0a.553.553,0,0,1,.635.635v4.1a.577.577,0,0,1-.635.635H684.6V32.963c0,.462-.173.635-.635.635l-4.214-.866a.577.577,0,0,1-.635-.635V5.369h-4.676a.577.577,0,0,1-.635-.635V.635A.577.577,0,0,1,674.435,0Z" transform="translate(-614.801 0.058)" fill="#fff"/><path d="M717.027,41.218c-.346,0-.577-.231-.635-.635l-2.136-11.95H707.1l-1.212,7.216c-.058.4-.289.635-.635.635l-4.156-1.1a.683.683,0,0,1-.52-.924L707.156.635A.648.648,0,0,1,707.849,0h5.6c.346,0,.577.173.693.635l8.024,41.392c.058.52-.058.75-.577.75ZM710.62,7.851l-2.6,15.587h5.138Z" transform="translate(-626.104 0.058)" fill="#fff"/></g><g transform="translate(1163.141 473.524)"><path d="M691,76.6Z" transform="translate(-624.613 -69.846)" fill="#fff"/><path d="M630.14,69.378a26.609,26.609,0,0,0-2.251,1.963c-.462.577-.577,1.616-1.328,2.194s-2.194,1.1-2.54,1.443-.058,1.905-.981,2.54S622,78.442,622,78.673A8.03,8.03,0,0,0,622.289,80h.058c.058,0,.116-.058.173-.058h.115c.058,0,.116,0,.116.058l.058.058a.057.057,0,0,1,.058.058l.058.058a.2.2,0,0,0,.058.115v.346a.2.2,0,0,1-.058.115h0c0,.058-.058.058-.058.115s-.115.115-.115.115a.3.3,0,0,1-.231.115h-.058c-.058.058-.116.058-.231.058h0v.173a.213.213,0,0,1-.058.173h0a.628.628,0,0,1,.4.577.655.655,0,0,1-.173.462h.346a.212.212,0,0,1,.173-.058h.578c.173-.058.346-.058.519-.115.058,0,.116-.058.231-.058h.115c.058,0,.058,0,.115.058l.058.058h0a5.638,5.638,0,0,1,.635-.289,10.543,10.543,0,0,0,2.713-2.367l4.5-4.676a34.242,34.242,0,0,1-1.674,4.676,8.345,8.345,0,0,1-2.54,2.829,34.259,34.259,0,0,1-3.983,1.155v.058c-.058.058-.058.115-.116.173h.289l.115.058a.057.057,0,0,1,.058.058l.058.058.058.058a.2.2,0,0,1,.058.115l.058.058a.179.179,0,0,0,.058.115v.346c0,.058,0,.058-.058.115,0,.058-.058.058-.058.115a.3.3,0,0,1-.231.115c-.058,0-.115.058-.173.058h-.058a.2.2,0,0,0-.115.058h-.4v.058a.212.212,0,0,1-.058.173V85.6c0,.058-.058.058-.058.115h.289c.058,0,.058,0,.173.058.058,0,.116.058.173.058h0a.8.8,0,0,0,.231.173h.058c.058.058.116.115.173.115l.058.058a.179.179,0,0,1,.058.115v.058h0a.262.262,0,0,1,0,.289h.058a.057.057,0,0,1,.058.058.2.2,0,0,1,.115.058l.058.058a.2.2,0,0,0,.058.115c0,.058,0,.058.058.115V87.1h0v.231a.057.057,0,0,0,.058.058.057.057,0,0,1,.058.058l.058.058h0c.058,0,.058,0,.115-.058,1.905-.693,5.022-.289,6.408-.289,1.328,0,2.656-1.385,5.2-2.078s4.33-.693,5.773-1.1a7.161,7.161,0,0,0,3.983-1.79c.4-.289.808-.635,1.155-.924.115-.115.289-.231.4-.346a6.586,6.586,0,0,0,.635-.635c-.577-.4-1.155-.808-1.674-1.212-.231-.173-.462-.289-.635-.4-.693-.4-1.385-.693-1.905-.981a2.982,2.982,0,0,1-1.1-.693,20.728,20.728,0,0,1-2.078-2.251,5.266,5.266,0,0,0-1.847-1.905,7.778,7.778,0,0,1-2.482-1.27,6.312,6.312,0,0,0-2.136-1.905,1.878,1.878,0,0,1-.693-.346,1.922,1.922,0,0,1-.346-.577,2.586,2.586,0,0,0-.577-.75c-.346-.346-.751-.693-.751-.693l-1.963,2.829.52-1.905.058-.231h0c0,.058-.058.173-.058.231l-1.1.75v-.058C630.313,69.263,630.255,69.32,630.14,69.378Zm6.928,4.041a5.36,5.36,0,0,1,1.27.981c.346.346,1.732,1.386,2.021,1.79.289.346,2.6,1.79,3.521,2.656,0,0,1.5,1.963,1.559,2.136a29.8,29.8,0,0,1-2.771-2.251c-.577-.4-1.963-.346-3.06-.866s-1.155-2.482-1.79-3.117a37.9,37.9,0,0,0-2.886-2.6S636.317,73.015,637.067,73.419Zm.231,4.561a8.211,8.211,0,0,1,1.616.981c.058.173,1.155,1.039,1.385,1.328.231.231,1.847.693,2.771,1.27,0,0,.808,1.559.924,1.79s-.635-.346-1.963-1.212-2.6.808-3.579.52c-.981-.231-.693-2.078-1.27-2.713-.577-.693-.115-.924-.75-1.385s-2.771-2.194-2.771-2.194S636.721,77.749,637.3,77.98Zm-5.946-4.734s1.154-1.328,1.559-1.847c.4-.462-.808,2.02-1.1,2.425a5.185,5.185,0,0,0-.462,1.328,4.2,4.2,0,0,1-1.674.462,3.547,3.547,0,0,0-1.616.52c-.52.289-3.406,2.944-3.291,2.829.058-.115,1.963-2.482,2.482-3.117a4.84,4.84,0,0,1,2.713-1.039C630.486,74.8,631.121,73.419,631.352,73.246Z" transform="translate(-595.446 -65.914)" fill="#fff"/><path d="M600.42,102.473l.058-.115c-.058,0-.173.058-.231.058a.82.82,0,0,1-.346-.115v.635l.058-.058C600.131,102.82,600.246,102.646,600.42,102.473Z" transform="translate(-586.104 -80.709)" fill="#fff"/><path d="M610.217,103.681c-.058.058-.058.115-.115.173l-.058.058c-.058,0-.115.058-.173.058h-.115a.974.974,0,0,1-.289-.115,5.627,5.627,0,0,1-.635-.289.347.347,0,0,1-.231-.058l-.058.058-.058.058c-.058.058-.115.058-.231.058h-.231c-.058,0-.173-.058-.231-.058a1.207,1.207,0,0,1-.346-.231h0a.057.057,0,0,0-.058.058c-.058,0-.116.058-.173.058h-.346c-.115,0-.173-.058-.289-.115a.124.124,0,0,1-.115.115l-.058.058-.116.058h-.4c-.058,0-.058,0-.115-.058l-.058-.058c-.058,0-.058-.058-.115-.058l-.058-.058c-.058-.058-.058-.115-.115-.173-.058-.115-.058-.289-.115-.4h-.231a.212.212,0,0,1-.173-.058.057.057,0,0,1-.058-.058,15.239,15.239,0,0,0-1.328,1.674,3.926,3.926,0,0,1-.693.693,1.448,1.448,0,0,1-.4.231,2.348,2.348,0,0,1-.693,1.039c-.058.115-.173.231-.231.346,1.905.289,3.579.577,5.023.924a3.662,3.662,0,0,0,.4.115c1.963-1.039,4.1-2.194,5.946-3.175a2.713,2.713,0,0,1-.693-.52c-.058,0-.058,0-.115-.058,0,.058,0,.058-.058.058,0,.058-.058.058-.115.115l-.116.115c-.058,0-.058.058-.173.058h-.289a.212.212,0,0,1-.173-.058c-.058,0-.116-.058-.173-.058-.058-.058-.115-.058-.173-.173-.058-.058-.058-.115-.116-.173a2.423,2.423,0,0,1-.115-.346,1.355,1.355,0,0,1-.115-.462c-.058.058-.116.058-.173.115-.058,0-.116.058-.173.058v.231C610.217,103.624,610.217,103.624,610.217,103.681Z" transform="translate(-586.78 -80.878)" fill="#fff"/><path d="M619.3,95.068h0a.179.179,0,0,1,.058.115.057.057,0,0,0,.058.058h0a.179.179,0,0,1,.115.058h.116a.056.056,0,0,0,.058-.058h0c0-.058.058-.058.058-.115-.116,0-.231-.058-.346-.058C619.415,95.011,619.358,95.011,619.3,95.068Z" transform="translate(-594.304 -77.634)" fill="#fff"/><path d="M597.3,103.031l-.116.115a.056.056,0,0,0-.058.058c-.058,0-.116.058-.173.058H596.9v.635c.058.289.116.577.173.808l.173-1.212c.058-.173.058-.346.115-.462a.347.347,0,0,1,.058-.231c0,.058-.058.115-.115.231Z" transform="translate(-584.836 -80.921)" fill="#fff"/><path d="M601.962,104.216a2.674,2.674,0,0,0,.577-.577c.289-.346.52-.693.808-.981a.057.057,0,0,1-.058-.058h0l-.058.058a.2.2,0,0,0-.115.058c-.058,0-.115,0-.115.058h-.289a4.209,4.209,0,0,1-.52.462l-.289.289c-.115.115-.173.231-.289.289a3.889,3.889,0,0,1-.116.808.932.932,0,0,1,.4-.231C601.846,104.332,601.9,104.274,601.962,104.216Z" transform="translate(-586.78 -80.836)" fill="#fff"/><path d="M695.851,151.162l-.173-.173c-.115-.115-.231-.173-.346-.289H695.1c.116.173.231.289.346.462l.4.4a.179.179,0,0,0,.115.058h.058v-.289Z" transform="translate(-626.346 -101.169)" fill="#fff"/><path d="M626.877,130.268s-.346-.4-.577,0C626.3,130.268,626.589,130.9,626.877,130.268Z" transform="translate(-597.263 -92.456)" fill="#fff"/><path d="M638.112,123.289,636.9,123S637.42,124.1,638.112,123.289Z" transform="translate(-601.744 -89.459)" fill="#fff"/><path d="M636.108,115.95s-.4-.577-.808-.231C635.358,115.777,635.7,116.7,636.108,115.95Z" transform="translate(-601.068 -86.335)" fill="#fff"/><path d="M635.355,126.273,634.2,126.1S634.951,126.908,635.355,126.273Z" transform="translate(-600.603 -90.77)" fill="#fff"/><path d="M636.206,114.072s-.866-.462-.635.115C635.571,114.245,636.149,114.476,636.206,114.072Z" transform="translate(-601.166 -85.612)" fill="#fff"/><path d="M636.9,125.089l-1.1-.289A.7.7,0,0,0,636.9,125.089Z" transform="translate(-601.279 -90.22)" fill="#fff"/><path d="M630.9,130.662l-1.5-.462C629.458,130.2,630.266,131.066,630.9,130.662Z" transform="translate(-598.574 -92.503)" fill="#fff"/><path d="M632.637,128.377,631.6,127.8C631.6,127.858,631.482,128.551,632.637,128.377Z" transform="translate(-599.502 -91.488)" fill="#fff"/><path d="M634.21,127.346,633,127C632.94,127,633.632,128.039,634.21,127.346Z" transform="translate(-600.093 -91.15)" fill="#fff"/><path d="M631.37,129.62l-1.27-.52S630.677,130.081,631.37,129.62Z" transform="translate(-598.87 -92.038)" fill="#fff"/><path d="M642.193,115.6H641.5C641.5,115.658,641.558,116.293,642.193,115.6Z" transform="translate(-603.689 -86.331)" fill="#fff"/><path d="M641.463,117.658l-.866-.058C640.539,117.658,641.059,118.524,641.463,117.658Z" transform="translate(-603.305 -87.177)" fill="#fff"/><path d="M669.291,90.185h0c-.058-.058-.116-.058-.116-.115h-.058l-.173-.173h0a16.538,16.538,0,0,0-2.367-1.674,28.969,28.969,0,0,1-2.655-1.963,23.519,23.519,0,0,0-3.464-2.54c-.751-.462-1.27-.808-1.674-1.039-1.212-.75-1.212-.75-2.194-1.386a3.25,3.25,0,0,1-1.155-1.674,5.227,5.227,0,0,0-1.155-1.847,3.912,3.912,0,0,0-2.54-.924c-.289-.289-.982-.808-1.732-1.5-1.5-1.27-2.713-2.309-3.695-3.117-2.194-1.79-2.482-1.847-2.713-1.847h-.116c-.635,0-1.212.52-2.309,1.559a9.08,9.08,0,0,1-2.136,1.732,6.957,6.957,0,0,0-1.559,1.1,7.382,7.382,0,0,1-3.637,1.847,8,8,0,0,0-3.522,1.559,13.049,13.049,0,0,0-1.155-.75c-.693-.462-1.212-.75-1.559-.981-1.1-.693-1.1-.693-2.02-1.328a3.516,3.516,0,0,1-1.039-1.5,4.92,4.92,0,0,0-1.1-1.732,4.269,4.269,0,0,0-2.425-.924c-.52-.462-1.9-1.616-3.29-2.829-3.753-3.117-4.1-3.175-4.387-3.233h-.116c-.635,0-1.155.52-2.194,1.5a9.328,9.328,0,0,1-1.963,1.616,6.359,6.359,0,0,0-1.443.981,6.08,6.08,0,0,1-3.348,1.674,8.5,8.5,0,0,0-4.676,2.713c-.462.4-.924.866-1.443,1.27.058,0,.058,0,.116-.058h.346a1234.92,1234.92,0,0,0,.115-.115h.462a.212.212,0,0,1,.173.058l.173-.173.058-.058.115-.115.173-.173.173-.173c.231-.173.4-.4.635-.577h0c.116-.115.231-.173.289-.289h0c.173-.115.289-.231.462-.346l.058-.058c.058,0,.058-.058.115-.058.058-.058.115-.058.173-.115.058,0,.058-.058.115-.058.058-.058.115-.058.173-.115.058,0,.058-.058.115-.058.058-.058.115-.058.231-.115.058,0,.058-.058.115-.058l.346-.173h0a.82.82,0,0,1,.346-.115c.058,0,.058,0,.116-.058s.173-.058.289-.115c.058,0,.058,0,.116-.058a.52.52,0,0,1,.289-.058h.115c.116-.058.289-.058.4-.115a7.646,7.646,0,0,0,3.579-1.732,8.289,8.289,0,0,1,1.443-1.039,20.6,20.6,0,0,0,3-2.54h0c.058-.058.058-.058.115-.058h0c.058,0,.058-.058.115-.058h0l.058-.058h0l.058-.058h0a.056.056,0,0,0,.058-.058h.058a.057.057,0,0,0,.058-.058h.519a.057.057,0,0,1,.058.058h.058c.058,0,.058.058.115.058a.057.057,0,0,1,.058.058c.058,0,.058.058.116.058l.058.058c.058,0,.058.058.115.115.058,0,.058.058.116.058s.058.058.115.115c.058,0,.058.058.115.058l.115.115c.058,0,.058.058.115.058l.173.173.116.115c.058.058.115.058.115.115.115.058.173.173.289.231.058.058.116.058.173.115l.116.115c.058.058.173.115.231.231,2.194,1.79,5.023,4.272,5.023,4.272h.981c.058,0,.058,0,.115.058h.058c.058,0,.115.058.173.058h.058c.058,0,.058.058.116.058a.056.056,0,0,1,.058.058c.058,0,.058.058.116.058l.058.058c.058,0,.058.058.116.058l.058.058c.058.058.116.058.173.115h0l.173.173c.058.058.115.115.115.173l.058.058c.058.058.058.115.116.115a.2.2,0,0,1,.058.115c.058.058.058.115.116.231,0,.058.058.058.058.115a.212.212,0,0,1,.058.173.057.057,0,0,0,.058.058c.058.058.058.173.116.231.058.173.173.346.231.52a.057.057,0,0,0,.058.058c0,.058.058.058.058.115.058.173.173.289.231.462.116.115.173.289.346.4l.116.115a1.012,1.012,0,0,0,.289.231c1.155.75.866.577,3.175,2.021a3.221,3.221,0,0,0,.462.289c.058,0,.058.058.116.058.462.289.866.577,1.212.808l.115.115-.115-.115c.058.058.173.115.231.173l.058-.058h0c.058-.058.173-.115.231-.173l.115-.115c.058,0,.058-.058.115-.058a1.264,1.264,0,0,1,.289-.173c.058,0,.058-.058.116-.058s.058-.058.115-.058a1.263,1.263,0,0,1,.289-.173c.173-.115.346-.173.52-.289.058-.058.116-.058.173-.115a6.35,6.35,0,0,1,1.674-.52c.462-.115.924-.231,1.27-.346h.058c.115-.058.173-.058.289-.115.058,0,.058-.058.116-.058a.2.2,0,0,0,.116-.058.056.056,0,0,0,.058-.058h.058a1.263,1.263,0,0,0,.289-.173h.115c.115-.058.173-.115.289-.173h.058a.057.057,0,0,0,.058-.058h.058l.058-.058.058-.058c.058-.058.115-.058.173-.115l.058-.058c.058-.058.115-.058.173-.115h.058l.058-.058.115-.115a.057.057,0,0,0,.058-.058c.058-.058.115-.115.173-.115l.058-.058.115-.115.058-.058c.058-.058.115-.058.115-.115a4.065,4.065,0,0,1,1.328-.866c.115-.058.173-.115.289-.173h0c.058,0,.058-.058.115-.058h0c.058,0,.058-.058.116-.058h.058c.058,0,.058-.058.115-.058h.058c.058,0,.058-.058.115-.115l.058-.058.115-.115.058-.058.115-.115.058-.058.115-.115.058-.058.116-.115.058-.058.115-.115.058-.058.115-.115.058-.058.115-.115h.058l.115-.115h0l.346-.346.058-.058.058-.058L642.5,72l.058-.058.058-.058.058-.058.058-.058.058-.058.058-.058.058-.058.058-.058h0l.058-.058a.057.057,0,0,0,.058-.058l.058-.058.058-.058h0l.058-.058a.057.057,0,0,0,.058-.058l.058-.058h.058l.058-.058h0a.057.057,0,0,0,.058-.058h0a.057.057,0,0,0,.058-.058h.346a1.921,1.921,0,0,1,.751.462c1.212.866,3.637,2.886,5.311,4.387h0c.808.693,1.443,1.212,1.732,1.5l.173.173h.635a.521.521,0,0,1,.289.058h0c.058,0,.115,0,.115.058h.058a.212.212,0,0,1,.173.058h0c.115,0,.173.058.289.115h.058c.115.058.173.058.289.115h0c.058.058.115.058.173.115h.058c.058.058.115.058.173.115h0l.173.173a4.126,4.126,0,0,1,1.039,1.674,4.688,4.688,0,0,0,1.1,1.674.8.8,0,0,0,.231.173c1.328.866.866.577,3.868,2.482a27.952,27.952,0,0,1,3,2.136A24.361,24.361,0,0,0,666.75,88.8a27.279,27.279,0,0,1,2.482,1.79h0l-.115.462v.058a50.968,50.968,0,0,1-5.138-3.406A49.165,49.165,0,0,0,660,84.586l-.52-.346c-.058-.058-.115-.058-.173-.115.116.4,1.386,1.732,2.078,2.886a31.155,31.155,0,0,0,3.175,3.348,13.353,13.353,0,0,0,1.385,1.27c.231.231-3.175-2.829-4.1-3.348s-1.328-1.732-2.251-2.771c-.635-.693-1.79-1.674-2.367-2.425a3.334,3.334,0,0,1-1.155-.693,19.065,19.065,0,0,1-2.251-2.425,5.1,5.1,0,0,0-2.021-2.021,8.31,8.31,0,0,1-2.655-1.385,6.815,6.815,0,0,0-2.309-2.078,1.825,1.825,0,0,1-.75-.4,1.2,1.2,0,0,1-.346-.577,3.127,3.127,0,0,0-.635-.808c-.289-.289-.635-.577-.751-.693l-.058-.058-1.963,2.829-.116.231.52-1.963v-.058h0l.058-.115.058-.115h0c0,.058-.058.173-.058.231l-1.155.75v-.058l-.173.173a30.141,30.141,0,0,0-2.425,2.136c-.519.635-.577,1.732-1.385,2.367s-2.367,1.155-2.771,1.5c-.346.346-.058,2.021-1.039,2.713a9.5,9.5,0,0,0-.924.75l-.058.058a.622.622,0,0,0-.115.4c0,.231.462,2.021.577,2.482a.2.2,0,0,0,.058.115s-3.868-2.656-4.734-2.771a26.15,26.15,0,0,0-5.08.4c-.173.058-.231.115-.231.173.058.289.4,1.27.231,1.5,0,.058-.058.058-.115.058a20.042,20.042,0,0,0-2.656.52l-.693.173h0l-.115.058h0c-.289.058-.635.173-.924.231h-.116l-.693.173c-.115,0-.231.058-.346.058h0c-.924.231-1.674.4-1.963.52-.058,0-.115,0-.115.058a1.376,1.376,0,0,0-.635.346,1.927,1.927,0,0,0-.577-.4l-1.328-.577.577,1.328a3.306,3.306,0,0,1,.231.808c-.173.289-.4.52-.577.808a13.62,13.62,0,0,1-.981,1.5,7.643,7.643,0,0,0-1.27-3.406L610,86.26l.231,2.078a23.76,23.76,0,0,1,.058,3.464,16.535,16.535,0,0,0-4.272.4,1.943,1.943,0,0,0-.693.346l-.058.058-4.561.231c1.328.52,2.425,1.039,3.579,1.616,1.27.635,2.656,1.27,4.445,1.963,0,0,.173.058.4.115a3.1,3.1,0,0,1-.289.635,10.646,10.646,0,0,0-1.039-.346,42.163,42.163,0,0,1-3.868-1.732c-1.386-.635-2.656-1.27-4.272-1.847-1.039-.346-2.136-.693-3.348-.981-1.559-.346-3.348-.693-5.369-.981-.058.058-.116.058-.173.115v.346c.058,0,.173.058.231.058h-.346a7.23,7.23,0,0,1,4.272,2.6h.116v.058h0l-.346-.346h-.058a9.1,9.1,0,0,0-4.33-2.021c0-.058.058-.058.058-.115.058-.231,0-.462.058-.693v-.058c0-.058,0-.058.058-.115a1.26,1.26,0,0,0,.289-.173c.058-.058.115-.115.115-.173.058-.058.058-.115.116-.173a5.077,5.077,0,0,0,.346-.577c.346-.289.693-.635.635-1.039a4.191,4.191,0,0,0,.52-.289,2.738,2.738,0,0,0,.577-.577c.462-.577.981-1.212,1.443-1.79.115-.115.173-.231.289-.346h0a.52.52,0,0,0,.058.289v.058h.173a.056.056,0,0,0,.058-.058c.058-.058.058-.058.058-.115v-.058c0-.058.058-.058.058-.115h0a2.5,2.5,0,0,1,.058-.289v.058h0l.058.058a.057.057,0,0,1,.058.058v.058a.057.057,0,0,0,.058.058.057.057,0,0,1,.058.058v.058c-.116.058-.116.231,0,.346h.058a1.706,1.706,0,0,0,.115.75.057.057,0,0,0,.058.058h0l.058.058h.231l.058-.058h0v-.4a2.9,2.9,0,0,0,.75.289h.231v-.058h0V87.01a4.307,4.307,0,0,0,.693.4h.115l.058-.058h0V87.3h0v-.058h0v-.058h0a.057.057,0,0,0-.058-.058c-.115-.058-.173-.173-.289-.231a1.877,1.877,0,0,0,.981.4,2.135,2.135,0,0,0,.635.289h.058c.058,0,.115.058.231.058h0c-.058,0-.116-.058-.173-.058-.173-.058-.346-.173-.52-.231h.231a.212.212,0,0,0,.173-.058c.058,0,.058,0,.116-.058h.289a.212.212,0,0,0,.173-.058h0c.058,0,.116-.058.173-.058h0c.058-.058.116-.058.173-.115.116-.058.058-.231,0-.289h.058l.058-.058a.438.438,0,0,0,.231.115.057.057,0,0,1,.058.058h0c0,.115.058.173.058.289v.058c.058.173.116.4.173.577v.058c.058.115.058.173.115.289a.057.057,0,0,0,.058.058h0l.058.058h.288l.058-.058h0v-.058h0v-.058c-.058-.173-.115-.346-.173-.577a1.842,1.842,0,0,0,.924.52,2.178,2.178,0,0,0,.924.693h.115v-.058h0v-.058h0v-.058h0v-.058h0l-.058-.058a3.18,3.18,0,0,1-.52-.4v-.058a3.18,3.18,0,0,0,.52.4.057.057,0,0,1,.058.058h.924v-.058h0V88.28h0a.056.056,0,0,1,.058-.058v-.173h.289c.058.058.115.058.173.115h.058c.058,0,.058.058.115.058h.808c.058,0,.116-.058.173-.058a.347.347,0,0,1,.231.058h.635a.173.173,0,1,0,0-.346,3.27,3.27,0,0,1-1.039-.173,1.446,1.446,0,0,0,.4-.231l.058-.058h-.173c-.058.058-.115.058-.231.058h-.058c-.058,0-.058,0-.116.058h-.577c-.058,0-.058,0-.115-.058h0l.058-.058h.058c.115,0,.173-.058.231-.173h0l.346.173h.173a.057.057,0,0,0,.058-.058h0a.056.056,0,0,0,.058-.058h0v-.058h0v-.058h0v-.058h0a.056.056,0,0,0-.058-.058h0l-.058-.058a.057.057,0,0,1-.058-.058c.116-.058.116-.115.116-.231h0v-.115h-.52a.057.057,0,0,0-.058-.058h0c.058,0,.058-.058.115-.058v-.058l.058-.058v-.058a.2.2,0,0,1,.058-.115v-.058h0v-.058h0a.057.057,0,0,1-.058-.058h-.058l-.173-.173h0c-.058,0-.058-.058-.115-.058h0c-.058,0-.058,0-.115-.058h-.4c-.058,0-.058,0-.116.058a.057.057,0,0,0-.058.058h-.173a.056.056,0,0,1,.058-.058h0v-.462h0v-.058h-.173v.173a1.446,1.446,0,0,1-.4-.231h.577a.348.348,0,0,0,.231-.058c.058,0,.058,0,.115-.058h0a.057.057,0,0,0,.058-.058v-.173h0a.264.264,0,0,0-.289-.231h0v-.058h0v-.058h0a.057.057,0,0,0-.058-.058h0l-.058-.058h.173c.058,0,.116.058.173.058h.058c.058,0,.058,0,.115.058h.693c.058,0,.058,0,.115-.058h.058c.058,0,.115-.058.173-.058a.056.056,0,0,0,.058-.058h0V84.3h0v-.058h0v-.058h0v-.058h-.173a.212.212,0,0,0-.173.058h-.462c.173-.058.115-.289,0-.346v-.058h0c.058,0,.058-.058.115-.058s.058-.058.115-.058h0l.058-.058c0-.058.058-.058.058-.115a.057.057,0,0,1,.058-.058h0v-.058h0a.057.057,0,0,0-.058-.058h0l-.058-.058a.976.976,0,0,0,.289-.115h0c.115-.058.173-.058.289-.115l.058-.058h0v-.058h0v-.058h0V82.8h0v-.058h-.173c-.173.058-.4.115-.577.173h-.635a.057.057,0,0,0-.058.058h-.577a.212.212,0,0,0-.173.058c-.058,0-.058,0-.058.058h0V83.2h0v.058l-.058.058h0a.056.056,0,0,1-.058-.058h-.4a.439.439,0,0,0-.115.231c0,.058.058.058.058.115v.058h0a.057.057,0,0,0,.058.058c0,.058.058.058.115.115h-.173a.823.823,0,0,0-.115-.346l-.058-.058h-.115a.057.057,0,0,0-.058.058.108.108,0,0,0,0,.173h0a.057.057,0,0,0-.058.058h-.173v.058h0v.058h0v.058h0a.057.057,0,0,0,.058.058h-.058a.212.212,0,0,0-.058-.173c-.058,0-.058-.058-.115-.058h0c-.058,0-.058,0-.115-.058h-.289V83.6c0-.058-.058-.115-.058-.173l-.058-.058a.057.057,0,0,0-.058-.058c0-.058-.058-.058-.116-.115h0c-.058-.058-.058-.058-.115-.058h0v-.115c.058,0,.058-.058.115-.058a.057.057,0,0,1,.058-.058.733.733,0,0,0,.346-.058c.058,0,.115-.058.173-.115.057,0,.115.058.173.058h1.039c.058,0,.115-.058.173-.058a.057.057,0,0,0,.058-.058h0a.056.056,0,0,1,.058-.058h0v-.058h0v-.058h0a.056.056,0,0,0-.058-.058h0a.057.057,0,0,0-.058-.058h0a.057.057,0,0,1-.058-.058h-.115c-.058,0-.116.058-.173.058a.124.124,0,0,0-.116-.115h.693c.231,0,.231-.4,0-.4h-.115a.153.153,0,0,0-.173-.173c-.289-.058-.52-.058-.808-.115a.057.057,0,0,0-.058-.058v-.058h0c.173,0,.346.058.577.058h.058v-.058h0v-.058c.058,0,.058-.058.116-.058h0V81.3h0v-.058h0v-.115h0l-.058-.058h0a.057.057,0,0,1-.058-.058c-.058,0-.115,0-.115-.058h.058a.056.056,0,0,0,.058-.058h0v-.058h.346c.058,0,.115-.058.173-.058h.058c.058,0,.115-.058.173-.115l.058-.058H604c-.058,0-.058.058-.116.058h-1.5c-.231,0-.462-.058-.693-.058.173-.058.4-.115.577-.173a.057.057,0,0,0,.058-.058h0l.058-.058h0v-.058h0V80.2h0v-.058h0a.057.057,0,0,0-.058-.058h0a.057.057,0,0,1-.058-.058h-.115a1.957,1.957,0,0,0,.346-.346v-.058h0v-.058h0v-.058l-.058-.058h-.058a.212.212,0,0,0-.173.058,2.046,2.046,0,0,1-.52.231h-.058a.2.2,0,0,1-.115-.058H601.4v-.058h0a.212.212,0,0,0,.173-.058l.058-.058h0V79.39h.058v-.115h0v-.058h-.115a.212.212,0,0,0-.173.058l-.058.058a.212.212,0,0,1-.173-.058h-.52v-.058h0a.057.057,0,0,0-.058-.058h0a.732.732,0,0,1,.346.058h1.1c.231,0,.231-.4,0-.4a12,12,0,0,1-1.328-.173.247.247,0,0,0-.058-.4c-.058,0-.058-.058-.116-.058h.116a.244.244,0,0,0,.058-.4h-.058v-.058h0v-.231a.2.2,0,0,0-.058-.115l-.058-.058a.057.057,0,0,0-.058-.058c-.058,0-.058-.058-.115-.058h0c-.058,0-.058-.058-.115-.058h0v-.058h0a.057.057,0,0,0,.058-.058.2.2,0,0,0-.058-.289.931.931,0,0,0-.52-.173h-.115a.057.057,0,0,0-.058.058h-.75a205.781,205.781,0,0,1-.115.115h-.058v.058h-.346v.058c-.058,0-.116-.058-.173-.058h-.4v.058h0v.058h0v.058c-.058-.058-.173-.115-.231-.173h.058a.732.732,0,0,0,.346-.058h-.462c-.058-.115-.115-.231-.289-.231s-.289-.058-.462-.058h0v-.058h.346l.058-.058h0V76.1h-.115a.057.057,0,0,1,.058-.058v-.058h0v-.058h0v-.058h0v-.058h0l-.058-.058h0L596.9,75.7h-.173a.057.057,0,0,0-.058.058l-.173.173c-.058,0-.058.058-.115.058s-.058-.058-.116-.058a.3.3,0,0,0-.231-.115h-.173l-.058.058h0v.058h0v.058h0v.058h0a49.474,49.474,0,0,0,.116.115h-.462a.2.2,0,0,0-.115.058h-.173a.057.057,0,0,0-.058.058l-.058.058a.057.057,0,0,1-.058-.058h-.115v-.115h0v-.115c0-.058,0-.115-.058-.115a.057.057,0,0,0-.058-.058v-.058l-.058-.058h0c-.058,0-.058-.058-.116-.058h0v-.058h0l.058-.058a.176.176,0,0,0,0-.231c-.116-.115-.289-.115-.4-.173h-.173v.058h-.519a88.273,88.273,0,0,1-.115.115h-.115v.058h-.289c-.058,0-.116-.058-.173-.058h-.231v.058h0v.058h0v.058l-.173-.173a.732.732,0,0,0,.346-.058h-.231a.248.248,0,0,0-.231-.231c-.116,0-.231-.058-.346-.058v-.058h.231v-.058h0v-.231h-.115a.057.057,0,0,1,.058-.058v-.058h0v-.058h0v-.058h0a.057.057,0,0,0-.058-.058h-.173a.057.057,0,0,0-.058.058c-.058.058-.058.115-.115.115l-.058.058c-.058-.058-.173-.115-.231-.173h-.115v.058h0v.058h0V74.6h0v.058a.056.056,0,0,0,.058.058h-.346c-.058,0-.058,0-.058.058a.057.057,0,0,1-.058-.058h-.115a.057.057,0,0,0-.058.058.058.058,0,0,1-.115,0h-.231c0-.058.058-.115.058-.173v-.058h0v-.058h0l-.058-.058h-.115a.057.057,0,0,0-.058.058c-.058.058-.115.058-.115.115h-.173l-.058.058h0v.058H589.8a.057.057,0,0,0-.058.058l-.115.115v-.346h0a.056.056,0,0,0-.058-.058.98.98,0,0,0,.346-.346v-.058h-.058c-.058.058-.116.058-.116.115h-.058c-.058,0-.058.058-.115.058h-.058l-.346.173H589.1a.056.056,0,0,0-.058.058c-.058,0-.116.058-.231.115-.115-.058-.231-.058-.289-.115h-.173l-.058.058c0,.058-.058.058-.058.115-.058-.058-.173-.115-.231-.173h-.115v.058h0v.231a1.013,1.013,0,0,1-.289-.231l-.058-.058h-.115v.058a.057.057,0,0,0-.058-.058H587.2a.057.057,0,0,1-.058.058c0,.058-.058.115-.115.173s-.115.173-.173.231h0c-.058,0-.058,0-.115.058h-.231c-.058,0-.058,0-.116.058-.058,0-.058-.058-.115-.058h-.058l-.058-.058-.058-.058a.057.057,0,0,1-.058-.058l-.115-.115h-.115l-.058.058h0v.058h0V75h0c-.115-.115-.231-.173-.346-.289h-.231v.058h0v.058c0-.058-.058-.058-.058-.115l-.058-.058h-.173a.057.057,0,0,0-.058.058h0a.057.057,0,0,1-.058.058h0v.058h0v.058h-.115v-.231H584.6V74.6a.057.057,0,0,0-.058-.058h0a.057.057,0,0,1-.058-.058h-.173a.056.056,0,0,1-.058-.058H584.2l-.058.058a.057.057,0,0,1-.058.058.732.732,0,0,0-.058-.346v-.058h0v.231a.732.732,0,0,1-.058.346h-.289a.164.164,0,0,0,0,.289.057.057,0,0,1,.058.058v.058h-.115a.057.057,0,0,0-.058-.058c-.058-.058-.058-.058-.116-.058a.057.057,0,0,0-.058.058.057.057,0,0,1-.058-.058h-.058v-.115a.057.057,0,0,0-.058-.058h-.346a.2.2,0,0,1-.115.058c-.115.058-.173.346,0,.346h.289l.058-.058v.115h0v.115c-.058.058-.058.115-.115.173h-.116l-.058.058h0V75.7h0v.058h0v.058a.057.057,0,0,0,.058.058h0v.058h0v.058h-.058a.821.821,0,0,0-.116-.346.057.057,0,0,0-.058-.058h-.231v.058h0V75.7h0v.058c.058.173,0,.289.058.462,0,.058.058.058.115.058v.058a.2.2,0,0,0-.115.058h-.115c-.058,0-.058,0-.115.058h0c-.058,0-.058,0-.116.058a.056.056,0,0,0-.058.058l-.058.058v.058h-.058q-.087,0-.173.173h-.115l-.058.058v.058h-.115c-.058,0-.115.115-.058.231v.058h-.115c-.058,0-.058,0-.116.058h-.058c-.116,0-.173.115-.173.231h-.058V77.6c-.058.058,0,.173,0,.231h0c-.058.058-.058.115-.173.173h-.115c-.058,0-.058.058-.116.058a.27.27,0,0,0,0,.462h.289a.057.057,0,0,0,.058-.058h0a.057.057,0,0,0,.058-.058h0l.058-.058v-.058a.057.057,0,0,1,.058-.058v-.058c0-.058.058-.058.058-.115v-.115h0c.058,0,.058-.058.116-.058l.058.058h.173a.057.057,0,0,0,.058-.058v-.115h.231a.124.124,0,0,0,.115-.115v-.115h0a.179.179,0,0,0,.115-.058.124.124,0,0,0,.115.115h.173c.058-.058.115-.058.173-.173h.058a.184.184,0,0,0,.173-.173c.058.058.058.058.115.058h.115a.057.057,0,0,0,.058-.058h.115c.058,0,.058-.058.116-.058a.057.057,0,0,0,.058-.058h0a.057.057,0,0,0,.058.058.057.057,0,0,1,.058.058h.058a.212.212,0,0,0,.058.173h0a.057.057,0,0,1,.058.058h.462l.058-.058a.254.254,0,0,0-.058-.289.179.179,0,0,1-.115-.058c-.058,0-.173-.058-.231-.058h-.058v-.115h0a.056.056,0,0,1,.058-.058.057.057,0,0,0,.058-.058l.115-.115c0-.058.058-.058.058-.115v.058h0a.163.163,0,0,0,0,.289h.115l.058.058h0v.058a.057.057,0,0,0,.058.058h0a.057.057,0,0,1,.058.058h.231a.057.057,0,0,1,.058-.058c.058,0,.058-.058.115-.058h0V77.2c-.058.058-.115.115-.115.173h-.173a.057.057,0,0,0-.058.058h0v.058h0V77.6h0a.057.057,0,0,0,.058.058l.058.058h0v.058h0v.058h-.058a.619.619,0,0,0-.116-.346.057.057,0,0,0-.058-.058h-.231l-.058.058h0v.058h0V77.6c.058.173,0,.346.115.462.058.058.058.058.115.058v.058c-.058,0-.115.058-.173.115h-.173a.212.212,0,0,0-.173.058h0c-.058,0-.058,0-.115.058a.057.057,0,0,0-.058.058c-.058,0-.058.058-.115.115h-.173a.057.057,0,0,0-.058.058h0a.057.057,0,0,1-.058.058h-.462l-.058.058h0a.057.057,0,0,1-.058.058h0v.231h-.058c-.058,0-.116,0-.116.058h-.115a.383.383,0,0,0-.289.231H581.6l-.058.058c-.058.058,0,.173.058.231h0a.8.8,0,0,1-.231.173h-.115a.2.2,0,0,0-.115.058c-.231.058-.289.462,0,.52h.231a.057.057,0,0,0-.058.058l-.058.058h0v.346h0c0,.058.058.115.115.173h0a.057.057,0,0,0-.058.058c-.058,0-.058.058-.058.115-.058,0-.115.058-.173.058,0-.058,0-.058-.058-.058v-.115h0v-.058h0v-.058h0v-.058h0a.057.057,0,0,0-.058-.058h0l-.058-.058h-.115l-.058.058a.058.058,0,0,1-.115,0h-.173l-.058.058h0l-.058.058-.058.058-.058-.058h-.231c-.058,0-.058,0-.115.058-.058,0-.058.058-.115.058a.212.212,0,0,0-.058-.173.057.057,0,0,0-.058-.058h0l-.058-.058h0a.057.057,0,0,1-.058-.058h-.115a.057.057,0,0,0-.058.058h0l-.058.058h0v.115h-.173v.058h0v.058h0v.058h0V81.3h0c0,.058,0,.058.058.115a.056.056,0,0,0,.058.058l.058.058a.2.2,0,0,0,.115.058h0c-.115.058-.173.115-.173.231a2.415,2.415,0,0,0-.462.693,1.27,1.27,0,0,0-.058.462v.058h.173a.057.057,0,0,0,.058-.058,3.111,3.111,0,0,0,.52-.693h.4a.257.257,0,0,0,0,.289h0l.115.115a.359.359,0,0,0,.231.346c.058,0,.116.058.173.058h.808c.058,0,.115,0,.115-.058a.124.124,0,0,0,.115.115c.058,0,.116.058.231.058h.808a.317.317,0,0,0,.173.289c.058,0,.115.058.173.058h-.058a.056.056,0,0,0-.058.058l-.116.115a154.115,154.115,0,0,0-.115-.115h-.577q-.173.087-.173.173c-.116,0-.058.173.058.173h0l.173.173h-.115a.057.057,0,0,0-.058.058h0l-.058.058H581.6a.156.156,0,0,0-.115.231.057.057,0,0,0,.058.058h0a.057.057,0,0,1-.058-.058h-.173c-.058,0-.058-.058-.115-.058h-.115a.057.057,0,0,0-.058.058h-.173c-.058,0-.058.058-.115.058h0l-.058.058c-.058.058-.115.115-.115.173L580.5,84.7h-.058a.057.057,0,0,1-.058-.058h-.346c-.058,0-.058,0-.058.058h0l-.058.058h0c0,.058-.058.058-.058.115s0,.058-.058.115h0l-.058-.058h0l-.058-.058h-.231a.057.057,0,0,0-.058.058h0c-.058,0-.058-.058-.115-.058h-.173a.056.056,0,0,1-.058-.058h-.173a.057.057,0,0,0-.058.058h0a.057.057,0,0,0-.058.058c-.058,0-.116.058-.173.058h-.115c-.058,0-.116,0-.116.058h-.058a.057.057,0,0,0-.058-.058h0l-.058-.058h-.289a.153.153,0,0,0-.173.173c0,.115.058.231.115.231s.058.058.115.058c0,.058.058.115.116.173.058,0,.058.058.115.058h.462c0,.058,0,.115.058.115l.058.058h.519c.058,0,.058,0,.115-.058h.115c.058,0,.058-.058.116-.058h0v.058c0,.058,0,.115.058.115h.52c.058,0,.115-.058.173-.058s.058,0,.115-.058h.058c.058,0,.058-.058.115-.058h0a.8.8,0,0,0,.231-.173h.289c.058,0,.058,0,.115-.058l.058-.058c.058,0,.058,0,.115.058v.173a.153.153,0,0,0,.173.173h.115a.359.359,0,0,0,.231.346h.115a2.822,2.822,0,0,0,.4-.173c.115,0,.231-.115.346-.173l.058.058-.058.058H582.7v.115l-.058-.058h-.115a.056.056,0,0,0-.058.058.175.175,0,0,0,0,.231c.058.058.058.058.115.058h.058v.058c0,.058,0,.115.058.115l.058.058a.179.179,0,0,1,.115.058h.116a.056.056,0,0,0,.058-.058l.058-.058h0l.058-.058h.115l.058.058c.058.058.058.058.115.058v.115h0c-.289,0-.289.52,0,.52.173,0,.231-.173.231-.289h.289c.058,0,.058,0,.115-.058l.116.115-.058.058c0,.058-.058.058-.058.115V87.3c0,.115.115.173.231.173s.173-.058.231-.173a.3.3,0,0,0,.116-.231h.058v.115c0,.058.058.058.058.115l.058.058h.173a.2.2,0,0,0,.116-.058c0,.058.058.173.115.173s.058.058.115.058h.346c.058,0,.058,0,.115-.058h0c.058,0,.058-.058.115-.058h0c.058,0,.058-.058.116-.058s.058-.058.115-.115h.058a.441.441,0,0,0-.115.289h-.116a.437.437,0,0,0-.231.058H585.7v.058h0V87.7h0v.058a.057.057,0,0,1-.058-.058h-.173q0-.087-.173-.173h-.116a.257.257,0,0,0-.115.346.057.057,0,0,0,.058.058h.173v.231h0a.057.057,0,0,0,.058.058l.058.058h.173a47.5,47.5,0,0,0,.115-.115.576.576,0,0,0,.289.231h.346a.056.056,0,0,0,.058-.058V88.4h0v.058h0v.058h0l.058.058h.346a.316.316,0,0,0,.346-.231h0a.057.057,0,0,0,.058.058l.058.058h0a.057.057,0,0,1,.058.058h.231c.058,0,.058,0,.115-.058a.057.057,0,0,0,.058-.058h0a.441.441,0,0,0,.115-.289c.058.289.058.577.115.866a1.972,1.972,0,0,0,.75,1.385,3.575,3.575,0,0,0,.982.635v.115a.862.862,0,0,1,.173.577v.346h0v.346c0,.173.058.4.058.577.058.115.058.289.116.4a10.248,10.248,0,0,0-2.6.462,3.681,3.681,0,0,1-.4.115h0l-.346.115a6.258,6.258,0,0,1,2.829-.981l-.231-.058h.173a1.96,1.96,0,0,1-.058-.577v-.058a.732.732,0,0,1-.346-.058,33,33,0,0,0-10.045,0,1.258,1.258,0,0,1-.346.058c-.058-.115-.058-.231-.116-.346s-.058-.231-.115-.346h.057a35.377,35.377,0,0,1,10.622-.058h.173a.6.6,0,0,0-.058-.231l-.058-.058-.058-.058a7,7,0,0,1-.808-.577,2.39,2.39,0,0,1-.866-1.674v-.058h-.289c-.058,0-.058,0-.115-.058h-.058a3.683,3.683,0,0,1-.4.115h-.231a35.253,35.253,0,0,0-.115-.115l-.058-.058L586.1,88.8l-.058-.058h-.115a.212.212,0,0,1-.173-.058.438.438,0,0,1-.231-.115h-.4c-.058-.058-.173-.058-.231-.115s-.115-.115-.115-.173h-.058a.056.056,0,0,1-.058-.058c-.058-.058-.115-.115-.115-.173-.058-.058-.058-.115-.058-.231a.521.521,0,0,1-.289.058.765.765,0,0,1-.577-.346.521.521,0,0,1-.289.058.627.627,0,0,1-.52-.231.524.524,0,0,1-.173-.4h-.115a.3.3,0,0,1-.231-.115.124.124,0,0,1-.116-.115.3.3,0,0,1-.115-.231l-.058-.058h0a4.651,4.651,0,0,0-2.54.635l-1.847.115s-.231-1.1-.52-2.309a1.071,1.071,0,0,1-.115-.4v-.115c-.058-.289-.116-.635-.173-.924a.057.057,0,0,0,.058-.058c.058,0,.058-.058.116-.058.635-.346,1.212-.635,1.732-.924h0l-.115-.115-.058-.058a.212.212,0,0,1-.058-.173v-.289c-.52.289-1.155.577-1.9.981h0a5.357,5.357,0,0,1-.577.289l.115.693h0c.058.462.173.866.231,1.328v.058c0,.115.058.231.058.346.115.52.231,1.1.346,1.616.289,1.443.635,2.944,1.039,4.387.058.173.058.289.116.462,0,.058.058.115.058.173.116.346.173.693.289,1.039a79.719,79.719,0,0,0,31.52,43.528l11.488,7.851,5.138,3.521.173.115.289.231.173-.173.289-.231,14.952-11.2c1.5-1.1,2.944-2.309,4.33-3.521a23.783,23.783,0,0,0,1.79-1.616,81.283,81.283,0,0,0,7.793-8.255h0a43.155,43.155,0,0,0,2.771-3.637c1.559-2.136,3-4.387,4.33-6.639h0c0-.058.058-.058.058-.115.289-.462.519-.924.808-1.443.231-.4.4-.75.635-1.155.058-.058.058-.173.115-.231.231-.4.4-.808.635-1.212a1.26,1.26,0,0,1,.173-.289A72.265,72.265,0,0,0,669.408,100a.819.819,0,0,0,.116-.346c.346-.981.693-1.963.981-2.944.4-1.328.75-2.6,1.1-3.926,0-.058,0-.058.058-.115,0-.058,0-.058.058-.115,0-.058.058-.115.058-.173v-.058h0s.116-.4.173-.75C669.464,90.3,669.349,90.243,669.291,90.185Zm-38.967-11.2Zm-49.993-1.155c-.058.058-.115.058-.173.115,0-.058.058-.058.058-.115v-.115c.058,0,.115-.058.173-.058a.056.056,0,0,1,.058.058h.058C580.446,77.716,580.388,77.774,580.331,77.831Zm4.618,1.212a.057.057,0,0,0-.058.058h-.346a.057.057,0,0,1-.058-.058h-.116a.056.056,0,0,0-.058.058H584.2c-.058,0-.058.058-.058.115V79.1a.931.931,0,0,0,.4-.231c.058,0,.058.058.115.058h0c.058,0,.058.058.115.058,0-.058.115,0,.173.058Zm.058-1.212h0c-.058.058-.058.058-.115.058h-.116a.056.056,0,0,0-.058-.058h-.058l-.058-.058h-.462a.057.057,0,0,0-.058.058h0a.2.2,0,0,0-.058.115c-.058.058-.058.173-.115.173h-.058v.058h-.115c-.058,0-.058,0-.116-.058h0c-.058,0-.058-.058-.115-.058a.057.057,0,0,1-.058-.058h-.231a.057.057,0,0,0-.058.058h0l-.058.058h0v.058h0v.058h0v.058h0v.058h0v.058h0v.058h0a.057.057,0,0,0,.058.058c.058.058.115.115.115.173-.058,0-.173-.058-.231-.058h-.115c-.058,0-.058-.058-.115-.058,0-.058,0-.058.058-.115v-.058h0v-.058h0v-.058h0a.057.057,0,0,0-.058-.058h-.346a.057.057,0,0,1-.058.058.438.438,0,0,0-.115.231l-.058-.058v-.058h0v-.058h0l-.058-.058h0l-.058-.058h-.289a.057.057,0,0,0-.058.058c-.115.115-.231.115-.346.173-.057-.058-.057-.115-.115-.173-.058,0-.058-.058-.115-.058h-.173c.058-.058.115-.115.115-.173a.8.8,0,0,0,.173-.231h.519a.211.211,0,0,0,.231.231h.4A.212.212,0,0,0,582.64,78h0c.058,0,.115-.058.173-.058h0c.058,0,.115-.058.173-.058h0c.058-.058.115-.058.173-.115h0c.058-.058.116-.058.173-.115h0c.058-.058.115-.058.115-.115h0l.116-.115h.4a.212.212,0,0,0,.173-.058h.058c.058,0,.115-.058.173-.058a.885.885,0,0,0,.577.4h.346C585.064,77.716,585.007,77.774,585.007,77.831Zm9.41-.75h.058c.058.058.116.115.116.173h-.058a.441.441,0,0,1-.115-.173Zm-1.155.808a.576.576,0,0,0,.231.289h.173a.056.056,0,0,0,.058-.058h0l.058-.058h0a.057.057,0,0,1,.058-.058v-.058h0v-.058c0-.058-.058-.115-.058-.173V77.6h0v-.289l.173.173a.056.056,0,0,0,.058.058,1.016,1.016,0,0,0,.231.289c.058.058.116.173.173.231a.057.057,0,0,0,.058.058h.289a.057.057,0,0,0,.058-.058h0l.058-.058h0v-.058h0v-.058h0v-.058h0v-.058l-.058-.058c-.058-.058-.058-.115-.115-.173h.115l.173.173.346.346.058.058h.173l.058-.058h0V78h0v-.058h0v-.058h0v-.058h0a.057.057,0,0,0-.058-.058l-.058-.058v-.173c0-.058-.058-.115-.115-.173l-.058-.058h-.173a.8.8,0,0,1-.173-.231c.058,0,.058-.058.058-.115a.438.438,0,0,0,.231.115h.231c.058,0,.058,0,.116-.058v.115h0V77.2h0a.057.057,0,0,0,.058.058h0a.057.057,0,0,0,.058.058h0l.058.058h0l.058.058h0a.056.056,0,0,1,.058.058h.115c.058,0,.058-.058.115-.058v-.115h0v-.058a.057.057,0,0,0-.058-.058h.173a.057.057,0,0,0,.058-.058c.058.115.173.173.231.289a1.54,1.54,0,0,1,.289.346.057.057,0,0,0,.058.058h.289a.057.057,0,0,1,.058-.058l.289.289h0v.115a.212.212,0,0,0-.173-.058c-.058,0-.116-.058-.173-.058h-.173L596.956,78h-.173l-.173-.173-.058-.058h-.116a.28.28,0,0,0-.173.346h-.173a.436.436,0,0,1-.231-.058h-.289l-.058.058h0v.058h0v.115h-.231c-.058-.058-.173-.115-.231-.173a.057.057,0,0,1-.058-.058h-.173a.057.057,0,0,0-.058.058h0l-.058.058h0a.057.057,0,0,1-.058.058h0v.058h0v.058h0v.115a.057.057,0,0,0-.058.058h-.058c-.058-.058-.115-.058-.173-.115h0a.057.057,0,0,1-.058-.058h-.4l-.116.115a.212.212,0,0,0-.058.173v.115h0l-.173-.173-.058-.058h-.231a.438.438,0,0,0-.231.115h-.115v.173h-.635l.173-.346c.058-.115.115-.173.115-.289a6.414,6.414,0,0,0,.4-.924h.058a.057.057,0,0,0,.058.058A1.307,1.307,0,0,0,593.262,77.889Zm-.346-4.445h.173V73.5h0a.056.056,0,0,1-.058.058c-.058,0-.116,0-.116-.058Zm-.981,2.944.058-.058h0c.116.115.231.173.346.289a.8.8,0,0,0,.231.173h-.116a.212.212,0,0,1-.173-.058h-.058c-.058,0-.058,0-.115-.058a.057.057,0,0,1-.058-.058c-.058-.058-.173-.115-.231-.173C591.876,76.446,591.934,76.446,591.934,76.388Zm-.808.462c.058,0,.058-.058.115-.058.115-.115.231-.173.346-.289h.115l.115.115h.058a.057.057,0,0,1,.058.058h.115c.058,0,.116.058.173.058a2.051,2.051,0,0,0,.577.115h0l.058.058v.115h-.115c-.058,0-.058,0-.116.058l-.058.058h0v.115c-.116-.058-.173-.058-.289-.115h0c-.058,0-.116-.058-.173-.058h0a1.687,1.687,0,0,0-.52-.115h-.116a3.378,3.378,0,0,0-.75-.115C590.9,77.023,591.01,76.908,591.126,76.85ZM590.2,78.87h0c.058,0,.115,0,.115-.058h0a.057.057,0,0,0,.058-.058h0a.057.057,0,0,0,.058-.058h0l.058-.058v-.173h0v-.115c.115.058.289.115.4.173h.173c.058,0,.058,0,.058-.058h0l.058-.058h0l.058-.058.346.173h.115v-.058h0v-.231h0v-.058c.058-.115,0-.231-.115-.346h.751c-.116.231-.231.52-.346.75-.058.058-.058.173-.116.231s-.058.173-.115.231h-.4c-.058,0-.058,0-.115.058h0a.057.057,0,0,0-.058.058h0l-.057.058-.058.058h0v.173h-.346c-.346-.115-.52-.4-.75-.635.231.115.231.115.231.058Zm1.328,7.043h0a1.638,1.638,0,0,1-.462.635,2.6,2.6,0,0,0,.346-.693V85.74h0C591.472,85.8,591.53,85.856,591.53,85.913Zm-2.886-6.35a.577.577,0,0,1,.231-.289h0c.058,0,.058.058.116.058a.437.437,0,0,0,.231.115c.058,0,.058,0,.116.058h.058a.437.437,0,0,1-.231.115l-.058-.058h-.115c-.058,0-.058,0-.058.058h0l-.058.058-.058.058c-.058-.115-.116-.115-.173-.173.058.058.058,0,0,0Zm0-.231a.437.437,0,0,0-.058-.231.2.2,0,0,1,.115.058A.212.212,0,0,1,588.643,79.332Zm.693.346c.058-.058.115-.058.173-.115h0c.058-.058.115-.058.173-.115h0l.058-.058h0a.2.2,0,0,0,.058-.115v-.231c0-.115-.058-.173-.058-.231.058.058.173.058.231.115h0c.173.173.346.4.519.577l.058.058h-.058a.057.057,0,0,0-.058.058h-.173c-.058,0-.058-.058-.115-.058s-.058-.058-.115-.058h-.173a.057.057,0,0,0-.058.058h0l-.058.058h0v.058h0v.058h0v.058a.212.212,0,0,1-.058.173,2.2,2.2,0,0,1-.346-.289Zm-3.752-2.194h0c.115-.058.173-.173.289-.231l.058-.058.058-.058.116-.115c0,.115.058.289.231.289h.577a.212.212,0,0,0,.173-.058h0c.058,0,.115-.058.173-.058h.058c.058,0,.115-.058.173-.115a.057.057,0,0,1,.058.058h.462a.212.212,0,0,0,.173-.058h0c.058,0,.116-.058.173-.058h.058c.057,0,.115-.058.173-.058h0c.058,0,.115.058.231.058h.52c.115,0,.173-.058.289-.058h.231c.058,0,.058,0,.116-.058a.056.056,0,0,1,.058.058v.058a.057.057,0,0,0,.058.058c.058.058.058.115.115.115v.173l-.058.058h0c-.058,0-.116,0-.116-.058h-.115a1.159,1.159,0,0,1-.462-.231h-.231a.056.056,0,0,0-.058.058h0v.058h0v.058h0v.058h0c-.058,0-.058,0-.115-.058h-.116c-.058,0-.058,0-.115.058h0l-.058.058H588.7c-.058,0-.058.058-.058.115h-.289a.057.057,0,0,0-.058.058h0c-.058,0-.058-.058-.116-.115l-.058-.058h-.231l-.058.058h0l-.058.058c-.058,0-.116-.058-.173-.115l-.058-.058h-.231a.057.057,0,0,0-.058.058h0a.2.2,0,0,0-.058.115c-.058,0-.173-.058-.231-.058H586.8a.057.057,0,0,0-.058.058h0l-.058.058h0a.057.057,0,0,1-.058.058v.058a1.088,1.088,0,0,1-.462-.115.2.2,0,0,1-.115-.058C585.353,77.658,585.469,77.6,585.584,77.485Zm1.328,1.847h-.173v.058c-.115-.058-.173-.115-.289-.173h-.231v-.058a.2.2,0,0,0,.115-.058h0a.2.2,0,0,0,.115-.058c.058,0,.058.058.115.058h0c.058,0,.058.058.116.058h0c.058,0,.058,0,.115.058h.346c.116-.058.173-.058.231-.115a1.8,1.8,0,0,0,.635.52.2.2,0,0,1,.115.058h0a.8.8,0,0,0-.173.231h0c-.058,0-.058-.058-.115-.115l-.058-.058H587.6a.056.056,0,0,0-.058-.058C587.489,79.505,587.143,79.448,586.912,79.332Zm.4,5.657h0c-.173.115-.231.231-.346.289h0a.212.212,0,0,0-.058-.173.057.057,0,0,0,.058-.058h0a.2.2,0,0,0,.058-.115h0c.058,0,.058.058.115.058h.173Zm-1.212-.173c-.058,0-.058.058-.115.115h0v.058h0v.058a.2.2,0,0,0,.058.115c.058,0,.058.058.116.058h.346c.058,0,.058,0,.116-.058h0c0,.058.058.173.058.231-.115.058-.231.173-.346.231l-.058.058a4.982,4.982,0,0,1-.751-.808h0c.058,0,.058-.058.115-.058.116,0,.173-.058.289-.115h.058c.058,0,.058,0,.058-.058h0a.179.179,0,0,1-.058.115h0C586.1,84.759,586.1,84.759,586.1,84.816ZM585.3,79.1h0a.057.057,0,0,0-.058-.058h0l-.058-.058h.115c.058,0,.115,0,.115-.058a.8.8,0,0,0,.577.289h0v.058c-.058,0-.058.058-.115.058h0l-.058-.058c-.058,0-.058-.058-.115-.058h-.231l-.058.058c-.058,0-.058-.058-.115-.058h0a.057.057,0,0,0-.058-.058C585.3,79.159,585.3,79.159,585.3,79.1Zm.173,6.7c-.058,0-.058-.058-.116-.058.058-.058.058-.115.116-.173h0c.058-.058.058-.115.115-.173v-.058h0v-.115c.058.115.173.173.231.289l.289.289h0c-.058,0-.058,0-.115-.058h-.346A.212.212,0,0,0,585.469,85.8Zm1.5,3.291c-.058,0-.058-.058,0,0-.058-.058-.116-.058-.173-.115a3.623,3.623,0,0,1-.693-.635,1.63,1.63,0,0,1-.231-.866,1.6,1.6,0,0,0-.173-.75h.115a.436.436,0,0,0,.058.231c0,.058,0,.058.058.058l.115.115h.115a.124.124,0,0,0,.115-.115l.058-.058c0-.058,0-.058.058-.115v-.289h0v-.173h.173v.058h0v.058h0v.115c0,.115-.058.173-.058.289a5.121,5.121,0,0,0,.173.808,4.592,4.592,0,0,0,.173.866l.346.693c.057.058.057.115.115.173A.654.654,0,0,0,586.969,89.088Zm.058-1.847c-.058-.115-.058-.231-.115-.346h0l.058.058h0l.058.058h0a.057.057,0,0,1,.058.058h.115a3.807,3.807,0,0,1,.058.808v.231a.521.521,0,0,0,.058.289v.058c0,.115.058.173.058.289C587.258,88.28,587.2,87.761,587.027,87.241ZM588.7,89.55a1.14,1.14,0,0,1-.346.693c-.058.058-.115.173-.173.231a.057.057,0,0,1-.058.058V89.9h0v-.058c0-.058,0-.058.058-.115h0v-.115a1.1,1.1,0,0,0-.289-.577,3.371,3.371,0,0,1-.231-1.039.52.52,0,0,0-.058-.289v-.462a.347.347,0,0,0-.058-.231h0a.258.258,0,0,0,0-.289c-.058-.058-.058-.115-.116-.115,0-.058,0-.058-.058-.115s-.058-.173-.115-.231l-.173-.346h.115a.576.576,0,0,0,.289-.231c.058-.058.058-.115.115-.231.058.115.173.173.231.231h0l-.058.058h0a.2.2,0,0,0-.058.115h0v.115h-.231c-.058.058-.115.173-.058.231.058.115.173.231.231.346a.576.576,0,0,0,.231.289h.116l.058-.058h0a.057.057,0,0,1,.058-.058c.058-.173-.058-.289-.173-.4,0-.058-.058-.058-.058-.115h.115a.776.776,0,0,0,.4-.346.664.664,0,0,0,.52-.346l.058.058v.058a.057.057,0,0,0-.058.058h0l-.058.058h0v.115h0a.212.212,0,0,0-.058.173v.058h0v.058h.173v.346a.981.981,0,0,1-.058.4c-.115.577-.231,1.155-.289,1.732A5.994,5.994,0,0,1,588.7,89.55Zm.289.173h0V88.8c.058-.635.231-1.212.289-1.847v-.924a.347.347,0,0,0,.058-.231.056.056,0,0,1,.058.058h.231a.057.057,0,0,0,.058-.058v.115a.384.384,0,0,0,.289.231.3.3,0,0,0,.289-.231,2.5,2.5,0,0,1,.058-.289.212.212,0,0,0,.173.058v.058a1.128,1.128,0,0,0,.058.4.057.057,0,0,0,.058.058h.289a.057.057,0,0,1-.058.058.2.2,0,0,1-.058.115c0,.058-.058.115-.058.173v.058a.057.057,0,0,0-.058.058,4.277,4.277,0,0,1-.75.693c-.058.058-.116.115-.058.173.231.4-.115,1.039-.289,1.385a1.577,1.577,0,0,1-.52.693l-.173.173C588.99,89.9,588.99,89.781,588.99,89.723Zm.231,1.328h0l-.115.115v-.231a.733.733,0,0,0-.058-.346c0-.173,0-.346.115-.4.231-.231.462-.346.577-.635.115-.231.173-.462.289-.693A1.962,1.962,0,0,0,590.2,87.7c.289-.173.462-.52.808-.75a1.92,1.92,0,0,0,.693-.808h0c0,.058.058.058.058.115l.115.115a.057.057,0,0,1,.058.058h.173l.058-.058h0v-.058h0V86.26a.655.655,0,0,0-.173-.462c-.058-.058-.058-.115-.115-.115.058-.058.058-.058.058-.115.116-.058.173-.115.173-.231v-.058a.057.057,0,0,1,.058-.058h0l.116.115h0v.058a.057.057,0,0,0,.058.058c.058.058.058.058.058.115h0l-.058.058v.058h0V85.8c.058.173.115.289.173.462a.057.057,0,0,0,.058.058h0l.058.058h.346l.058-.058h0a.057.057,0,0,1,.058-.058v-.289h0l.058-.058v-.058a.057.057,0,0,1,.058-.058v-.231a.383.383,0,0,0,.231-.289v-.058h.231v.058a.057.057,0,0,0,.058.058h.173c.058,0,.058,0,.115-.058h0l.058-.058h0a.056.056,0,0,1,.058-.058h0v-.115c.058.058.115.058.115.115h0c0,.058-.058.173-.058.231a.057.057,0,0,0-.058.058c-.058,0-.058.058-.115.058a.179.179,0,0,0-.115-.058.248.248,0,0,0-.231.231.982.982,0,0,0,.058.4l-.346.346a17.2,17.2,0,0,0-1.328,1.559,2.633,2.633,0,0,1-.693.693c-.231.173-.52.231-.693.462a2.7,2.7,0,0,0-.289.577,1.529,1.529,0,0,1-.346.289,3.479,3.479,0,0,0-.462.462c0,.058-.058.058-.115.115-.058.115-.173.231-.231.346C589.279,90.994,589.279,91.051,589.221,91.051Zm57.152-13.74c.52.289,1.27.75,1.79,1.039a4.989,4.989,0,0,1,1.385,1.1c.346.346,1.847,1.5,2.136,1.905s2.771,1.905,3.81,2.829c0,0,1.328,1.732,1.616,2.194,0,.058.058.058.058.115.058.231-2.367-1.963-2.944-2.367-.577-.462-2.136-.346-3.291-.924-1.212-.52-1.27-2.656-1.9-3.348s-3.06-2.771-3.06-2.771S646.084,77.139,646.373,77.312Zm-1.559,4.272c.808.4,3.117,1.443,3.579,1.616a6.934,6.934,0,0,1,1.732,1.1,12.132,12.132,0,0,0,1.5,1.386c.231.231,1.963.75,3,1.328,0,0,.808,1.559.981,1.847v.058c.173.231-.693-.4-2.136-1.328a1.871,1.871,0,0,0-1.559-.173c-.52.173-1.039.462-1.5.635a1.149,1.149,0,0,1-.75.058c-1.039-.289-.751-2.194-1.386-2.944s-.115-.981-.808-1.443-2.944-2.367-2.944-2.367A.4.4,0,0,0,644.814,81.584Zm-7.158-.635a3.091,3.091,0,0,1,1.5-.808,6.5,6.5,0,0,1,1.385-.289.212.212,0,0,0,.173-.058c.519-.231,1.1-1.443,1.328-1.616,0,0,1.212-1.443,1.674-1.963.058-.058.115-.058.115,0a15.318,15.318,0,0,1-1.27,2.6,3.1,3.1,0,0,0-.462,1.443c0,.058-.116.115-.289.173a7.554,7.554,0,0,1-1.559.289,9.065,9.065,0,0,0-.924.173c-.289.115-.462.231-.808.4-.462.289-2.6,2.251-3.348,2.886-.173.115-.231.231-.231.173C635,84.239,637.078,81.641,637.655,80.949Zm-4.907,8.313a18.516,18.516,0,0,1,2.886-1.5,10.8,10.8,0,0,0,2.887-2.482l4.849-5.022a.179.179,0,0,1-.058.115,38.587,38.587,0,0,1-1.732,4.907,9.758,9.758,0,0,1-2.771,3.06c-.173.058-.4.173-.693.289-1.616.52-4.849,1.27-5.888,1.616a2.27,2.27,0,0,1-.346.115h0C631.536,90.532,632.46,89.55,632.748,89.262Zm-7.043-3.291a.212.212,0,0,1,.173-.058,10.059,10.059,0,0,1,2.425.058,6.506,6.506,0,0,1,1.963,1.847c0,.058,0,.058.058.115l-2.02-.866a18.378,18.378,0,0,0-2.54-.289c-.289.058-2.886,1.1-4.849,1.905,0-.058-.058-.115-.058-.173C622.877,87.472,625.532,86.144,625.706,85.971ZM616.238,122.4v2.309a946.768,946.768,0,0,0-.231.924,2.5,2.5,0,0,0-.058.289c0,.058-.058.173-.058.231,0,.115-.058.173-.058.289,0,.058-.058.173-.058.231,0,.115-.058.173-.058.289,0,.058-.058.173-.058.231,0,.115-.058.173-.058.289s-.058.173-.058.289-.058.173-.058.289-.058.173-.058.289c-.058.115-.058.173-.115.289,0,.115-.058.173-.058.289-.058.115-.058.173-.115.289s-.058.173-.116.289-.058.173-.115.289-.058.173-.116.289-.058.231-.115.289c-.058.115-.058.173-.116.289s-.058.231-.115.289c-.058.115-.058.173-.116.289a.976.976,0,0,0-.115.289c-.058.115-.058.173-.116.289a1.251,1.251,0,0,1-.173.289c-.058.115-.115.173-.115.289l-.173.346c-.058.115-.115.173-.173.289l-.173.346c-.058.115-.115.173-.173.289l-.173.346c-.058.115-.115.173-.173.289a1.2,1.2,0,0,1-.231.346c-.058.115-.115.173-.173.289a2.51,2.51,0,0,0-.231.4c-.058.115-.116.173-.173.289-.116.173-.173.289-.289.462a.438.438,0,0,0-.115.231,4.82,4.82,0,0,1-.462.693l-3.348-2.194c-.4-.289-.808-.577-1.27-.866h0c-.116-.058-.231-.173-.346-.231h0c-.346-.231-.635-.462-.981-.693h0c-.058-.058-.173-.115-.231-.173h0c-.4-.289-.751-.577-1.155-.866-.116-.058-.173-.173-.289-.231l-.116-.115h0c-.289-.231-.519-.4-.808-.635h0c-.173-.115-.289-.231-.462-.346h0l-1.039-.866h0c-.173-.115-.289-.289-.462-.4h0c-.231-.173-.4-.346-.635-.52a5.188,5.188,0,0,0-.577-.52c-.173-.173-.346-.289-.52-.462h0c-.346-.346-.693-.635-1.039-.981h0a2.511,2.511,0,0,0-.4-.346,6.588,6.588,0,0,1-.635-.635l-.346-.346h0l-.173-.173-.866-.866-.115-.115c-.289-.289-.577-.635-.866-.924l-.173-.173h0l-.231-.231c-.231-.231-.462-.52-.693-.75.115.058.289.058.4.115h.115c.116.058.289.058.4.115h0a.983.983,0,0,0,.4.058h.115c.115,0,.289.058.4.058h0c.116,0,.289.058.4.058h.116c.115,0,.289.058.4.058h0a.983.983,0,0,1,.4.058h1.443a.433.433,0,0,0,.289-.058c.866-.173,3.752-.346,6.523-.52a3.117,3.117,0,0,0,2.078-3.464c0-.058-.058-.173-.058-.231-.058-.115-.115-.289-.173-.4a2.337,2.337,0,0,1-.289-.52c0-.058-.058-.058-.058-.115-.058-.058-.058-.115-.116-.173l-.058-.058c-.058-.058-.058-.115-.115-.173,0-.058-.058-.058-.058-.115s-.058-.058-.058-.115a.2.2,0,0,0-.058-.115c0-.058-.058-.058-.058-.115s-.058-.058-.058-.115-.058-.058-.058-.115-.058-.058-.058-.115-.058-.058-.058-.115-.058-.058-.058-.115-.058-.058-.058-.115-.058-.058-.058-.115l-.058-.058-.058-.058-.058-.058-.058-.058-.058-.058a205.786,205.786,0,0,1-.115-.115l-.058-.058-.058-.058h0c-.058,0-.173.058-.231.058h-.058c-.115,0-.173.058-.289.058h-.058c-.115,0-.173.058-.289.058h-.058c-.116,0-.231.058-.346.058h-.058c-.115,0-.231.058-.346.058h-.058c-.115,0-.231.058-.346.058h-.058c-.115,0-.231.058-.346.058h0c-.115,0-.231.058-.4.058h-.058c-.115,0-.231.058-.346.058H601.4c-.115,0-.231.058-.4.058h0c-.115,0-.231.058-.346.058h-.058a.732.732,0,0,0-.346.058h-.058a.732.732,0,0,0-.346.058h-1.789a2.138,2.138,0,0,1-1.443-.981c-.058-.115-.115-.289-.173-.4a2.972,2.972,0,0,0,1.328-.75l-.058-.115a7.431,7.431,0,0,1-1.27.346c.231-1.674,1.963-2.251,3-3.291.52-.52,1.847-1.79,2.425-2.367a5.97,5.97,0,0,1,.808-2.251c.058-.115,1.27-3.868,3.291-5.657l.115-.115h0l.173-.173a.2.2,0,0,1,.116-.058l.231-.231.115-.115a1.259,1.259,0,0,0,.231-.289l.173-.173c.116-.115.173-.231.289-.346l.173-.173c.116-.115.173-.231.289-.346a.8.8,0,0,0,.173-.231c.115-.115.173-.289.289-.4.058-.058.058-.115.116-.173l.173-.346h0c.115-.231.173-.4.289-.635h0c.058-.115.058-.231.115-.346h0V96.3c0-.058.058-.115.058-.231v-.058c0-.058.058-.115.058-.173v-.058a5.992,5.992,0,0,0,.231-.75v-.058c0-.115.058-.173.058-.289V94.63c.058-.346.173-.693.231-1.1v-.115c0-.115.058-.231.058-.346V92.9a18.925,18.925,0,0,0,0-4.445,8.1,8.1,0,0,1,1.212,3.406h0a3.55,3.55,0,0,1,.058.808v4.1a.212.212,0,0,1-.058.173v.115c0,.115-.058.173-.058.289h0a3.991,3.991,0,0,1-.173.462l.4-.4h0c.058-.115.173-.173.289-.289h0c.116-.115.173-.231.289-.346l.058-.058c.115-.115.173-.231.289-.346,0-.058.058-.058.058-.115l.346-.52c0-.058.058-.058.058-.115.115-.173.173-.289.289-.462.058-.058.058-.115.115-.173a2.135,2.135,0,0,0,.289-.635.057.057,0,0,1,.058-.058,2.409,2.409,0,0,0,.231-.577c0-.058.058-.115.058-.173.058-.231.173-.462.231-.75h0v-2.54a7.6,7.6,0,0,0-.289-1.5h0c-.058-.173-.115-.289-.173-.462a.99.99,0,0,1,.346.231h0l.115.115.058.058.115.115a.8.8,0,0,1,.173.231l.058.058a.3.3,0,0,1,.115.231c0,.058.058.058.058.115a.441.441,0,0,1,.116.289c0,.058.058.058.058.115.115.289.173.577.289.924v.115c0,.173.058.289.058.462v.866c0,.231-.058.52-.058.75v.173c-.058.231-.058.462-.115.693,0,.115-.058.173-.058.289l-.173.693c0,.115-.058.173-.058.289l-.346,1.039a.179.179,0,0,1-.058.115h0c0,.058-.058.058-.058.115h0a16.471,16.471,0,0,1-1.443,2.656c-.115.115-.173.289-.289.4s-.173.289-.289.4a1.53,1.53,0,0,1-.289.346c-.116.173-.231.289-.346.462A13.184,13.184,0,0,1,610,101.9s-2.251,2.078-2.656,3.695c.289-.058.52-.115.52-.115a.8.8,0,0,0,.4-.462c.058-.115.058-.173.115-.289a3.434,3.434,0,0,0,.231-.462c.058-.058.058-.115.115-.173l.231-.346c.116-.115.173-.231.289-.346.058-.115.173-.173.231-.231a1.53,1.53,0,0,1,.346-.289.438.438,0,0,1,.231-.115.057.057,0,0,0,.058-.058.212.212,0,0,1,.173-.058.056.056,0,0,0,.058-.058.347.347,0,0,1,.231-.058h0c.058,0,.173-.058.231-.058h.058a.212.212,0,0,0,.173-.058h.635a.52.52,0,0,1,.289.058,5.08,5.08,0,0,1-.577,4.156,4.4,4.4,0,0,1-.462.635c-.058.115-.173.173-.289.289l-.289.289a1.251,1.251,0,0,1-.173.289c-.057.115-.115.173-.173.289-.058.058-.115.115-.115.173-.115.115-.173.231-.289.346a1.21,1.21,0,0,1-.346.231c.115,0,.173-.058.231-.058.115-.058.231-.058.289-.115s.115-.058.173-.115.115-.058.115-.115c.058-.058.058-.115.115-.173s.058-.115.116-.173.115-.173.173-.231a.179.179,0,0,0,.058.115c0,.058.058.115.058.173s.058.115.058.231c.058.058.058.173.115.289a3.953,3.953,0,0,1,.173.462l.173.346a2.806,2.806,0,0,1,.173.4,1.445,1.445,0,0,0,.231.4c.058.058.058.173.115.231l.346.693a2.03,2.03,0,0,0,.289.462,10.279,10.279,0,0,0,1.328,1.79h0v.231a.057.057,0,0,0,.058.058v.058a.057.057,0,0,0,.058.058,272.2,272.2,0,0,1,.346.346,84.185,84.185,0,0,1,.173.173,123.668,123.668,0,0,1,.116.115c0,.058.058.058.058.115s0,.058.058.115c0,.058.058.058.058.115s.058.058.058.115.058.058.058.115.058.058.058.115.058.058.058.115.058.058.058.115.058.058.058.115.058.058.058.115.058.058.058.115.058.058.058.115.058.058.058.115.058.058.058.115a200.573,200.573,0,0,1,.231.462,152.615,152.615,0,0,1,.115.231c0,.058.058.115.058.173a197.325,197.325,0,0,1,.115.346,463.418,463.418,0,0,1,.289.866,287.794,287.794,0,0,1,.115.346.212.212,0,0,0,.058.173,191.771,191.771,0,0,1,.115.346v3C616.238,122.283,616.238,122.34,616.238,122.4Zm12.874-17.434c0,.115-.115.231-.173.346l-.058.058-.058.058v-.346h0v-.115h0v-.058c0-.115-.115-.173-.115-.289a.346.346,0,0,1-.058-.231,2.5,2.5,0,0,1-.058-.289v-.52h0c0-.058.058-.115,0-.173a.057.057,0,0,0-.058-.058v-.058c0-.058-.058-.058-.058-.115s-.058-.115-.058-.173h.116a.2.2,0,0,0,.115-.058l.058-.058c0-.058.058-.058.058-.115l.058.058.058.058h0v.058h0V103h0v.058h-.058l-.058.058v.058c.058.058.058.115.115.173a.124.124,0,0,0,.116.115h.058v-.173c0-.058-.058-.058-.058-.115a.057.057,0,0,0-.058-.058h.116c.058,0,.115-.058.173-.115a.057.057,0,0,1,.058-.058h.116c.057,0,.115-.115.173-.173h0v.058h-.058v.058h0a.057.057,0,0,1-.058.058h0v.346l-.173.866A1.439,1.439,0,0,0,629.112,104.964Zm.924-5.657c.058,0,.115.058.231.058h.115v-.058h0c.058,0,.115.058.173.058h.058a.212.212,0,0,0-.058-.173h.346a2.78,2.78,0,0,0-.173.4c0,.058-.058.058-.058.115s-.058.058-.058.115h-.289a.057.057,0,0,0-.058.058v.058h0V100h-.173a.776.776,0,0,1-.4-.346l-.058-.058h.173v-.058c.231-.173.231-.173.231-.231Zm.693-.924h0a.057.057,0,0,1,.058.058h0a.056.056,0,0,1,.058.058c.116,0,.173.058.289.058h0v.058h-.115l-.058.058v.058a.347.347,0,0,0-.231-.058h0a.347.347,0,0,0-.231-.058h-.058a.212.212,0,0,1-.173-.058h-.231c.058,0,.115-.058.173-.115s.173-.115.231-.173h.115C630.67,98.383,630.67,98.383,630.728,98.383Zm-.058-.058h0l.058-.058h0c.115.058.173.173.289.231H630.9c-.058,0-.058,0-.115-.058A.124.124,0,0,0,630.67,98.325Zm.635-1.5h-.116v-.058h0c.058,0,.058,0,.116.058Zm.4,2.136h0V98.9h0v-.173c0,.058.058.058.058.115a.057.057,0,0,0,.058.058c.058.115.115.173.173.289h0a.057.057,0,0,0,.058.058h.115v-.058h0v-.058h0v-.058h0a.2.2,0,0,0-.058-.115h.058l.231.231h.058v-.058h0v-.058c0-.058-.058-.058-.058-.115V98.9h-.115l-.115-.115.058-.058c.058,0,.058.058.116.058h.115v.058h0V98.9h.058l.058-.058v-.058h.173c.115.115.173.231.289.346h0l.058.058h.115a.057.057,0,0,0,.058-.058c.058.058.115.115.173.115h0v.058h0c-.058,0-.058-.058-.115-.058s-.058,0-.116-.058h-.115c-.058-.058-.058-.058-.116-.058h-.173a.111.111,0,0,0-.058.173h-.231v.058h-.173c-.058,0-.058-.058-.116-.058H632l-.058.058h0v.058h0v.058h0v.058h0c-.058,0-.058-.058-.115-.058h-.231l-.058.058s-.058.058,0,.058h0v.058h0c-.058,0-.058-.058-.115-.058l-.058-.058h0c-.058,0-.058.058-.115.058h-.058v.058h0v.058h-.231c0-.058.058-.115.058-.173a.2.2,0,0,1,.058-.115c.058-.173.173-.289.231-.462h.058v.058l.115.115c.058.058.058.115.116.173h.173v-.058h0v-.058h0A.337.337,0,0,0,631.709,98.96Zm.289-.289h0c.058,0,.058.058.115.058h0a.2.2,0,0,1-.115-.058Zm-1.443,4.445h0a.057.057,0,0,1-.058.058c0,.058-.058.058-.058.115-.058.058-.058.115-.116.173.058-.115.116-.173.173-.289v-.115h0A.057.057,0,0,0,630.555,103.117Zm-.519-3.291h0v.058h-.115a65.035,65.035,0,0,1-.115-.115h-.173v.058h0V100h0c-.058-.058-.115-.058-.173-.115h0c.058,0,.058-.058.115-.058h0a.057.057,0,0,0,.058-.058h0l.058-.058h0v-.058h0v-.115c0-.058,0-.115-.058-.115.058,0,.058.058.115.058h0A1.826,1.826,0,0,0,630.035,99.826Zm-.981.058c.058-.058.058-.115.115-.173h0a.057.057,0,0,1,.058.058c.058,0,.058.058.115.058h.115c-.057,0-.057.058-.115.058a.057.057,0,0,1-.058-.058h-.173c0,.115,0,.115-.058.058Zm0-.115v-.115a.056.056,0,0,1,.058.058Zm.75-.924h-.115c-.058,0-.115-.058-.173-.058h-.231v.058h-.173a.057.057,0,0,0-.058.058h0a.056.056,0,0,0-.058.058h-.173a.057.057,0,0,0-.058.058h0l-.058-.058a.057.057,0,0,1-.058-.058h-.058v.058h0a1235.572,1235.572,0,0,1-.115-.115h-.116V98.9c-.058,0-.058,0-.115-.058h-.173V98.9h-.115c-.058,0-.058,0-.115-.058h.058a.057.057,0,0,0,.058-.058h0c.058-.058.115-.058.115-.115l.058-.058h0l.058-.058v.115l.058.058h.577c.058,0,.058-.058.116-.058h.462c.058,0,.058-.058.115-.058h0c.058,0,.058,0,.115.058h.231c.058,0,.116,0,.116-.058h.231v.058h0c-.4.058-.4.115-.4.173Zm-1.616.924h-.058v.058c-.058-.058-.115-.058-.115-.115h.058a.057.057,0,0,0,.058-.058l.058.058h.289a.057.057,0,0,0,.058-.058l.173.173c.058.058.116.115.173.115h.058c0,.058-.058.058-.116.115h0a.056.056,0,0,1-.058-.058l-.058-.058h-.058c-.058-.058-.116-.058-.173-.115C628.3,99.826,628.246,99.826,628.188,99.768Zm.173,2.886h0l-.173.173h0v-.115a.057.057,0,0,0,.058-.058h0V102.6h.058a.057.057,0,0,0,.058.058Zm-.577-.058h0l-.058.058h0v.115a.2.2,0,0,0,.116.058h.231c0,.058,0,.058.058.115-.058.058-.116.058-.173.115h0a2.153,2.153,0,0,1-.346-.4h0a.057.057,0,0,0,.058-.058.2.2,0,0,0,.115-.058h.058v.058c-.058-.115-.058-.058-.058,0Zm-.4-3h.058l.058.058a.212.212,0,0,0,.173.058h.115a.057.057,0,0,0-.058.058h0l-.058-.058h-.116a.056.056,0,0,0-.058.058h0a.057.057,0,0,1-.058-.058h0V99.6h0c-.116.058-.116.058-.058,0h0c-.058.058-.058,0-.058,0Zm.058,3.348h0c0-.058.058-.058.058-.115v-.058h0c.058.058.058.115.115.115l.115.115H627.5c-.058,0-.058,0-.058.058h-.058C627.437,103,627.437,103,627.437,102.943Zm.173.577h0c.058.058.058.058.058.115v.058h0c0,.058.058.058.115.058a.124.124,0,0,0,.115-.115v-.058h0v-.115h0v-.115h.058v.058a.2.2,0,0,1-.058.115,1.069,1.069,0,0,0,.116.4v.173a.348.348,0,0,0,.058.231c0,.058.058.115.058.173s.058.115.115.173l.058.058c-.058-.058-.116-.058-.173-.115h0l-.058-.058c-.058,0-.058-.058-.115-.058-.115-.058-.173-.173-.231-.231s-.058-.115-.115-.231a.347.347,0,0,0-.058-.231v-.231c.058.058,0,0,.058-.058Zm.635.289c0-.058-.058-.115-.058-.173h0l.058.058h.116a.983.983,0,0,0,.058.4v.289c0,.058,0,.115.058.115h0A2.452,2.452,0,0,1,628.246,103.809Zm.982,1.385c0-.058,0-.058.058-.115h0v-.058h0v-.058h0v-.173h0v-.058c0-.173.058-.289.058-.462a1.273,1.273,0,0,0,.058-.462v-.462h0a.057.057,0,0,1,.058-.058v-.058h.173v.115l.058.058h.173l.058-.058v-.173h.058v.289l.058.058h.173v.058a.057.057,0,0,1-.058.058c0,.058,0,.058-.058.115v.058a.057.057,0,0,0-.058.058l-.115.115-.115.115a.8.8,0,0,1-.231.173c-.058,0-.058.058,0,.115a.684.684,0,0,1-.058.462.2.2,0,0,1-.058.115c0,.058-.058.058-.058.115-.058.173-.173.231-.289.346.173-.289.173-.289.116-.231Zm.115.577h0c-.058,0-.058-.058,0,0-.058-.173-.115-.4,0-.462l.173-.173c.058-.058.115-.115.115-.173s.058-.115.058-.173.058-.115.058-.173a.2.2,0,0,1,.058-.115c0-.058.058-.115.058-.173v-.346c.058,0,.058-.058.115-.058.115-.115.173-.231.289-.289l.115-.115a1.018,1.018,0,0,0,.231-.289h0a.057.057,0,0,0,.058.058l.058.058h.173v-.058a.347.347,0,0,0-.058-.231l-.058-.058v-.115l.116-.115h0v-.058h0l.058.058h0a.057.057,0,0,0,.058.058h0v.115h0V103a.347.347,0,0,1,.058.231h0v.058h0v-.058h0v-.058h0v-.058h0v-.058h0V103h0c.058,0,.058-.058.116-.115v-.115h.173l.058.058h.115v-.058h0v-.058h0v-.058l.058.058h0c0,.058,0,.058-.058.115h0a.056.056,0,0,0-.058.058h-.058c-.058,0-.058,0-.115.058l-.058.058a.347.347,0,0,0,.058.231l-.058.058-.115.115c-.058.058-.115.115-.115.173-.173.231-.4.4-.577.635l-.346.346c-.116.058-.289.115-.346.231l-.058.058c0,.058-.058.115-.058.173v.058l-.173.173c-.115.058-.173.173-.231.231.289.058.173.173.116.289Zm17.665,11.661-.058-.058h0a1.037,1.037,0,0,0-.289-.4,1.962,1.962,0,0,0-.346-.346,1.256,1.256,0,0,0-.289-.231,1.158,1.158,0,0,0-.231-.462c-.115-.173-.346-.231-.52-.346a2.2,2.2,0,0,1-.52-.52,9.407,9.407,0,0,0-.981-1.155c-.058-.115-.173-.173-.231-.289.058-.058.058-.231.058-.289a.153.153,0,0,0-.173-.173c-.058,0-.058,0-.116.058l-.058-.058-.058-.058c0-.058-.058-.115-.058-.173h0c.058,0,.058-.058.115-.058v.058h0v.058h0a.057.057,0,0,0,.058.058h0a.057.057,0,0,1,.058.058h.058v-.115h.173v.058c0,.115.058.173.173.231h0v.058h0v.058h0l.058.058h0v.115h0v.173h.115v-.058c.058-.115.058-.231.116-.346v-.115h0v-.058a.057.057,0,0,0-.058-.058h0l.058-.058v-.115h0l.058-.058h0v.058h0c.058.058.058.115.173.173,0,.058,0,.058.058.115,0,.058-.058.058-.058.115a.821.821,0,0,0-.116.346v.058h0v.058h.231a.057.057,0,0,0,.058-.058l.058-.058h0a1.264,1.264,0,0,0,.52.577c.231.173.346.4.577.52a.982.982,0,0,0,.116.808l.173.52a1.182,1.182,0,0,0,.462.462c.173.115.058.462.058.635C646.95,117.318,646.95,117.376,647.008,117.433Zm-3.983-9.063h0l-.058-.115h0V108.2h0v-.058h0l-.058-.058h-.173a.056.056,0,0,0-.058.058c-.058.058-.115.058-.173.115h-.173V108.2h0v-.058h-.115a.212.212,0,0,0-.173.058h-.173c.058-.115,0-.231-.116-.231h-.115a.057.057,0,0,0-.058.058l-.115.115h-.289c-.058,0-.115.058-.173.058h0a.2.2,0,0,0-.115.058v-.115h0l.058-.058.173-.173v.058h.058l.058-.058h0a3.311,3.311,0,0,1,.4-.462l.058.058h.173v.115h0v.058a.057.057,0,0,0,.058.058h.115v-.058h0v-.058h0v-.058h0V107.5h0v-.115h.231c.058-.058.115-.058.173-.115l.058.058c-.058.058-.058.115-.115.173h-.115a.057.057,0,0,0-.058.058c0,.058-.058.058-.058.115v.115h0a.057.057,0,0,1-.058.058h0v.058h0v.058h0v.058h.173a.056.056,0,0,0,.058-.058l.346-.346h.115c-.058.058-.058.115-.115.173v.058h0v.058h0v.058h0v.058h.231l.058-.058c.115-.115.173-.289.289-.4l.058-.058c.058-.058.058-.115.115-.173v.231h0v.115a.212.212,0,0,0-.058.173h0v.058a.057.057,0,0,0,.058.058h0l.058.058h.115c.115-.058.115-.115.173-.231l.173-.173a.057.057,0,0,1,.058-.058h.058a3.523,3.523,0,0,0,.289.693c.058.058.058.115.116.231.058.058.058.173.115.231h-.289v-.173h-.058c-.058-.058-.115-.058-.173-.115h-.115a.056.056,0,0,0-.058.058l-.116.115h0v-.058h0c0-.058,0-.058-.058-.115,0-.058-.058-.058-.058-.115h-.346c-.173,0-.231,0-.289.058Zm0,4.791h0c-.058-.058-.058-.058-.058-.115h0C643.024,113.046,643.024,113.1,643.024,113.161Zm-.058-5.888.116-.115h.058v.058l-.058.058Zm1.732-.346c.058,0,.058-.058.115-.058h.058l.058-.058h.058c.058,0,.058-.058.115-.058h.116l.289.289a.441.441,0,0,0,.289.115,1.963,1.963,0,0,0-.577.058h-.058a.821.821,0,0,0-.346.115h0a.82.82,0,0,0-.346.115v-.058c0-.058,0-.058-.058-.115l-.058-.058h-.058V107.1a.057.057,0,0,1,.058-.058h0C644.41,106.984,644.583,106.984,644.7,106.927Zm-.231,0c.173-.115.289-.231.4-.289h0l.058.058.058.058c-.058.058-.115.058-.173.115-.058,0-.058.058-.115.058h-.231Zm1.443,1.27h0v.173h0l.058.058h0a.057.057,0,0,1,.058.058h.115l-.058.058c-.173.173-.289.4-.52.462h-.231v-.058h0a.057.057,0,0,0-.058-.058l-.058-.058h0a.057.057,0,0,1-.058-.058h-.231a.212.212,0,0,1-.058-.173c0-.058-.058-.115-.058-.173a5.375,5.375,0,0,1-.289-.577h.52c-.058.058-.115.173-.058.231v.058h.115c.058-.058.173-.058.231-.115a.057.057,0,0,0,.058.058h0a.057.057,0,0,0,.058.058h0a.057.057,0,0,1,.058.058h.115c.116-.058.231-.058.289-.115v.115Zm2.425,6.235h.115a.057.057,0,0,0,.058-.058h0l.058-.058h0c0,.115-.058.173-.115.289v.058a7.3,7.3,0,0,1-.346,1.039c0-.058.058-.115.058-.173v-.058a.212.212,0,0,1,.058-.173v-.173c0-.173.058-.4.058-.577h0l.058-.115Zm.924-1.559h0c0-.058-.058-.058-.058-.115V112.7h0v-.058h.115c.058.058.115.058.231.115l.058.058h0a2.478,2.478,0,0,1-.519.577h0c-.116-.058-.173-.115-.289-.173,0-.058.058-.115.058-.173h.4c.058,0,.115-.058.173-.115-.173,0-.173,0-.173-.058Zm-.462.635h0c-.058.058-.116.058-.173.115l-.058.058h0c.058-.058.058-.173.115-.231h0A.179.179,0,0,1,648.8,113.508Zm.231-4.792h-.115c-.058.058-.115.115-.173.115v-.058h-.115a1.428,1.428,0,0,0-.52.231l-.058.058h-.115a.057.057,0,0,0-.058.058l-.058.058h0c-.058-.058-.116-.115-.116-.173h0c.058,0,.058,0,.116-.058a1.557,1.557,0,0,0,.462-.4c.058.058.115.058.173.115h.231a.057.057,0,0,0,.058-.058h0l.058-.058c.058,0,.058.058.115.058h0l.115.115Zm-.693,4.214h.058c.058,0,.058,0,.058-.058h0v.058h0l.058.058a.212.212,0,0,1-.058.173h0c.058-.058,0-.115-.115-.231Zm.058,3a2.046,2.046,0,0,0,.231-.52c.058-.173.058-.346.116-.52v-.058a.822.822,0,0,1,.115-.346c0-.058.058-.173.058-.231a.436.436,0,0,0-.058-.231v-.058h0v-.058h0v-.058h.173v.173h0v.115h0v.231c.058.115.115.115.173.115h.058l.058-.058a.057.057,0,0,1,.058-.058V114.2h.058a3.721,3.721,0,0,0-.115.4v.173a.521.521,0,0,1-.058.289.5.5,0,0,1-.173.346h0a1.362,1.362,0,0,1-.52.462c-.058,0-.058.058-.115.058h0a1.264,1.264,0,0,1-.289.173C648.335,115.99,648.393,115.99,648.393,115.932Zm1.1-2.482H649.2l.173-.173.173-.173v.058h0v.058a.2.2,0,0,0,.058.115h0a.124.124,0,0,0,.116.115c-.058,0-.058,0-.116.058,0-.058,0-.058-.115-.058Zm.231-4.734h0l-.058.058-.058-.058h-.058c-.058,0-.058,0-.058.058a.057.057,0,0,0-.058.058h0a.056.056,0,0,0-.058-.058h0a.713.713,0,0,0,.462-.231c.058,0,.058,0,.115.058h.115a.057.057,0,0,1-.058.058h0a.057.057,0,0,0-.058.058h0c-.173-.058-.173-.058-.231,0Zm0-1.1a.733.733,0,0,1-.346.058h0v-.058h0l-.058-.058h-.231c-.058,0-.115.058-.173.058a.057.057,0,0,0-.058-.058h0l-.058-.058h-.173a.057.057,0,0,0-.058.058c-.058,0-.058.058-.115.058a.056.056,0,0,0-.058-.058h-.173a.057.057,0,0,0-.058.058c-.058,0-.058.058-.115.058l-.058-.058h-.231l-.058-.058h-.115l-.058-.058h-.173v-.058h0v-.058h0l-.058-.058h-.231l-.346.173h-.231a.057.057,0,0,0-.058-.058v-.115c.058,0,.058-.058.115-.115a.057.057,0,0,1,.058-.058.057.057,0,0,0,.058-.058.057.057,0,0,1,.058.058h.115c.058,0,.115.058.173.058h.4a.212.212,0,0,0,.173-.058h0c.058,0,.058.058.116.058h0c.058,0,.058.058.115.058h.52c.058,0,.058.058.115.058h.058c.058,0,.058.058.116.058h.519c.115,0,.173-.115.173-.231,0,.058.058.058.058.115l.058.058.058.058.173.173h0a.438.438,0,0,0,.231.115C649.779,107.562,649.721,107.562,649.721,107.619Zm-2.425,1.328h0l-.058.058-.058-.058h-.173a.057.057,0,0,0-.058.058c-.058-.058-.115-.058-.173-.115h.116c.058,0,.115-.058.173-.115a.057.057,0,0,0,.058-.058h0C647.238,108.832,647.3,108.889,647.3,108.947Zm-.058-.289c.058,0,.058-.058.116-.058v.173Zm-.866-.231h0c.058-.058.115-.058.173-.115,0,.058-.058.115-.058.173v.173h0a.057.057,0,0,0,.058.058h0l.058.058h0l.115.115h0c.058.058.058.058.115.058h0a.8.8,0,0,1-.231.173.212.212,0,0,0-.058-.173v-.058h0a.057.057,0,0,0-.058-.058h0a.056.056,0,0,1-.058-.058h-.116l-.058.058-.058.058h-.115l-.058-.058h-.058l.058-.058Zm-.808,5.6a1.388,1.388,0,0,1-.346-.462h0c0-.058.058-.058.058-.115h0v.058A1.116,1.116,0,0,0,645.564,114.027Zm-1.443-9.41h0V104.5h.173v.058A.212.212,0,0,0,644.121,104.618Zm2.886,11.777a1.8,1.8,0,0,1-.4-.52c-.116-.289-.346-.75-.173-1.039,0-.058,0-.115-.058-.115a1.637,1.637,0,0,1-.577-.52l-.058-.058v-.058a.2.2,0,0,0-.058-.115c0-.058-.058-.058-.058-.115a.057.057,0,0,0-.058-.058h.231l.058-.058a.52.52,0,0,0,.058-.289v-.058c.058,0,.115,0,.115-.058a.347.347,0,0,0,.058.231.184.184,0,0,0,.173.173.153.153,0,0,0,.173-.173v-.115l.057.058h.173a.212.212,0,0,0,.058.173h0v.635c.058.462.173.866.231,1.328v.462h0v.058h0v.058h0a.212.212,0,0,0,.058.173C647.065,116.51,647.008,116.452,647.008,116.394Zm.866-.577a1.223,1.223,0,0,0-.173.4v.115h0v.115h0v.52c-.058-.058-.058-.173-.115-.231-.115-.173-.231-.289-.231-.462v-.52a9.787,9.787,0,0,0-.231-1.27.519.519,0,0,0-.058-.289v-.231h.115v-.058c0-.058,0-.058-.057-.115h0v-.115h0l-.058-.058h0l-.058-.058v-.058l.058-.058c.058.173.173.231.346.289h0v.058c.058.058.115.173.173.173h.173l-.058.058h0a.441.441,0,0,0-.115.289v.058h.115q.087,0,.173-.173a.056.056,0,0,1,.058-.058c.058-.058.116-.173.173-.231h0a.111.111,0,0,0-.058-.173h-.058v-.058h0a.057.057,0,0,0-.058-.058h0a.057.057,0,0,0-.058-.058h0l.173-.173c0,.058.058.115.058.173.058.115.115.115.231.173h.115c-.058.058-.058.173-.115.231,0,.058-.058.058-.058.115a68.557,68.557,0,0,0-.115.115c-.058,0-.058.058-.115.115v.231h0v.75C647.989,115.3,647.931,115.586,647.874,115.817Zm17.088-13.855a9.612,9.612,0,0,0-.462,1.155c-.52,1.155-1.039,2.251-1.559,3.406a10.017,10.017,0,0,1-.577,1.1c-.462.924-.924,1.79-1.443,2.656-.519.981-1.1,1.963-1.674,2.886s-1.212,1.905-1.789,2.829c-.635.924-1.27,1.847-1.963,2.713-.577.808-1.212,1.559-1.79,2.367a1.259,1.259,0,0,1-.231.289c-.058.058-.115.173-.173.231-.058-.058-.115-.173-.173-.231,0-.058-.058-.115-.058-.173a21.389,21.389,0,0,0-3.348-5.311c-.058.115-.173.173-.289.289a3.5,3.5,0,0,1-.577.4h0a.057.057,0,0,1-.058.058c0,.058-.058.231-.058.289v.289a1.96,1.96,0,0,1-.058.577c0,.115-.058.173-.058.289a76.322,76.322,0,0,0,.115.231,5.406,5.406,0,0,1,3.117,2.136l-.231-.231h0a6.178,6.178,0,0,0-2.136-1.27.2.2,0,0,1-.116-.058,4.808,4.808,0,0,0-.866-.231,1.745,1.745,0,0,1-.289-.4.057.057,0,0,0-.058-.058h0a.834.834,0,0,0,.116-.4,2.813,2.813,0,0,0,.058-.693c0-.231,0-.52.173-.635v-.058c.231-.173.462-.289.693-.462l.289-.289.173-.346a.856.856,0,0,0,.058-.4v-.058a1.97,1.97,0,0,1,.058-.577.347.347,0,0,0,.058.231h0l.058.058h.289a.057.057,0,0,0,.058-.058v-.058h0c.058.115.173.115.289.173h.115v-.058h0v-.058h.231a.184.184,0,0,0,.173-.173l.058.058a.057.057,0,0,1,.058.058h.173a.057.057,0,0,0,.058-.058l.058-.058h0v-.058h0V114.2h.115l.058-.058c.058-.058,0-.173-.058-.231h-.058a.124.124,0,0,0-.115.115h-.231v-.058h0v-.058h-.346c0-.058-.058-.115-.058-.173h.058l.058.058.058.058h0l.058.058h0a.056.056,0,0,1,.058.058h.462c.058,0,.058-.058.058-.115.058,0,.058.058.115.058h.173a.056.056,0,0,0,.058-.058l.058-.058v-.058h.058c0,.058.058.115.058.173s.115.115.173.115.173-.058.173-.115V113.8c0-.058-.058-.058-.058-.115l-.058-.058.058-.058a.057.057,0,0,1,.058.058h.231c0,.115.058.231.173.231a.173.173,0,1,0,0-.346h0v-.115a.124.124,0,0,0,.115-.115h.116a.056.056,0,0,0,.058.058l.058.058h.173c.058,0,.058-.058.058-.115v-.058h.058c.058,0,.058-.058.115-.058a.108.108,0,0,0,0-.173h-.115v-.058h0v-.058h-.058l-.058-.058h0a.438.438,0,0,0,.231.115c.115.058.173.115.289.115h.115c.116,0,.173-.115.173-.231h.115c.058,0,.116-.058.116-.173v-.115h.058a.057.057,0,0,1,.058.058h.173c.058.058.115.115.173.115h0c.058,0,.058.058.115.058h.058a.056.056,0,0,1,.058.058c.058,0,.058.058.116.058h.577v-.058h0v-.058h0V112.7h0v-.058h0l-.058-.058h0a.057.057,0,0,1-.058-.058v-.115h0l.058.058h.577a.056.056,0,0,0,.058-.058c.058-.058.058-.058.058-.115h.231c.058,0,.058,0,.116-.058.058,0,.058-.058.058-.115.058,0,.058,0,.115-.058s.116-.115.116-.173a.124.124,0,0,0-.116-.115h-.231v.058h0v.058h-.058a.2.2,0,0,0-.115-.058h-.058c-.058,0-.058,0-.116-.058h-.519c-.058,0-.058,0-.115.058h0l-.058-.058h-.231l-.058.058h0v-.058c0-.058,0-.058-.058-.115h0a.057.057,0,0,0-.058-.058h-.519l-.058.058-.115-.115-.058-.058h0l-.058-.058h-.635v-.058c.058-.058,0-.173-.116-.173h-.115a.057.057,0,0,0-.058-.058h-.173a.124.124,0,0,0,.115-.115h0c.058,0,.115-.115,0-.115a.124.124,0,0,0-.115-.115h-.519l-.058.058v.058a.057.057,0,0,0-.058-.058l-.058-.058h-.058c.058,0,.115,0,.115-.058.115-.058.115-.115.115-.231h.577a.436.436,0,0,0,.231-.058c.058,0,.058-.058.115-.058s.116.058.173.058h.462a.212.212,0,0,0,.173-.058c.116-.058.173-.115.173-.231a.211.211,0,0,0,.116-.289h.289a4.05,4.05,0,0,0,.346.52h.173v-.058c.058-.289-.173-.577-.4-.808,0-.058-.058-.115-.115-.173h0a.057.057,0,0,0,.058-.058h0v-.115h0v-.058h0v-.058h-.115V109h-.173l-.058.058h0a.057.057,0,0,1-.058.058c0,.058,0,.115-.058.115l-.058-.058h-.231a.056.056,0,0,0-.058.058l-.058-.058a.057.057,0,0,0-.058-.058h-.288v-.058l-.058-.058h-.173l-.058.058h0v.058h0v.058h0v.115a.057.057,0,0,1-.058.058c-.058,0-.058-.058-.116-.058,0-.058,0-.058-.058-.058a.056.056,0,0,1-.058-.058h0c.058,0,.058-.058.058-.115h0V109h0v-.058h0v-.058h0a.057.057,0,0,0-.058-.058.057.057,0,0,1-.058-.058h.115a.18.18,0,0,0,0-.346.179.179,0,0,1-.115-.058h-.115c-.058-.058-.115-.058-.173-.115h0a.108.108,0,0,0,0-.173.057.057,0,0,0-.058-.058H652.9a.184.184,0,0,0-.173-.173h-.058c-.058,0-.058-.058-.115-.058h-.058v-.231h0V107.5h0l-.058-.058H652.2v-.058h0l-.058-.058h-.115a.056.056,0,0,0-.058-.058h-.4c-.058-.058-.058-.058-.115-.058v-.058c.058,0,.058,0,.115-.058.115-.115.058-.231.058-.346V106.7h0v-.058h-.173a.057.057,0,0,0-.058.058c-.058.058-.058.173-.115.289h-.058v-.058h0a.057.057,0,0,1,.058-.058v-.058h0v-.058h0V106.7h-.173a.2.2,0,0,0-.058-.115c.058-.058.058-.115,0-.115h0l.058.058v.058h.289l.058-.058v-.058h0a.057.057,0,0,0,.058-.058h.115a.176.176,0,0,0,0-.231h0v-.058a.056.056,0,0,0,.058.058l.058.058h.058v.058h0v.115h-.058a.212.212,0,0,0-.173.058.057.057,0,0,0-.058.058c-.058.058-.115.115-.058.173l.058.058h.462c.058-.058.058-.058.058-.115h.115l.058-.058h0l.058.058.058.058h.173a.057.057,0,0,0,.058-.058.124.124,0,0,0,.115.115h.058l.115.115h.116c.058,0,.058-.058.115-.058h.058v.058h0c0,.058.058.058.115.058h.173v.115l.058.058h.173l.058.058h0v.115a.056.056,0,0,0,.058.058h0a.057.057,0,0,0,.058.058h0l.058.058h0l.058.058h0a.057.057,0,0,1,.058.058h.173a.217.217,0,0,0,0-.346.057.057,0,0,1-.058-.058h-.115l-.115-.115h0c0-.058.058-.115,0-.173a.057.057,0,0,0-.058-.058h-.058a.153.153,0,0,0-.173-.173h-.231v-.058c0-.058,0-.173-.058-.173h-.115v-.058h-.058a.124.124,0,0,0-.116-.115h0v-.058a.057.057,0,0,0-.058-.058h-.346c-.058-.058-.058-.058-.116-.058V106a.057.057,0,0,0,.058-.058c.058-.115,0-.231.058-.346v-.058h0v-.058h-.115l-.058.058a.347.347,0,0,0-.058.231h-.058v-.058h0V105.6h0v-.058h-.058a.2.2,0,0,0-.058-.115v-.058h0v-.058a.057.057,0,0,0,.058.058h.115a.164.164,0,0,0,0-.289.057.057,0,0,1-.058-.058h-.289a.057.057,0,0,0-.058.058v.115H651.8c-.058,0-.058,0-.058.058l-.058.058h-.058v-.058h.058c.058-.058.115-.173,0-.231h-.231v-.231h0v-.173H651.4l-.058.058c0,.058-.058.173-.058.231v-.058l-.058-.058h-.115a.057.057,0,0,0-.058.058h-.173v.115h0v.173h0v-.058h0v-.058h0l-.058-.058h-.173l-.058.058a.057.057,0,0,1-.058.058v-.058h0l-.058-.058h-.115c-.058.058-.173.115-.231.231h0v-.173h0v-.058h-.058l-.058.058h-.058a617.97,617.97,0,0,0-.115.115h-.058l-.058.058a.057.057,0,0,0-.058-.058h-.115l-.058-.058h0c-.058-.058-.058-.115-.115-.173,0-.058-.058-.058-.058-.115v-.058h-.058a.057.057,0,0,0-.058.058v-.058h-.058a.057.057,0,0,0-.058.058l-.173.173v-.173h0v-.058h0l-.058-.058h-.115c-.058,0-.116.058-.173.115l-.058-.058h0a.347.347,0,0,1-.231.058c-.058,0-.116-.058-.173-.058h-.115c-.058-.058-.173-.058-.231-.115h0c-.058,0-.058-.058-.115-.058h-.058c-.058,0-.058-.058-.115-.058h-.058v.058h0v.058h0v.058c.058.115.173.173.231.231l-.058.058h0v.289l-.058-.058h-.058v-.058h-.115l-.116-.115h-.058v.058h0v.058c0,.058,0,.115.058.115h-.231l-.058-.058-.058-.058h-.173l-.058-.058h-.231v-.115h-.058c-.058.058-.116.115-.173.115l-.058-.058-.116-.115-.058-.058h-.058v.058h0v.058h0v.058h0v.115h-.058v.173h.115v.058c-.058,0-.173.058-.231.058s-.115.115-.173.173h-.289v.058h0v.058h0v.058h0v.058h.058c.058,0,.173.058.231.058-.058.058-.115.115-.115.173V106h0a.056.056,0,0,0-.058-.058h0l-.058-.058h-.115c-.058,0-.058.058-.116.058h-.173v-.058h-.058a.057.057,0,0,1-.058-.058h-.462v-.058H644.3c-.116.058-.231.058-.289.115a.108.108,0,0,0,0,.173.057.057,0,0,0,.058.058h0v.058h0a.057.057,0,0,0-.058.058h0l-.058.058v.058a.057.057,0,0,1-.058.058c0,.058,0,.058-.058.115v.058h0v.058h-.173a.057.057,0,0,1-.058-.058l-.058-.058h-.173l-.058-.058h-.346l.058-.058v-.058h-.058c-.058.058-.116.058-.173.115l-.058.058-.058-.058-.116-.115a.056.056,0,0,1-.058-.058h-.173l-.058.058h0v.058h0v.058h0v.058l.058.058h-.115v.173h.173v.058h0c-.116,0-.231.058-.346.058s-.173.115-.231.173h-.462v.058h0v.058h0v.058h0v.058h0v.058h.058c.115,0,.173.058.289.058h.058l-.173.173V107.5h0a.057.057,0,0,0-.058-.058h0l-.058-.058h-.115c-.058,0-.115.058-.173.058h-.289v-.058h-.115a.057.057,0,0,1-.058-.058h-.52v-.058h-.173c-.116.058-.289.058-.4.115a.108.108,0,0,0,0,.173l.058.058h0v.058h0c-.058,0-.058.058-.115.058h0l-.058.058v.058a.057.057,0,0,1-.058.058c0,.058-.058.058-.058.115v.058h0v.058h0v.058h-.058a.2.2,0,0,0,.058.289h.116c-.058,0-.058.058-.116.058a.057.057,0,0,0-.058.058c-.058.058,0,.173.058.231-.058,0-.173.058-.231.058-.231.058-.462.058-.693.115a.145.145,0,0,0,0,.289h.693a.982.982,0,0,0,.4-.058h0a.057.057,0,0,1-.058.058h0v.058h-.231a.212.212,0,0,0-.173.058l-.058-.058h-.116v.115h0v.058h0a.057.057,0,0,0,.058.058c.058.058.058.058.115.058h-.115c-.058,0-.058,0-.115.058h0a.624.624,0,0,1-.4-.173h-.173l-.058.058h0v.058h0v.058a.451.451,0,0,0,.231.231h-.058v.058h0v.058h0v.058h0a.056.056,0,0,1,.058.058,1.07,1.07,0,0,0,.4.115,1.435,1.435,0,0,1-.462.058h-1.039c-.058,0-.058,0-.116-.058H637.2c.058.058.058.058.115.058h0c.058,0,.058.058.116.058h0c.058,0,.058,0,.115.058h.116v.058H637.6v.058h0v.058h0l.058.058v.058h.058a.983.983,0,0,0,.4-.058h0v.115c-.173,0-.4.058-.578.058-.058,0-.115.058-.115.173h-.058a.145.145,0,0,0,0,.289h.462c-.058,0-.058.058-.058.115-.058,0-.058,0-.115-.058h-.116v.058h0v.058h0v.058h0v.058h0a.057.057,0,0,1,.058.058c.058,0,.058.058.115.058h.693c.058,0,.058,0,.115-.058,0,.058.058.058.116.058a.52.52,0,0,1,.289.058v.058l.058.058h0v.058h0c-.058,0-.058.058-.115.058h0l-.058.058-.058.058a.056.056,0,0,1-.058.058c0,.058-.058.058-.058.115v.058h-.231a.057.057,0,0,0-.058.058c-.058.058-.058.058-.058.115h-.058v-.058h0v-.058h0v-.058h-.115v-.115h-.173a.438.438,0,0,0-.116.231h-.173l.058-.058v-.058h0V112.3l.058-.058c0-.058,0-.173-.058-.173h-.231a.056.056,0,0,0-.058.058h0v-.058h0v-.058h0l-.058-.058c-.058,0-.058,0-.116-.058h-.4l-.058-.058h-.462c-.173-.058-.346-.058-.52-.115h-.058v.058h0v.058h0l.058.058c.058.058.115.058.173.115h0c.058,0,.115.058.173.058l-.058.058h0v.058h0v.058h0v.058l.058.058.058.058h0l.058.058.058.058v.058h0c-.058.058-.115.231,0,.289h-.52l.058.058c.058,0,.058.058.116.058h.693c.058,0,.058-.058.115-.058h.116a.057.057,0,0,0-.058.058h0v.058h0v.058h0v.058h0a.153.153,0,0,0-.173.173h0v.115h0l.058.058h0a.056.056,0,0,1,.058.058h.52c-.115.058-.173.115-.289.173v-.115h0v.346h0v.058h-.115a.057.057,0,0,0-.058-.058h-.462a.057.057,0,0,0-.058.058h0c-.058.058-.115.058-.115.115H636.1v.058h0v.058c0,.058,0,.058.058.115h0a.057.057,0,0,0,.058.058h0l.058.058h0a.057.057,0,0,1-.058.058h-.4v.058h0c0,.058,0,.173.116.173h-.058l-.058.058h0v.058h0v.058h0v.058h0v.058h.173c.058-.058.173-.058.231-.115h0c0,.058.058.115.173.115h0v.058h-.577c-.058,0-.115-.058-.173-.058h-.058c.115.058.173.115.289.173-.231.058-.462.115-.751.173a.116.116,0,1,0,0,.231h.635c.058,0,.058,0,.115.058h.808c.058,0,.058,0,.115-.058h.058a.2.2,0,0,0,.115-.058h.173v.173h0v.058h.115c.058,0,.058,0,.116-.058h0c.058,0,.058-.058.115-.058h0c.058,0,.058-.058.115-.058a1.757,1.757,0,0,0,.4-.289v.058a1.036,1.036,0,0,1-.4.289l-.058.058h0v.058h.058a2.714,2.714,0,0,0,.693-.52,1.376,1.376,0,0,0,.635-.346c-.058.115-.058.289-.115.4v.058h0v.058h0l.058.058h.231a.057.057,0,0,1,.058-.058c0-.058.058-.115.058-.231v-.058a1.358,1.358,0,0,0,.115-.462v-.058c0-.058.058-.115.058-.231h.058c.058-.058.115-.058.173-.115a.057.057,0,0,0,.058.058h.058a.176.176,0,0,0,0,.231c.058.058.058.058.115.058h.058c.058,0,.058,0,.115.058h.635l-.346.173c-.058,0-.058.058-.115.058h0a.212.212,0,0,0,.173-.058h.058a1.728,1.728,0,0,0,.462-.231.956.956,0,0,0,.693-.289l-.173.173v.058h.116a3.227,3.227,0,0,0,.462-.289v.058h0a.057.057,0,0,0,.058.058h0a.057.057,0,0,1,.058.058h.115a2.05,2.05,0,0,0,.52-.231v.289h0v.058h.116a.056.056,0,0,1,.058-.058,1.778,1.778,0,0,0,.058-.577h0a.176.176,0,0,0,0-.231v-.058h.058l.058-.058v-.058h.058l.058-.058h0v.058a.347.347,0,0,0,.058.231h0a.057.057,0,0,0,.058.058h0c0,.058.058.058.058.115h.173v-.231h0c.058.058.115.173.173.231.346.4.751.866,1.1,1.328a3.491,3.491,0,0,0,.462.462,1.446,1.446,0,0,0,.4.231,1.054,1.054,0,0,0,.462.75,2.719,2.719,0,0,0,.346.52c.058.115.173.173.346.289,0,.058.058.058.058.115.058.173,0,.346.058.52a.179.179,0,0,0,.058.115c0,.058-.058.058-.058.115v.058c0,.058-.058.058-.058.115v.058l-.058.058a7.17,7.17,0,0,0-2.136.346c-.115.058-.231.058-.289.115h0l-.289.173a3.566,3.566,0,0,1,2.425-.924v-.346h0v-.346a.7.7,0,0,1-.289-.289l-.115-.115c-.058-.115-.173-.231-.231-.346a1.466,1.466,0,0,1-.52-.75.8.8,0,0,1-.231-.173,2.207,2.207,0,0,1-.52-.52c-.289-.4-.635-.75-.924-1.155h-.231c0,.058-.058.115-.058.173s-.058.115-.115.173l-.058.058a.2.2,0,0,1-.115.058.057.057,0,0,0-.058.058c-.058,0-.058.058-.173.058h-.289a.2.2,0,0,0-.115-.058l-.058-.058v-.058c-.058,0-.115.058-.173.058H642.1c-.058,0-.115,0-.115-.058h-.058c-.058.058-.115.058-.231.115a.212.212,0,0,1-.173.058h-.173c-.058,0-.115-.058-.173-.058h-.116c-.173.058-.289.173-.4.173H640.6c-.058,0-.115.058-.173.058h-.115a.212.212,0,0,1-.173-.058c-.058,0-.058-.058-.116-.058s-.058-.058-.115-.115a.2.2,0,0,0-.058-.115v-.115h-.058c0,.058-.058.115-.058.173v.058l-.058.231c0,.058-.058.115-.115.173l-.058.058s-.115.058-.115.115a.057.057,0,0,0-.058.058s-.115,0-.115.058h-.289c-.058,0-.115-.058-.173-.058-.058-.058-.115-.058-.173-.173a1.618,1.618,0,0,1-.693.462c-.058,0-.173.058-.231.058h-.116c-.058,0-.115,0-.115-.058l-.058-.058-.058-.058h-.289l-.115-.058-.116-.058a.2.2,0,0,0-.115-.058l-.058-.058c-.058,0-.058,0-.115.058h-.346v-.115H636.1v.115h-.231c-.058,0-.058,0-.173-.058h-.808a.614.614,0,0,1-.519-.577.517.517,0,0,1,.519-.52h0v-.058a.179.179,0,0,1,.058-.115,36.382,36.382,0,0,1,.116-.115l.058-.058h.058v-.173h0V113.8c0-.058,0-.058.058-.115a.2.2,0,0,0,.058-.115l.058-.058a.2.2,0,0,1,.115-.058h0v-.058c0-.058,0-.173.058-.173a.2.2,0,0,1,.058-.115c.058-.058.116-.115.173-.115h0c.058-.058.116-.058.173-.115h0c.058,0,.058-.058.115-.058a.057.057,0,0,0,.058-.058c.058,0,.058,0,.115-.058h0v-.058h-.231c-.058,0-.058,0-.173-.058-.058,0-.116-.058-.173-.058-.058-.058-.115-.058-.173-.115a.057.057,0,0,0-.058-.058.2.2,0,0,0-.058-.115v-.289c0-.058,0-.058.058-.115a.057.057,0,0,1,.058-.058l.058-.058.058-.058.058-.058.058-.058a.179.179,0,0,0,.116-.058c0-.058,0-.058-.058-.115-.058,0-.058-.058-.115-.058s-.115-.115-.173-.115l-.058-.058a.2.2,0,0,0-.058-.115v-.346a.057.057,0,0,1,.058-.058l.058-.058.058-.058.058-.058.058-.058.115-.058h.116a.212.212,0,0,1,.173.058c.116.058.231.058.346.115h.462c.058,0,.058,0,.115.058,0-.058-.058-.115-.058-.173a.607.607,0,0,1,.289-.52v-.115a.179.179,0,0,1-.116-.058h-.058c-.058-.058-.116-.058-.173-.115s-.115-.058-.173-.115a.057.057,0,0,0-.058-.058.2.2,0,0,1-.058-.115v-.231l.058-.115.058-.058.058-.058.058-.058.058-.058a.2.2,0,0,0,.115-.058h.115c.058,0,.173,0,.173.058a.179.179,0,0,1,.115.058h.462v-.058h0c-.058-.058-.058-.115-.058-.231v-.173h.115v-.058l-.115-.058c.058-.115.115-.173.173-.289,0-.058-.058-.115-.058-.231a.569.569,0,0,1,.52-.577h.115a.057.057,0,0,1-.058-.058,47.169,47.169,0,0,0-5.427-2.656h0a.2.2,0,0,1-.115.058h-.289a.178.178,0,0,1-.115-.058,38.621,38.621,0,0,1-.115-.115h0l-.058-.058c-.058-.058-.058-.115-.115-.173v-.058l-.058.058c-.173.231-.4.462-.577.693a1.349,1.349,0,0,1-.4.4c-.058.058-.115.058-.173.115a.921.921,0,0,1-.4.52.8.8,0,0,1-.173.231l-.058.058c-.058.058-.058.115-.116.115,0,0,2.367.866,3,2.194l-.346-.289h0a5.4,5.4,0,0,0-.693-.52,3.679,3.679,0,0,0-.808-.462c-.115-.058-.289-.115-.4-.173a8.919,8.919,0,0,0-1.328-.4v-.4c0-.058,0-.058.058-.115a.8.8,0,0,0,.231-.173c0-.058.058-.058.058-.115.058-.115.116-.173.173-.289.173-.173.346-.346.346-.52.115-.058.173-.115.289-.173a.7.7,0,0,0,.289-.289,6.105,6.105,0,0,1,.577-.693c.058-.058.116-.173.173-.231l.058-.058c0-.058.058-.058.058-.115h0v.173h.115l.058-.058h0v-.058h0v-.115h0v-.231h0v.058h.115a.108.108,0,0,0,0,.173h0v.173a.436.436,0,0,0,.058.231v.058h0v-.173a2.812,2.812,0,0,0,.4.173h.115v-.058h0c.115.058.231.173.346.231h.058c-.058-.058-.115-.058-.115-.115a.655.655,0,0,0,.462.173,1.261,1.261,0,0,1,.289.173h0c.058,0,.058,0,.115.058h0c-.058,0-.058,0-.115-.058-.116-.058-.173-.058-.231-.115h.577c.058,0,.058-.058.115-.058h0a.108.108,0,0,0,0-.173h.058l.058-.058c.058,0,.058.058.115.058h.058a.212.212,0,0,0,.058.173h0a.441.441,0,0,0,.115.289v.058c0,.058.058.115.058.173v.058h.058V104.5c-.058-.115-.058-.173-.116-.289a.713.713,0,0,0,.462.231.9.9,0,0,0,.462.346h.058a1.014,1.014,0,0,1-.289-.231V104.5a1.257,1.257,0,0,0,.289.231h0a.057.057,0,0,1,.058.058h.4l.058-.058h0a.057.057,0,0,1,.058-.058h0v-.058h.173a.2.2,0,0,0,.116.058h.519c.058,0,.115,0,.115-.058h.52a.087.087,0,0,0,0-.173,1.687,1.687,0,0,1-.52-.115c.058-.058.116-.058.173-.115v-.058h0V104.1h-.115c-.058,0-.058.058-.115.058h-.462V104.1h0a.2.2,0,0,0,.116-.058h0c.058,0,.115.058.173.058h.173l-.058-.058h-.058c.058,0,.058-.058.058-.115h-.289v-.058h0a.057.057,0,0,0,.058-.058h0v-.058h0v-.115h-.058c0-.058-.058-.058-.115-.058h-.4a.057.057,0,0,0-.058.058h-.058v-.058h0v-.289h-.058v.058h0v.058c-.058-.058-.115-.058-.173-.115h.462v-.058h0a.124.124,0,0,0-.115-.115h0v-.058h0V103h.058a.056.056,0,0,1,.058.058h.577c.058,0,.058,0,.115-.058h-.346a.108.108,0,0,0,0-.173h0a154.85,154.85,0,0,1,.116-.115h0l.057-.058a.057.057,0,0,1,.058-.058v-.058h0v-.058h0v-.058h0a.2.2,0,0,0,.115-.058h0a.2.2,0,0,0,.115-.058h0c-.115.058-.231.058-.346.115H636.1c-.058,0-.058.058-.058.115a.057.057,0,0,0,.058.058h0l.058.058H636.1c0-.058-.058-.115-.058-.173h0a.08.08,0,0,0,0,.115h-.058v.058h-.058c0-.058,0-.058-.058-.115a.057.057,0,0,1-.058-.058h-.173v-.058c0-.058,0-.058-.058-.058v-.058h0l-.058-.058h0l-.058-.058h0v-.058h0a.056.056,0,0,0,.058-.058v-.058h.173c.058,0,.058,0,.058-.058h0c.058,0,.115.058.173.058h.519a.056.056,0,0,0,.058-.058h-.058a.057.057,0,0,0-.058-.058h.346c.116,0,.116-.173,0-.231h-.058c0-.058,0-.115-.058-.115-.116,0-.289-.058-.4-.058h0v-.058h.346a.056.056,0,0,0,.058-.058h.231a.057.057,0,0,0,.058-.058h0c.058,0,.058-.058.115-.058v-.058h0v-.058h0V101.1h-.058c-.058,0-.058,0-.115.058h-.635a.733.733,0,0,1-.346-.058c.116,0,.173-.058.289-.058h0l.173-.173v-.058h0a.057.057,0,0,0-.058-.058h-.115a.441.441,0,0,1-.289.115h-.115c.058,0,.058,0,.058-.058v-.058h0v-.058h0v-.058h0v-.058h-.462v-.058h0v-.058h.75c.115,0,.115-.173,0-.231a2.9,2.9,0,0,1-.693-.115.175.175,0,0,0,0-.231.057.057,0,0,1-.058-.058h.058a.057.057,0,0,0,.058-.058h0c0-.058,0-.115-.058-.115h-.058V99.6a.057.057,0,0,0-.058-.058V99.48h0a.056.056,0,0,1-.058-.058h0a.057.057,0,0,1-.058-.058h0v-.058h0a.057.057,0,0,0,.058-.058v-.115c-.058-.058-.173-.058-.289-.115h-.693c-.058,0-.058-.058-.115-.058h-.173v.058h0v.058h0l-.115-.115h0a.124.124,0,0,0-.115-.115.347.347,0,0,1-.231-.058h.115v-.058h0v-.115h-.058v-.058h0V98.5h-.115l-.058.058a.057.057,0,0,0-.058.058.056.056,0,0,1-.058-.058c-.058,0-.058-.058-.116-.058h-.115v.058h0v.058h0v.058h-.231a.056.056,0,0,0-.058.058h-.173l-.058.058-.058.058h-.115v-.058h0v-.173h0l-.058-.058h0a.057.057,0,0,1-.058-.058h0V98.44h0v-.173c-.058-.058-.115-.058-.231-.115h-.346c-.058,0-.058-.058-.116-.058h0v.058h0v.058l-.116-.115a.212.212,0,0,0,.173-.058h-.115c0-.058-.058-.058-.058-.115h-.058a.212.212,0,0,1-.173-.058h.058V97.69h0v-.058h0l-.058.058-.058.058-.115-.115h0v.058h0v.058h-.173a.057.057,0,0,0-.058.058h-.231v-.173h-.115l-.058.058h0v.058h0l-.058.058h0v-.058h0v-.115h0c.058,0,.058-.058.115-.058a.2.2,0,0,0,.058-.115V97.4h0v-.058h0l-.058.058h0a.057.057,0,0,0-.058.058h0c-.058,0-.116.058-.173.058h-.058c-.058,0-.058.058-.116.058a.212.212,0,0,1-.173-.058h0a.057.057,0,0,1-.058.058c-.058-.058-.058-.058-.115-.058h-.058v.058h0v.058h0v.115c-.058-.058-.116-.058-.116-.115H629.4l-.058.058a.056.056,0,0,0-.058-.058h-.058a.057.057,0,0,0-.058.058h0c0,.058-.058.058-.058.115s-.058.058-.058.115h0a.056.056,0,0,0-.058.058h-.115a.057.057,0,0,1-.058-.058h-.115l-.058-.058h-.058v.173h0c-.058-.058-.116-.115-.173-.115h-.058v.058a112.257,112.257,0,0,0-.115-.115h-.173v.058h0v-.173h-.058V97.69H627.9l-.058.058h0v-.173h0v-.058h-.058v.115h0v.173h-.173l-.058.058v.115l.058.058h.058v.058h-.231v-.173h-.116a.057.057,0,0,0-.058.058c-.058.058-.058.173,0,.173h.116l.058-.058v.058h0v.058l-.058.058h-.058v.115h0a.212.212,0,0,0-.058-.173h0v.058h0V98.5h.058v.058a.057.057,0,0,0-.058.058h-.173v.058h0c-.058,0-.058.058-.116.058h-.058v.115h-.173a.056.056,0,0,0-.058.058l-.058.058h-.058v.115h0a.057.057,0,0,1-.058.058l-.058.058H626.4c-.116.058-.116.231,0,.231h.115a.057.057,0,0,0,.058-.058h0l.058-.058h0l.058-.058v-.115h0a.056.056,0,0,0,.058-.058h.115l.058-.058h.058l.058.058h.116a.057.057,0,0,0,.058-.058h.058l.058-.058.058.058h.115a.057.057,0,0,0,.058-.058h.058a.057.057,0,0,0,.058.058h.231l.058-.058c0-.058,0-.115-.058-.115h-.231v-.115h0v-.058h.058l.058-.058.058-.058v.058h0c-.058,0-.058.115,0,.115h.116l.058.058h0v.058a.057.057,0,0,0,.058.058h.116l.058-.058h0v.115a.2.2,0,0,0-.058.115h-.058v.115h0v.058h-.058v-.115c0-.058,0-.058-.058-.058H627.9v.289a.057.057,0,0,0,.058.058h.058v.058h-.058a.057.057,0,0,0-.058.058h-.346V99.6h-.173v.058h0v.115h-.346c-.058,0-.058.058-.058.115h-.058l-.058.058h0V100h0l-.058.058a.057.057,0,0,0-.058.058h-.173a.124.124,0,0,0-.115.115v.115l.058.058h-.058c0,.058,0,.058.058.058h-.058a.057.057,0,0,1-.058.058.057.057,0,0,0-.058.058v-.058h0v-.058h0V100.4h0v-.058h-.115a.057.057,0,0,0-.058.058.057.057,0,0,1-.058.058l-.058-.058H626a.057.057,0,0,0-.058.058h0v-.115h-.173v.058h0v.058h.058a.124.124,0,0,0-.115.115c-.058.058-.058.115-.116.115-.058.058-.115.115-.115.173a.347.347,0,0,0-.058.231v.058h.173c.058-.058.116-.115.116-.173l.058-.058c0-.058.058-.058.058-.115h.231c-.058.058,0,.115,0,.173l.058.058c0,.058.058.173.115.173h.4a.212.212,0,0,0,.173-.058l.058.058h0a.212.212,0,0,1,.173.058h.4v.058a.124.124,0,0,0,.116.115c.058,0,.058,0,.115.058h-.058l-.058.058h0l-.058-.058h-.346a.057.057,0,0,0-.058.058v.058c-.058,0-.058.058,0,.058h.058a.057.057,0,0,0,.058.058.057.057,0,0,1,.058.058h-.231v.115h-.462a.057.057,0,0,0-.058.058h0l-.058.058-.058.058h0l-.058-.058h-.231l-.058.058h0v.058h0v.058H626l-.058.058H625.3a.057.057,0,0,0-.058.058h-.058v-.058h-.058c-.058,0-.058.058-.058.115v.058c0,.058.058.058.058.115h.058v.058l.058.058h0c.058,0,.058,0,.115.058h.115a.057.057,0,0,0,.058.058h.346a.056.056,0,0,0,.058-.058h0v.058h-.058v.058h.519a.057.057,0,0,0,.058-.058h0a.124.124,0,0,0,.116-.115h.289v.058c0,.058.058.058.058.115h.115v.115a.057.057,0,0,0,.058.058h.058c.058,0,.173-.058.231-.058s.115-.058.173-.115h0l-.058.058h-.058v.058h0a.08.08,0,0,0,0,.115l.058.058h0v.058c0,.058,0,.058.058.115h.173a.056.056,0,0,0,.058-.058v-.058h.058a.057.057,0,0,0,.058.058v.115h0a.116.116,0,1,0,0,.231.124.124,0,0,0,.115-.115v-.058h.289l.058.058h0v.231a.057.057,0,0,0,.058.058h.058a.2.2,0,0,0,.115-.058c.058,0,.058-.058.058-.115h0v.058a.057.057,0,0,0,.058.058h.173a.057.057,0,0,0,.058-.058c0,.058,0,.058.058.115h.346a.057.057,0,0,0,.058-.058h0a.057.057,0,0,0,.058-.058l.058-.058h0a.057.057,0,0,1-.058.058v.058h-.346a.057.057,0,0,0-.058-.058h0l-.058.058v.115h.058v.058h.231a.124.124,0,0,0,.115.115h.173a.057.057,0,0,0,.058.058h0l.058.058h.289a.057.057,0,0,0,.058-.058h0v.058l.058.058h.116a.057.057,0,0,0,.058-.058h0a.212.212,0,0,0,.058-.173,1.126,1.126,0,0,1,.058.462,1.006,1.006,0,0,0,.346.693l.519.346h0a.2.2,0,0,1,.058.115v.808a.212.212,0,0,0,.058.173h-1.155a.732.732,0,0,0-.346.058h-.058a.52.52,0,0,0-.289.058H629.4a.347.347,0,0,0-.231.058h-.116c-.058,0-.173.058-.231.058h-.116c-.115.058-.231.058-.346.115s-.231.058-.289.115h0l-.346.115a5.214,5.214,0,0,1,3.117-.924l-.115-.115v-.346h0c-.116-.115-.289-.173-.4-.289a1.771,1.771,0,0,1-.519-.808h0a.212.212,0,0,0-.173.058H629.4a.2.2,0,0,1-.115-.058l-.058-.058h-.173c-.058,0-.058,0-.115-.058h-.231c-.058,0-.115-.058-.173-.115l-.058-.058c-.058-.058-.115-.058-.115-.115h-.058a.821.821,0,0,1-.346-.115l-.058-.058h-.058a.524.524,0,0,1-.4-.173c-.058-.058-.058-.115-.116-.173a.2.2,0,0,1-.115-.058l-.173-.173h-.058a1.207,1.207,0,0,1-.346-.231h0c-.058,0-.058.058-.115.058a.057.057,0,0,0-.058.058h0c-.058,0-.115.058-.173.058h-.462c-.058,0-.116,0-.116-.058a.056.056,0,0,1-.058-.058h0c-.058,0-.058-.058-.116-.058l-.058-.058v-.058H625.3l-.058-.058h-.115c-.058,0-.115-.058-.173-.058-.058-.058-.115-.058-.173-.115a.39.39,0,0,1-.231-.346v-.173a.555.555,0,0,1,.462-.52h.346c.058,0,.058-.058.116-.058h.346a.057.057,0,0,0,.058-.058l.058-.058a.2.2,0,0,1,.115-.058h.115a2.5,2.5,0,0,1-.289-.058h-.289c-.058,0-.115-.058-.173-.058-1.963-.346-4.387-.808-5.138-.981-.346-.058-.693-.173-1.039-.231h0c-.058,0-.173-.058-.231-.058h0c-.462-.115-1.5-.4-2.771-.808.115-.231.231-.4.346-.635,1.559.462,2.944.866,3.348.924.173.058.346.058.519.115a11.111,11.111,0,0,1,1.155.289c.173.058.346.058.462.115.115,0,.693.115,1.559.231h.115c.577-.058,1.155-.115,1.732-.231h0v-.289h0c0-.058.058-.058.058-.115h0l.058-.058c.058-.058.058-.058.115-.058h0a.2.2,0,0,1,.115-.058c.058,0,.116-.058.173-.058h.289c.058,0,.058,0,.116.058a.057.057,0,0,1,.058.058l.058.058h.115a.9.9,0,0,1,.346-.462.057.057,0,0,1,.058-.058h-.058a.057.057,0,0,0-.058.058c-.058,0-.115.058-.173.058h-.115a.212.212,0,0,1-.173-.058.505.505,0,0,1-.346-.52.732.732,0,0,1,.231-.52V98.21c.058-.058.058-.115.115-.173h0v-.058a.8.8,0,0,1,.231-.173l.115-.115a.057.057,0,0,0,.058-.058l.116-.115.058-.058h0v-.173c0-.058.058-.058.058-.115v-.058a.541.541,0,0,1,.289-.52.212.212,0,0,1,.173-.058h.231c0-.058,0-.058.058-.115a.057.057,0,0,1,.058-.058,1.265,1.265,0,0,1,.289-.173h.116c.115,0,.173,0,.173.058.058,0,.058.058.115.058l.058.058h.115c.058,0,.058,0,.116.058h.519c.058,0,.173.058.231.058.058-.058.058-.115.115-.115a.057.057,0,0,0,.058-.058c.058,0,.058-.058.115-.058h.289c.058,0,.115-.058.173-.058h.577c.058,0,.058-.058.115-.058l.058-.058c.058-.058.058-.058.116-.058s.115-.058.173-.058a.212.212,0,0,1,.173.058.2.2,0,0,1,.115.058l.058.058h0v.058c.058,0,.116.058.173.058h0c.058-.058.058-.058.115-.058s.116-.058.173-.058h.115a.179.179,0,0,0,.116-.058h.231a.2.2,0,0,1,.116.058c.058,0,.058.058.115.115s.058.115.116.115c0,.058.058.115.058.173v.115h0c.058,0,.058,0,.115.058.058,0,.058.058.116.058l.058.058h0c.058,0,.058,0,.173-.058h.058a.057.057,0,0,0,.058-.058h.346a.636.636,0,0,1,.346.173.442.442,0,0,1,.115.289l.058-.058a.212.212,0,0,1,.173-.058h.519a.212.212,0,0,1,.173.058c.058,0,.058.058.115.058s.058.058.115.115v.058c0,.058.058.058.058.115v.115c0,.058.058.058.058.115h.058c.058,0,.058,0,.116.058a.2.2,0,0,0,.116.058l.058.058.058.058h.173a.285.285,0,0,0,.173-.058h.519a.624.624,0,0,1,.4.173.524.524,0,0,1,.173.4l.058.058a.212.212,0,0,1,.058.173v.115a.346.346,0,0,1,.058.231h.289c6.062-.289,15.01-.346,28.922.058.635,0,1.27.058,1.847.058C665.885,99.653,665.423,100.807,664.961,101.962Zm-12.7,6.292h0a.124.124,0,0,1-.116-.115.057.057,0,0,0-.058-.058h-.173a.057.057,0,0,0-.058.058h0l-.058.058h0v.058h0v.115a.057.057,0,0,0-.058.058h-.115c-.058,0-.115.058-.173.058l.115-.115a.057.057,0,0,1,.058-.058h0v-.058h0V108.2h0a.057.057,0,0,0-.058-.058h0a.057.057,0,0,0-.058-.058h0a.057.057,0,0,1-.058-.058h-.231c-.058,0-.058.058-.116.058h-.231a.443.443,0,0,1-.115-.173l-.058-.058h0l-.058-.058h-.4a.057.057,0,0,0-.058.058h0l-.058.058h-.115a.124.124,0,0,0-.116-.115h.231c.231-.058.346-.115.4-.289a.2.2,0,0,1,.115.058h.462l.116.115.058.058.058.058a.057.057,0,0,1,.058.058l.058.058a.057.057,0,0,1,.058.058l.058.058a.057.057,0,0,1,.058.058c.058,0,.058,0,.115.058h.577a.184.184,0,0,0,.173-.173h.4c.058.058.058.115.116.173l.115.115h-.115c-.058,0-.058.058-.116.115-.115,0-.173,0-.231-.115l-.058-.058h-.115v.058h0c-.231-.115-.231-.115-.231,0Zm-1.559.346v.058a.056.056,0,0,0-.058-.058h-.115a.057.057,0,0,1-.058-.058h-.519a.213.213,0,0,0,.173-.058.056.056,0,0,0,.057-.058h0c.058,0,.058-.058.116-.058A3.3,3.3,0,0,0,650.7,108.6Zm2.6-1.039h0a.056.056,0,0,0,.058-.058c0,.058.058.058.116.058v.115c0,.058.058.058.058.115l-.115-.115C653.358,107.619,653.3,107.619,653.3,107.562Zm-26.151-8.486h0c-.058,0-.058,0-.116-.058H626.8v.058c0,.058-.058.058-.058.115h-.173a.056.056,0,0,1-.058-.058h-.173a.057.057,0,0,0-.058.058h0v.058h0v.058h0v.058h0v.058a.057.057,0,0,0,.058.058c-.058,0-.058,0-.115-.058h0a.056.056,0,0,1-.058-.058v-.115h0v-.058h-.173a.057.057,0,0,0-.058.058c0,.058-.058.058-.058.115h0v-.058h0v-.058h-.058a.212.212,0,0,1-.173.058.057.057,0,0,0-.058-.058l-.058-.058h-.058l.058-.058c0-.058.058-.058.058-.115h.231c0,.058,0,.115.058.115h.462a.057.057,0,0,0,.058-.058h.058a.057.057,0,0,0,.058-.058h.058l.058-.058h0l.058-.058h.231c.058,0,.058,0,.115-.058l.058.058c.058.058.116.058.173.115h.346l-.058.058c-.346-.058-.346-.058-.4,0Zm.058.52h-.462v0a.438.438,0,0,0,.231-.115.056.056,0,0,1,.058.058h.116c0,.058,0,.058.058.058ZM624.9,98.9c-.058.058-.058.058-.115.058a.2.2,0,0,1-.115.058.057.057,0,0,1,.058-.058v-.115c.115.058.115.058.173.058Z" transform="translate(-576.002 -64.9)" fill="#fff"/><path d="M635.964,117.8s-.462-.75-.866-.231C635.04,117.508,635.848,118.6,635.964,117.8Z" transform="translate(-600.981 -87.085)" fill="#fff"/><path d="M635.6,119.729s-.462-.981-1.1-.52C634.5,119.21,635.02,120.191,635.6,119.729Z" transform="translate(-600.73 -87.805)" fill="#fff"/><path d="M640.57,119.5H639.3A.761.761,0,0,0,640.57,119.5Z" transform="translate(-602.759 -87.98)" fill="#fff"/><path d="M624.6,133.031s.346.52.635-.231C625.235,132.858,624.6,132.742,624.6,133.031Z" transform="translate(-596.545 -93.602)" fill="#fff"/><path d="M625.4,131.587s.289.693.635,0C626.035,131.587,625.516,131.241,625.4,131.587Z" transform="translate(-596.883 -93.024)" fill="#fff"/><path d="M628.593,127.987a.464.464,0,0,0-.693,0C627.958,127.93,628.246,128.738,628.593,127.987Z" transform="translate(-597.94 -91.503)" fill="#fff"/><path d="M630.089,126.855a.466.466,0,0,0-.693-.058C629.339,126.8,629.8,127.548,630.089,126.855Z" transform="translate(-598.57 -91.005)" fill="#fff"/><path d="M627.651,135.3c.231-.058.52-.115.808-.173h0L626.9,134.9C626.9,134.838,627.246,135.184,627.651,135.3Z" transform="translate(-597.517 -94.485)" fill="#fff"/><path d="M638.993,121.662a.891.891,0,0,0,.4-.4l-1.1-.058a1.633,1.633,0,0,0,.173.346A1.686,1.686,0,0,1,638.993,121.662Z" transform="translate(-602.336 -88.699)" fill="#fff"/><path d="M627.8,129.087s-.635-.346-.808,0C626.938,129.087,627.284,129.722,627.8,129.087Z" transform="translate(-597.555 -91.968)" fill="#fff"/><path d="M629.29,133.846a6.361,6.361,0,0,1-1.79-.346C627.731,133.731,628.712,134.539,629.29,133.846Z" transform="translate(-597.771 -93.898)" fill="#fff"/><path d="M632.3,124.95a.92.92,0,0,0-1.1-.231S632.008,125.7,632.3,124.95Z" transform="translate(-599.335 -90.139)" fill="#fff"/><path d="M627.715,132.215c-.115-.058-.115-.115-.115-.115C627.6,132.158,627.658,132.158,627.715,132.215Z" transform="translate(-597.813 -93.306)" fill="#fff"/><path d="M634.485,122.442s-.808-.808-1.385-.346C633.1,122.038,634.024,123.423,634.485,122.442Z" transform="translate(-600.138 -89.017)" fill="#fff"/><path d="M631.239,125.921a1.178,1.178,0,0,0-1.039-.173S630.72,126.5,631.239,125.921Z" transform="translate(-598.912 -90.591)" fill="#fff"/><path d="M633.385,123.775a1.282,1.282,0,0,0-1.385-.346S633.1,124.584,633.385,123.775Z" transform="translate(-599.673 -89.6)" fill="#fff"/><path d="M629.474,132.646a10.728,10.728,0,0,1-1.674-.346C628.146,132.531,629.07,132.993,629.474,132.646Z" transform="translate(-597.898 -93.391)" fill="#fff"/><path d="M629.959,131.562s-1.385-.173-1.559-.462C628.4,131.1,629.266,132.312,629.959,131.562Z" transform="translate(-598.151 -92.883)" fill="#fff"/></g></g></svg>